<svg xmlns="http://www.w3.org/2000/svg" viewBox="0 0 1024 1024">
    <path d="M608.6 512c0 13.8 11.2 25 25 25s25-11.2 25-25-11.2-25-25-25-25 11.2-25 25zm0-.2c0 13.8 11.2 25 25.1 24.9 13.8 0 25-11.2 24.9-25.1 0-13.8-11.2-25-25.1-24.9-13.8.1-24.9 11.3-24.9 25.1zM590 455.1c8.1 11.1 23.8 13.6 34.9 5.4 11.1-8.1 13.6-23.8 5.4-34.9-8.1-11.1-23.8-13.6-34.9-5.4-11.1 8.1-13.5 23.7-5.4 34.9zm-48.3-35c13.1 4.2 27.2-3 31.5-16.1 4.2-13.1-3-27.2-16.1-31.5-13.1-4.2-27.2 3-31.5 16.1-4.2 13.1 3 27.2 16.1 31.5zm-59.7.1c13.1-4.3 20.3-18.4 16-31.5-4.3-13.1-18.4-20.3-31.5-16-13.1 4.3-20.3 18.4-16 31.5 4.3 13.1 18.4 20.2 31.5 16zm-48.2 35.1c8.1-11.2 5.6-26.8-5.5-34.9-11.2-8.1-26.8-5.6-34.9 5.5-8.1 11.2-5.6 26.8 5.5 34.9 11.1 8.2 26.8 5.7 34.9-5.5zm-18.4 56.8c0-13.8-11.2-25-25-25s-25 11.2-25 25 11.2 25 25 25 25-11.2 25-25zm18.5 56.7c-8.1-11.2-23.8-13.6-34.9-5.5-11.2 8.1-13.6 23.8-5.5 34.9 8.1 11.2 23.8 13.6 34.9 5.5 11.2-8.1 13.6-23.7 5.5-34.9zm48.3 35.1c-13.1-4.3-27.2 2.9-31.5 16.1-4.3 13.1 2.9 27.2 16.1 31.5 13.1 4.3 27.2-2.9 31.5-16.1 4.2-13.1-3-27.2-16.1-31.5zm59.7 0c-13.1 4.3-20.3 18.4-16 31.5 4.3 13.1 18.4 20.3 31.5 16 13.1-4.3 20.3-18.4 16-31.5s-18.4-20.3-31.5-16zm48.3-35.2c-8.1 11.2-5.7 26.8 5.5 34.9s26.8 5.7 34.9-5.5c8.1-11.2 5.7-26.8-5.5-34.9-11.2-8.1-26.8-5.6-34.9 5.5z"/>
</svg>
