<svg xmlns="http://www.w3.org/2000/svg" viewBox="0 0 1024 1024">
    <path d="M873.6 661.3c0 53.9-21.9 102.5-65.6 145.9-43.9 43.5-92.7 65.3-146.6 65.3-42.2 37.6-91.9 56.5-149.1 56.5s-107.1-19.1-149.6-57.4c-53.9 0-102.5-21.9-145.9-65.6-43.5-43.9-65.3-92.7-65.3-146.6C113.8 617.3 95 567.5 95 510.3s19.1-107.1 57.4-149.6c0-53.9 21.9-102.5 65.6-145.9 43.9-43.5 92.7-65.3 146.6-65.3C406.7 111.8 456.5 93 513.7 93c57.2 0 107.1 19.1 149.6 57.4 53.9 0 102.5 21.9 145.9 65.6 43.5 43.9 65.3 92.7 65.3 146.6 37.6 42.2 56.5 91.9 56.5 149.1s-19.1 107-57.4 149.6zm-50.4-269.4c-33.6-31-73.9-46.6-120.9-46.6s-87.2 19.2-120.5 57.7c-10.3 12.5-19.3 27-26.9 43.7 30.1-14.6 62-21.9 95.8-21.9 61 0 113.7 22.1 158 66.3 23.7 23.5 41.2 51.2 52.6 83.1 8.2-20.7 12.3-41.8 12.3-63.3 0-48.2-16.8-88-50.4-119zm-55 139.4c-32.3-32.4-71.5-48.6-117.7-48.6-21.9 0-42.7 3.9-62.5 11.8 44.3 15.9 80.1 43.4 107.5 82.4s41 80.4 41 124.2c0 36.9-7.5 70.9-22.4 101.7 20.2-8.3 38.3-20.4 54.3-36.4 32.2-32.3 48.3-71.5 48.3-117.5s-16.2-85.2-48.5-117.6zm.2-275.7c-32.3-32.2-71.5-48.3-117.5-48.3s-85.2 16.2-117.6 48.5-48.6 71.5-48.6 117.7c0 21.9 3.9 42.7 11.8 62.5 15.9-44.3 43.4-80.1 82.4-107.5 39-27.4 80.4-41 124.2-41 36.9 0 70.9 7.5 101.7 22.4-8.2-20.3-20.4-38.4-36.4-54.3zM620.9 579.8c-12.5-10.3-27-19.3-43.7-26.9 14.6 30.1 21.9 62 21.9 95.8 0 61-22.1 113.7-66.3 158-23.5 23.7-51.2 41.2-83.1 52.6 20.7 8.2 41.8 12.3 63.3 12.3 48.3 0 88.1-16.8 119.1-50.4s46.6-73.9 46.6-120.9c-.1-47.1-19.3-87.2-57.8-120.5zM513 150.4c-48.3 0-88.1 16.8-119.1 50.4s-46.6 73.9-46.6 120.9 19.2 87.2 57.7 120.5c12.5 10.3 27 19.3 43.7 26.9-14.6-30.1-21.9-62-21.9-95.8 0-61 22.1-113.7 66.3-158 23.5-23.7 51.2-41.2 83.1-52.6-20.6-8.2-41.7-12.3-63.2-12.3zM529.4 586c-15.9 44.3-43.4 80.1-82.4 107.5s-80.4 41-124.2 41c-36.9 0-70.9-7.5-101.7-22.4 8.3 20.2 20.4 38.3 36.4 54.3 32.3 32.2 71.5 48.3 117.5 48.3s85.2-16.2 117.6-48.5 48.6-71.5 48.6-117.7c0-21.9-3.9-42.7-11.8-62.5zm-154.1 11.1c-61 0-113.7-22.1-158-66.3-23.7-23.5-41.2-51.2-52.6-83.1-8.2 20.7-12.3 41.8-12.3 63.3 0 48.3 16.8 88.1 50.4 119.1s73.9 46.6 120.9 46.6 87.2-19.2 120.5-57.7c10.3-12.5 19.3-27 26.9-43.7-30 14.5-62 21.8-95.8 21.8zM330.5 445c-27.4-39-41-80.4-41-124.2 0-36.9 7.5-70.9 22.4-101.7-20.2 8.3-38.3 20.4-54.3 36.4-32.2 32.3-48.3 71.5-48.3 117.5s16.2 85.2 48.5 117.6 71.5 48.6 117.7 48.6c21.9 0 42.7-3.9 62.5-11.8-44.4-15.9-80.2-43.4-107.5-82.4z"/>
</svg>
