<svg xmlns="http://www.w3.org/2000/svg" viewBox="0 0 1024 1024">
    <path d="M455.74 212.78c-49.6 12.8-86.4 36.8-131.2 84.8-58.4 62.4-73.6 112-48.8 160 12 22.4 28.8 36.8 87.2 72l31.2 18.4-14.4-21.6c-8.8-12.8-15.2-42.4-17.6-75.2-3.2-48.8-1.6-56.8 20-90.4 34.4-52.8 94.4-81.6 169.6-80.8 91.2 0 141.6 24.8 164.8 79.2 24.8 57.6 4.8 130.4-48 176-28.8 25.6-35.2 28.8-96.8 40.8l-32 6.4-2.4 44.8-2.4 45.6 44-4.8c40.8-4 45.6-3.2 68 20 20 19.2 24.8 31.2 24.8 57.6v33.6l-169.6-3.2c-183.2-2.4-188.8-4-236.8-48.8l-25.6-24.8v50.4c0 61.6 16 93.6 54.4 111.2 24.8 11.2 67.2 13.6 256.8 16l227.2 3.2-4-72c-3.2-66.4-5.6-76-36.8-129.6l-33.6-58.4 32.8-35.2c41.6-45.6 55.2-78.4 55.2-136 0-71.2-20.8-133.6-59.2-175.2-57.6-63.2-178.4-91.2-276.8-64z"/>
</svg>
