<svg xmlns="http://www.w3.org/2000/svg" viewBox="0 0 1024 1024">
    <path d="M487.74 191.18c-83.2 32.8-157.6 87.2-180.8 132-29.6 57.6 44 150.4 120 150.4 48 0 88-20.8 108.8-57.6 15.2-27.2 17.6-40 13.6-81.6-2.4-26.4-7.2-57.6-10.4-68l-5.6-19.2 56.8 4.8c78.4 6.4 138.4 40.8 167.2 96.8 21.6 40 16.8 124.8-8.8 168.8-12 19.2-28.8 40.8-38.4 47.2-16 11.2-18.4 11.2-30.4-9.6-8-12-25.6-32-39.2-44-49.6-41.6-143.2-23.2-172.8 33.6-26.4 51.2-7.2 129.6 37.6 153.6 10.4 5.6 44 12 74.4 14.4l56 4.8v72l-154.4 2.4c-85.6.8-168-1.6-184-6.4-16-4-44.8-22.4-64-40.8l-33.6-32.8v34.4c0 47.2 13.6 95.2 33.6 116.8 27.2 28.8 73.6 34.4 298.4 34.4h212l-5.6-33.6c-3.2-19.2-6.4-72.8-6.4-119.2v-84.8l36.8-36.8c58.4-58.4 67.2-82.4 67.2-189.6 0-83.2-1.6-95.2-20-128-26.4-46.4-72.8-80.8-140-103.2-76.8-24.8-142.4-28.8-188-11.2zm24.8 107.2c12 39.2 4 67.2-26.4 89.6-43.2 32-89.6 12-84.8-38.4 1.6-19.2 11.2-30.4 46.4-53.6 24-16.8 46.4-30.4 49.6-30.4s10.4 14.4 15.2 32.8zm90.4 271.2c16.8 6.4 20.8 12.8 20.8 35.2 0 21.6-5.6 31.2-24 44.8-13.6 9.6-32 16-42.4 14.4-36.8-4.8-23.2-102.4 15.2-102.4 5.6 0 19.2 3.2 30.4 8z"/>
</svg>
