<svg xmlns="http://www.w3.org/2000/svg" viewBox="0 0 1024 1024">
    <path d="M512.48 183.72c-72 14.4-160 71.2-197.6 128.8-18.4 27.2-19.2 32.8-10.4 59.2 23.2 71.2 91.2 110.4 160 92 70.4-19.2 100-80 81.6-170.4-4.8-23.2-7.2-42.4-6.4-44 6.4-5.6 118.4 21.6 136.8 33.6 44.8 28.8 56.8 108.8 27.2 171.2-19.2 38.4-67.2 77.6-104 84.8-78.4 15.2-71.2 9.6-71.2 59.2v45.6l46.4-2.4c44.8-2.4 48-1.6 68 22.4 14.4 16.8 21.6 34.4 21.6 52.8v27.2h-163.2c-92.8 0-172.8-3.2-185.6-8-12-4.8-36-20-53.6-33.6l-31.2-25.6 3.2 56.8c2.4 42.4 7.2 61.6 18.4 75.2 32.8 36.8 53.6 39.2 292 39.2h224v-60c0-55.2-2.4-64.8-35.2-127.2l-35.2-67.2 22.4-21.6c12-11.2 32-39.2 44-61.6 20-36.8 21.6-44.8 17.6-105.6-5.6-84-16.8-119.2-50.4-156-40-44.8-152.8-77.6-219.2-64.8zm-2.4 123.2c4 32 1.6 38.4-20 60.8-51.2 51.2-122.4 12.8-89.6-48.8 11.2-20 89.6-64.8 98.4-56 4 4 9.6 24 11.2 44z"/>
</svg>
