<svg xmlns="http://www.w3.org/2000/svg" viewBox="0 0 1024 1024">
    <path d="M563.74 269.58c-39.2 27.2-49.6 40-60.8 76-12.8 42.4 2.4 87.2 49.6 144l40 48-36.8 42.4c-20 22.4-48 64-62.4 91.2l-25.6 50.4h-121.6l-25.6-55.2c-13.6-30.4-27.2-73.6-30.4-96-4.8-41.6-4.8-41.6 34.4-78.4 25.6-24.8 38.4-43.2 36.8-54.4-3.2-26.4-26.4-84-33.6-84-3.2 0-24.8 16.8-48 37.6l-42.4 37.6 4.8 64.8c2.4 44 12.8 90.4 32.8 148 16 46.4 28.8 95.2 28.8 108.8s2.4 36.8 4.8 50.4l4.8 24.8h201.6c220 0 224.8-.8 248.8-48 28-53.6.8-148.8-60.8-212-12.8-13.6-23.2-27.2-23.2-29.6 0-3.2 14.4-22.4 32-42.4 48-55.2 58.4-80 54.4-125.6-7.2-68.8-48.8-108-122.4-115.2-43.2-4-51.2-2.4-80 16.8zm150.4 73.6c26.4 24.8 17.6 56-30.4 103.2-24 24.8-48.8 43.2-54.4 41.6-12.8-4.8-45.6-62.4-45.6-82.4 0-38.4 60-88 96-79.2 11.2 2.4 26.4 10.4 34.4 16.8zm-44 277.6c29.6 44 33.6 80 10.4 92.8-8.8 4-46.4 8-84.8 8h-68.8l13.6-26.4c7.2-13.6 25.6-46.4 40.8-72 35.2-57.6 51.2-58.4 88.8-2.4z"/>
</svg>
