<svg xmlns="http://www.w3.org/2000/svg" viewBox="0 0 1024 1024">
    <path d="M516.4 145.1c0 5.7-.7 12.1-2 19-1.3 7-3.2 13.8-5.6 20.7s-5.4 13.1-8.9 19-7.5 10.5-11.9 14.1c-7 5.6-16.6 10.7-28.8 15.4-12.2 4.7-25.6 8.7-40.3 12.1s-30.1 6-46.3 7.9c-16.1 1.9-31.7 2.9-46.8 2.9-15.8 0-30-1.4-42.5-4.3s-23.1-7-31.9-12.4c-8.7-5.4-15.4-12.1-20.1-20-4.7-7.9-7-16.8-7-26.8 0-8.5 1.3-16.6 4-24.4 2.6-7.8 5.6-14.6 8.9-20.4 3.3-5.9 6.4-10.5 9.2-14.1s4.5-5.3 4.9-5.3c.7 0 1.9.6 3.6 1.8 1.7 1.2 2.5 2.5 2.5 4v.2c0 .1-.1.3-.2.4-.4.7-1.4 2.2-2.9 4.3-1.5 2.1-2.9 4.8-4.4 8.1-1.5 3.3-2.8 7.1-4 11.3-1.2 4.3-1.8 8.8-1.8 13.6 0 8.3 2.5 15.1 7.5 20.1 5 5.1 11.8 9 20.3 11.8 8.6 2.8 18.6 4.7 30.1 5.6 11.5 1 23.7 1.4 36.6 1.4 10.3 0 21.2-.4 32.8-1.1 11.6-.7 23.3-1.8 34.8-3.3 11.6-1.5 22.6-3.3 33.2-5.4 10.5-2.1 19.9-4.6 28-7.5s14.6-6 19.4-9.3c4.8-3.4 7.3-7.1 7.3-11.2 0-1.6-1-3.7-2.9-6.2s-4-5.2-6.2-8-4.3-5.7-6.2-8.6c-1.9-2.9-2.9-5.5-2.9-7.8 0-1 .4-2.9 1.1-5.5.7-2.6 1.7-5.7 2.9-9.1 1.2-3.4 2.5-7.1 3.8-10.9 1.4-3.8 2.7-7.4 4.1-10.7s2.5-6.2 3.4-8.6c1-2.4 1.6-4 2.1-4.7 2.6 2.6 5.3 5.9 8 9.8 2.7 3.9 5.2 8.1 7.4 12.7s4 9.4 5.3 14.5 2.4 10.1 2.4 14.9zM396.2 300c0 .6-.5 1.8-1.4 3.6-1 1.8-2.2 4-3.6 6.5-1.5 2.5-3.1 5.1-4.9 7.9-1.8 2.8-3.6 5.3-5.3 7.6-1.7 2.3-3.3 4.2-4.7 5.7-1.5 1.5-2.5 2.3-3.1 2.3-.4 0-2.3-1.1-5.6-3.2s-6.8-4.5-10.4-7.3c-3.7-2.7-7-5.3-10-7.9-3-2.6-4.5-4.2-4.5-4.9 0-.6.5-1.8 1.4-3.7 1-1.9 2.2-4.1 3.7-6.6s3.2-5.1 5.1-7.9c1.8-2.8 3.6-5.3 5.3-7.6 1.7-2.3 3.2-4.2 4.5-5.7s2.3-2.3 2.9-2.3c.9 0 3 1.1 6.3 3.3s6.8 4.6 10.4 7.4c3.7 2.7 6.9 5.3 9.8 7.9 2.7 2.5 4.1 4.2 4.1 4.9zM664.7 224.9c0 1.8-.1 3.9-.3 6.5-.2 2.6-.7 5.1-1.5 7.5-.8 2.4-2 4.5-3.6 6.2-1.6 1.7-3.8 2.5-6.6 2.5h-8.1c-1.2 0-2.9-.1-5.3-.4-2.3-.3-4.3-1-5.9-2.2-.7 6.2-1.6 12.9-2.7 20.1s-2.7 14.6-4.8 22c-2.1 7.4-4.8 14.6-8.1 21.8-3.3 7.1-7.4 13.7-12.4 19.9-2.8 3.4-6.3 6.7-10.4 9.9-4.2 3.2-8.9 6.1-14.1 8.7-5.2 2.6-10.7 4.6-16.5 6.3-5.8 1.6-11.6 2.4-17.5 2.4-2.8 0-6.2-.5-10.3-1.4-4.1-1-8.4-2.2-12.9-3.6-4.5-1.5-9-3-13.5-4.7-4.5-1.7-8.6-3.3-12.2-4.9-3.6-1.6-6.5-3-8.8-4.3-2.3-1.2-3.4-2.1-3.4-2.5s.1-1.1.2-2.1.3-1.9.5-2.9.5-1.8.9-2.5.7-1.1 1-1.1c.4 0 2.1.2 4.8.7 2.8.4 7.3.7 13.4.7 6 0 12.6-.8 19.8-2.3 7.2-1.5 14.5-3.8 21.9-6.8 7.4-3 14.7-6.7 21.9-11.1 7.2-4.4 13.7-9.5 19.6-15.4 9.7-9.7 16.5-17.6 20.4-23.8 4-6.2 5.9-10.2 5.9-12 0-.6-.6-1.8-1.9-3.6-1.2-1.8-2.8-3.9-4.6-6.3-1.8-2.3-3.8-4.9-6-7.6-2.2-2.7-4.2-5.2-6-7.6-1.8-2.3-3.4-4.4-4.6-6-1.2-1.7-1.9-2.8-1.9-3.4 0-.1.4-1.1 1.2-3 .8-1.8 1.8-4 3-6.6 1.2-2.6 2.5-5.3 3.8-8.2 1.4-2.9 2.7-5.7 4-8.5 1.2-2.7 2.3-5 3.2-6.9.9-1.9 1.5-3.1 1.8-3.7h5.7c1.3 1.6 2.9 3.5 4.8 5.6 1.9 2.1 4.1 4.1 6.6 6 2.5 1.9 5.4 3.5 8.7 4.7 3.3 1.2 6.9 1.9 10.9 1.9h8.1c2.8 0 5 .8 6.6 2.5 1.6 1.7 2.8 3.7 3.6 6.2.8 2.4 1.3 4.9 1.5 7.4 0 2 .1 4.1.1 5.9z"/>
    <path d="M713.3 160.5c0 1.9-.1 4.3-.3 7.3-.2 2.9-.6 6.2-1.2 9.7-.6 3.5-1.4 7.3-2.4 11.2-1 4-2.3 7.9-3.7 11.9-2.1 5.3-4.5 10.7-7.5 16.3-2.9 5.6-6.4 10.6-10.4 15.2-4 4.5-8.7 8.3-14 11.2-5.3 2.9-11.3 4.4-18 4.4h-8.6c-2.8 0-5-.5-6.6-1.5-1.6-1-2.8-2.5-3.6-4.4-.8-1.9-1.3-4.2-1.5-7-.2-2.8-.3-6-.3-9.7 0-2.8.1-5.5.3-8.2.2-2.7.7-5.1 1.5-7.1s2-3.7 3.6-5.1c1.6-1.3 3.8-2 6.6-2h8.6c5.4 0 10.5-.4 15.3-1.2 4.8-.8 8.9-2.2 12.3-4.1 3.4-1.9 6.2-4.5 8.1-7.7 2-3.2 3-7.2 3-11.9 0-2.8-.5-7.1-1.5-13.1-1-5.9-2.3-12.8-4-20.5-1.6-7.8-3.3-16.1-5.2-25-1.8-8.9-3.6-17.7-5.2-26.4-1.6-8.6-2.9-16.8-4-24.6-1-7.8-1.5-14.4-1.5-20 0-3.8.7-7.7 2.2-11.6 1.5-4 3.3-7.6 5.6-10.9 2.3-3.3 4.7-6 7.4-8 2.6-2 5.1-3.1 7.3-3.1.1 0 .9.8 2.2 2.3s2.9 3.4 4.8 5.7c1.9 2.3 3.9 4.8 6 7.5s4.1 5.2 5.9 7.6c1.8 2.3 3.4 4.4 4.6 6 1.2 1.7 1.9 2.6 1.9 2.7 0 .3-.7 1-2.1 2.2-1.4 1.2-3 2.7-4.7 4.7s-3.3 4.4-4.7 7.1c-1.4 2.8-2.1 5.9-2.1 9.4 0 5.9.3 12.7.9 20.5.6 7.8 1.3 15.9 2.1 24.3.8 8.3 1.5 16.6 2.1 24.6.5 8 .8 15.1.8 21.3zM799.8 200.8c-.7 4-1.6 8.2-2.7 12.6s-2.3 8.7-3.7 12.9c-1.4 4.2-2.7 7.9-4.1 11.3-1.3 3.4-2.6 6.1-3.7 8.1-1.2 2-2.1 3.1-2.6 3.1-1.3 0-2.8-.4-4.5-1.1-1.7-.7-2.5-1.7-2.5-2.9 0-.4.2-1.2.5-2.3.4-1.1.7-2.7 1.1-4.9.4-2.2.7-5 1.1-8.3.4-3.4.5-7.5.5-12.3 0-4.2-.5-10.3-1.6-18-1.1-7.8-2.4-16.3-4-25.7-1.5-9.4-3.3-19.1-5.2-29.1-1.9-10-3.6-19.4-5.2-28-1.5-8.6-2.9-16.1-4-22.4-1.1-6.3-1.6-10.5-1.6-12.5 0-3.4.7-7.5 2.1-12.3 1.4-4.8 3.2-9.7 5.5-14.6s4.9-9.6 7.9-14 6.1-7.8 9.3-10.1c1.6 2.3 2.7 5.1 3.4 8.2.7 3.2 1 5.8 1 7.8v16.3l14.1 127.9c0 2.8-.3 6.3-1.1 10.3z"/>
</svg>
