<svg xmlns="http://www.w3.org/2000/svg" viewBox="0 0 1024 1024">
    <path d="M331.5 299.8c0 1.8-.1 3.9-.3 6.5-.2 2.6-.7 5.1-1.5 7.5-.8 2.4-2 4.5-3.6 6.2-1.6 1.7-3.8 2.5-6.6 2.5h-8.1c-6.7 0-12.6-.7-17.5-2s-9.2-3.6-12.9-6.8c-3.7-3.2-6.8-7.6-9.4-13.1s-4.9-12.5-6.8-21c-1.8 2.5-3.9 5.1-6.4 7.8-2.5 2.7-5.2 5.2-8.2 7.4-3 2.2-6.3 4-9.8 5.4-3.5 1.4-7.2 2.1-11 2.1-3.1 0-7-.3-11.8-.9-4.8-.6-9.3-1.6-13.7-3-4.4-1.4-8.2-3.2-11.4-5.5-3.2-2.3-4.8-5.1-4.8-8.5 0-1.8.5-4.3 1.4-7.7 1-3.4 2.2-7 3.8-10.9 1.6-3.9 3.4-7.8 5.5-11.8 2-4 4.2-7.5 6.4-10.8 1.9-2.8 4.9-6.1 8.9-10 4-3.9 8.4-7.7 13.1-11.5 4.7-3.8 9.3-7.2 13.8-10.2 4.5-3 8.1-5.1 10.8-6.3-.1-1.3-.3-2.5-.3-3.4-.1-1-.1-2.1-.1-3.4v-2.2c0-.4.1-1.2.2-2.2.3-3.2 1.2-6.5 2.9-9.8 1.6-3.3 3.5-6.3 5.6-9 2.1-2.7 4.2-4.9 6.3-6.6 2-1.7 3.7-2.5 4.8-2.5.1 0 .4 1.1.8 3.2s.8 4.9 1.4 8.2c.6 3.4 1.2 7.2 2 11.4.7 4.3 1.5 8.5 2.2 12.7 1 6.6 2.1 13.2 3.3 19.8 1.2 6.6 2.2 12.6 3.2 18.1 1 5.5 1.8 10.2 2.5 14.2s1.2 6.4 1.5 7.5c.6 2.5 1.2 4.7 2 6.6.7 1.9 1.9 3.6 3.4 5.1 1.5 1.5 3.7 2.6 6.6 3.3 2.9.7 6.8 1.1 11.8 1.1h8.1c2.8 0 5 .8 6.6 2.5 1.6 1.7 2.8 3.7 3.6 6.2.8 2.4 1.3 4.9 1.5 7.4.1 2.6.2 4.7.2 6.4zM276.3 92.9c.9 0 2.9 1 5.9 3.1 3.1 2.1 6.3 4.4 9.7 6.9 3.4 2.6 6.4 5.1 9 7.5s4 3.9 4 4.5c0 .6-.4 1.8-1.3 3.5s-2 3.8-3.4 6.2c-1.4 2.3-2.9 4.8-4.6 7.4-1.7 2.6-3.3 4.9-4.8 7-1.5 2.1-2.9 3.9-4.2 5.3-1.2 1.4-2.1 2.1-2.5 2.1-.6 0-2.3-1-5.2-3.1-2.9-2-6-4.3-9.3-6.8l-13.2-10.1c-.9-.9-1.8-1.3-2.9-1.3-.4 0-1 .7-1.8 2-3.4 4.7-6.4 8.9-9 12.7-2.3 3.2-4.6 6.1-6.8 8.7-2.2 2.6-3.7 3.8-4.4 3.8-.3 0-1.2-.5-2.7-1.4-1.5-1-3.4-2.2-5.6-3.7s-4.5-3.2-6.8-4.9c-2.3-1.8-4.5-3.4-6.6-5.1-2.1-1.6-3.7-3-5.1-4.3-1.3-1.2-2-2.1-2-2.5 0-.6.5-1.8 1.4-3.5 1-1.8 2.2-3.8 3.6-6.3 1.5-2.4 3-4.9 4.7-7.6 1.7-2.6 3.3-5 4.9-7.1 1.6-2.1 3-3.9 4.2-5.4 1.2-1.5 1.9-2.2 2.2-2.2 1 0 3 1.1 5.9 3.2 2.9 2.1 6 4.4 9.2 6.9 3.8 2.9 7.8 6.2 12.1 9.9.9 1 1.7 1.5 2.4 1.5.4 0 .8-.1 1.2-.4.4-.3.9-1 1.6-2 3.4-4.4 6.4-8.4 9.2-12.1 2.3-3.1 4.6-5.9 6.7-8.5 2.4-2.6 3.8-3.9 4.3-3.9zm-16 163.2c-.7-3.4-1.5-7.9-2.4-13.6s-1.8-11.2-2.9-16.5c-5.6 2.3-10.6 5.1-15.1 8.2-4.5 3.2-8.2 6.2-11.3 9.2-3.1 3-5.5 5.6-7.1 7.9-1.7 2.3-2.5 3.6-2.5 4.1s.9.9 2.7 1.4c1.8.5 4.1 1 6.9 1.4 2.8.4 5.8.8 9.1 1s6.4.3 9.3.3c3.7 0 6.4-.3 8.1-.9 1.9-.4 3.6-1.3 5.2-2.5z"/>
    <path d="M425.8 299.6c0 7.2-.7 12.8-2 16.8s-4.7 6-10.1 6h-8.6c-4.1 0-7.5-.5-10.2-1.5-2.7-1-5.5-2.8-8.5-5.3-2.5-2-4.8-4.8-7-8.1-2.2-3.4-4-7.2-5.5-11.4-2.6 3.5-5.5 6.8-8.5 10s-6.6 5.9-10.7 8.3c-4.1 2.4-8.8 4.4-14.1 5.8-5.3 1.5-11.4 2.2-18.5 2.2H314c-2.8 0-5-.5-6.6-1.4-1.6-1-2.8-2.4-3.6-4.4-.8-2-1.3-4.4-1.5-7.1-.2-2.8-.3-6.1-.3-9.9 0-3.5.1-6.6.3-9.3.2-2.7.7-5 1.5-6.9.8-1.9 2-3.4 3.6-4.4 1.6-1 3.8-1.5 6.6-1.5h8.1c7.6 0 14.2-.7 19.9-2.1 5.6-1.4 10.4-3.2 14.4-5.4s7.2-4.5 9.8-6.9c2.6-2.4 4.8-4.7 6.6-6.9 1.8-2.2 3.3-4 4.5-5.4 1.2-1.4 2.3-2.1 3.5-2.1.9 0 1.8.7 2.9 2 1 1.3 2.1 4.7 3.3 10.1.4 1.9 1 3.8 1.6 5.8s1.7 3.8 3.1 5.4c1.4 1.6 3.1 2.9 5.3 4 2.1 1 4.8 1.5 8 1.5h8.6c5.4 0 8.8 1.9 10.1 5.7 1.4 3.8 2.1 9.3 2.1 16.4zm-84.2-71.4c-.9 0-2.9-1-5.9-3.1-3.1-2-6.3-4.4-9.7-7-3.4-2.6-6.4-5.1-9-7.5-2.6-2.3-4-3.8-4-4.4 0-.9 1-3 2.9-6.4 1.9-3.4 4.1-6.9 6.5-10.7s4.8-7.1 7-10.1c2.3-3 3.8-4.5 4.5-4.5.4 0 2.1 1.1 5.1 3.2 2.9 2.1 6.1 4.4 9.4 6.9l13.2 10.1c1 .7 2 1.1 2.9 1.1.4 0 1-.6 1.8-1.8 3.4-4.5 6.4-8.7 9-12.5 2.3-3.2 4.6-6.2 6.8-8.8s3.7-4 4.4-4c.3 0 1.2.5 2.7 1.4 1.5 1 3.4 2.2 5.6 3.7s4.5 3.2 6.8 4.9c2.3 1.8 4.5 3.4 6.6 5.1 2 1.6 3.7 3 5.1 4.3 1.3 1.2 2 2.1 2 2.5 0 .6-.5 1.8-1.4 3.5-1 1.8-2.2 3.8-3.6 6.3-1.5 2.4-3 4.9-4.7 7.6-1.7 2.6-3.3 5-4.9 7.1-1.6 2.1-3 3.9-4.2 5.4-1.2 1.5-1.9 2.2-2.2 2.2-1.2 0-3.2-1-6-3.1-2.9-2-5.9-4.3-9.1-6.8-3.8-2.9-7.8-6.3-12.1-10.1-.9-1-1.7-1.5-2.4-1.5-.9 0-1.8.7-2.9 2.2l-9.2 12.3c-2.5 3.1-4.8 5.9-6.8 8.5-2.3 2.7-3.6 4-4.2 4zm-9.4-79.7c0-.9 1-3 2.9-6.5 1.9-3.4 4.1-7.1 6.6-10.9 2.5-3.8 4.9-7.2 7.4-10.2 2.4-3 4.1-4.5 4.9-4.5.3 0 1.2.5 2.9 1.4 1.6 1 3.5 2.2 5.6 3.6 2.1 1.5 4.4 3.1 6.8 4.9 2.4 1.8 4.6 3.6 6.7 5.2 2 1.6 3.7 3.1 5.1 4.4s2 2.2 2 2.6c0 .6-.5 1.8-1.4 3.5-1 1.8-2.1 3.8-3.5 6.3-1.4 2.4-3 4.9-4.7 7.6s-3.4 5-5.1 7.1c-1.6 2.1-3 3.9-4.3 5.4-1.2 1.5-2.1 2.2-2.5 2.2-.9 0-2.9-1-6-3.1-3.2-2-6.4-4.4-9.9-7-3.4-2.6-6.5-5.1-9.2-7.5-3-2.3-4.3-3.8-4.3-4.5z"/>
    <path d="M474.1 235.5c0 1.9-.1 4.3-.3 7.3-.2 2.9-.6 6.2-1.2 9.7-.6 3.5-1.4 7.3-2.4 11.2-1 4-2.3 7.9-3.7 11.9-2.1 5.3-4.5 10.7-7.5 16.3-2.9 5.6-6.4 10.6-10.4 15.2-4 4.5-8.7 8.3-14 11.2-5.3 2.9-11.3 4.4-18 4.4H408c-2.8 0-5-.5-6.6-1.5-1.6-1-2.8-2.5-3.6-4.4-.8-1.9-1.3-4.2-1.5-7-.2-2.8-.3-6-.3-9.7 0-2.8.1-5.5.3-8.2.2-2.7.7-5.1 1.5-7.1s2-3.7 3.6-5.1c1.6-1.3 3.8-2 6.6-2h8.6c5.4 0 10.5-.4 15.3-1.2 4.8-.8 8.9-2.2 12.3-4.1 3.4-1.9 6.2-4.5 8.1-7.7 2-3.2 3-7.2 3-11.9 0-2.8-.5-7.1-1.5-13.1-1-5.9-2.3-12.8-4-20.5-1.6-7.8-3.3-16.1-5.2-25-1.8-8.9-3.6-17.7-5.2-26.4-1.6-8.6-2.9-16.8-4-24.6-1-7.8-1.5-14.4-1.5-20 0-3.8.7-7.7 2.2-11.6 1.5-4 3.3-7.6 5.6-10.9 2.3-3.3 4.7-6 7.4-8 2.6-2 5.1-3.1 7.3-3.1.1 0 .9.8 2.2 2.3s2.9 3.4 4.8 5.7c1.9 2.3 3.9 4.8 6 7.5s4.1 5.2 5.9 7.6c1.8 2.3 3.4 4.4 4.6 6 1.2 1.7 1.9 2.6 1.9 2.7 0 .3-.7 1-2.1 2.2-1.4 1.2-3 2.7-4.7 4.7s-3.3 4.4-4.7 7.1c-1.4 2.8-2.1 5.9-2.1 9.4 0 5.9.3 12.7.9 20.5.6 7.8 1.3 15.9 2.1 24.3.8 8.3 1.5 16.6 2.1 24.6.5 8 .8 15.1.8 21.3zM582.4 322.5c-13 0-23.6-3.4-31.8-10.1-8.1-6.7-13.5-17.9-16.1-33.6-1.8-10.5-3.5-23.3-5.2-38.3-1.7-15-3.6-31.6-5.6-49.8-.7-6.6-1.4-12.2-2.1-16.8s-1.2-8.7-1.6-12.2-.8-6.6-1.1-9.2c-.3-2.6-.4-5.2-.4-7.7 0-2.2 1.1-5.5 3.3-9.9s4.7-8.8 7.5-13.3 5.4-8.4 7.9-11.8c2.5-3.4 4-5.1 4.6-5.1 1.3 0 2.7 1 4.3 2.9 1.5 1.9 2.4 4.3 2.5 7.3 1 20.8 1.9 38.9 2.5 54.4.7 15.5 1.2 28.9 1.8 40.4.5 11.5 1 21.3 1.5 29.4.5 8.1 1.1 15.2 1.9 21.2.4 3.4 1.4 6.2 3 8.3s3.4 4 5.7 5.3c2.3 1.3 4.9 2.2 7.9 2.7s6.2.8 9.6.8h7.7c3.4 0 6 1.4 8 4.3s3 8.5 3 16.8c0 8.9-1.1 15.2-3.3 18.7s-4.8 5.3-7.7 5.3h-7.8z"/>
    <path d="M695.4 299.6c0 7.2-.7 12.8-2 16.8s-4.7 6-10.1 6h-8.6c-4.1 0-7.5-.5-10.2-1.5-2.7-1-5.5-2.8-8.5-5.3-2.5-2-4.8-4.8-7-8.1-2.2-3.4-4-7.2-5.5-11.4-2.6 3.5-5.5 6.8-8.5 10s-6.6 5.9-10.7 8.3c-4.1 2.4-8.8 4.4-14.1 5.8-5.3 1.5-11.4 2.2-18.5 2.2h-8.1c-2.8 0-5-.5-6.6-1.4-1.6-1-2.8-2.4-3.6-4.4-.8-2-1.3-4.4-1.5-7.1-.2-2.8-.3-6.1-.3-9.9 0-3.5.1-6.6.3-9.3.2-2.7.7-5 1.5-6.9.8-1.9 2-3.4 3.6-4.4 1.6-1 3.8-1.5 6.6-1.5h8.1c7.6 0 14.2-.7 19.9-2.1 5.6-1.4 10.4-3.2 14.4-5.4s7.2-4.5 9.8-6.9c2.6-2.4 4.8-4.7 6.6-6.9 1.8-2.2 3.3-4 4.5-5.4 1.2-1.4 2.3-2.1 3.5-2.1.9 0 1.8.7 2.9 2 1 1.3 2.1 4.7 3.3 10.1.4 1.9 1 3.8 1.6 5.8s1.7 3.8 3.1 5.4c1.4 1.6 3.1 2.9 5.3 4 2.1 1 4.8 1.5 8 1.5h8.6c5.4 0 8.8 1.9 10.1 5.7 1.4 3.8 2.1 9.3 2.1 16.4zm-84.2-71.4c-.9 0-2.9-1-5.9-3.1-3.1-2-6.3-4.4-9.7-7-3.4-2.6-6.4-5.1-9-7.5-2.6-2.3-4-3.8-4-4.4 0-.9 1-3 2.9-6.4 1.9-3.4 4.1-6.9 6.5-10.7s4.8-7.1 7-10.1c2.3-3 3.8-4.5 4.5-4.5.4 0 2.1 1.1 5.1 3.2 2.9 2.1 6.1 4.4 9.4 6.9l13.2 10.1c1 .7 2 1.1 2.9 1.1.4 0 1-.6 1.8-1.8 3.4-4.5 6.4-8.7 9-12.5 2.3-3.2 4.6-6.2 6.8-8.8s3.7-4 4.4-4c.3 0 1.2.5 2.7 1.4 1.5 1 3.4 2.2 5.6 3.7s4.5 3.2 6.8 4.9c2.3 1.8 4.5 3.4 6.6 5.1 2 1.6 3.7 3 5.1 4.3 1.3 1.2 2 2.1 2 2.5 0 .6-.5 1.8-1.4 3.5-1 1.8-2.2 3.8-3.6 6.3-1.5 2.4-3 4.9-4.7 7.6-1.7 2.6-3.3 5-4.9 7.1-1.6 2.1-3 3.9-4.2 5.4-1.2 1.5-1.9 2.2-2.2 2.2-1.2 0-3.2-1-6-3.1-2.9-2-5.9-4.3-9.1-6.8-3.8-2.9-7.8-6.3-12.1-10.1-.9-1-1.7-1.5-2.4-1.5-.9 0-1.8.7-2.9 2.2l-9.2 12.3c-2.5 3.1-4.8 5.9-6.8 8.5-2.3 2.7-3.6 4-4.2 4zm-9.4-79.7c0-.9 1-3 2.9-6.5 1.9-3.4 4.1-7.1 6.6-10.9 2.5-3.8 4.9-7.2 7.4-10.2 2.4-3 4.1-4.5 4.9-4.5.3 0 1.2.5 2.9 1.4 1.6 1 3.5 2.2 5.6 3.6 2.1 1.5 4.4 3.1 6.8 4.9 2.4 1.8 4.6 3.6 6.7 5.2 2 1.6 3.7 3.1 5.1 4.4s2 2.2 2 2.6c0 .6-.5 1.8-1.4 3.5-1 1.8-2.1 3.8-3.5 6.3-1.4 2.4-3 4.9-4.7 7.6s-3.4 5-5.1 7.1c-1.6 2.1-3 3.9-4.3 5.4-1.2 1.5-2.1 2.2-2.5 2.2-.9 0-2.9-1-6-3.1-3.2-2-6.4-4.4-9.9-7-3.4-2.6-6.5-5.1-9.2-7.5-3-2.3-4.3-3.8-4.3-4.5z"/>
    <path d="M743.7 235.5c0 1.9-.1 4.3-.3 7.3-.2 2.9-.6 6.2-1.2 9.7-.6 3.5-1.4 7.3-2.4 11.2-1 4-2.3 7.9-3.7 11.9-2.1 5.3-4.5 10.7-7.5 16.3-2.9 5.6-6.4 10.6-10.4 15.2-4 4.5-8.7 8.3-14 11.2-5.3 2.9-11.3 4.4-18 4.4h-8.6c-2.8 0-5-.5-6.6-1.5-1.6-1-2.8-2.5-3.6-4.4-.8-1.9-1.3-4.2-1.5-7-.2-2.8-.3-6-.3-9.7 0-2.8.1-5.5.3-8.2.2-2.7.7-5.1 1.5-7.1s2-3.7 3.6-5.1c1.6-1.3 3.8-2 6.6-2h8.6c5.4 0 10.5-.4 15.3-1.2 4.8-.8 8.9-2.2 12.3-4.1 3.4-1.9 6.2-4.5 8.1-7.7 2-3.2 3-7.2 3-11.9 0-2.8-.5-7.1-1.5-13.1-1-5.9-2.3-12.8-4-20.5-1.6-7.8-3.3-16.1-5.2-25-1.8-8.9-3.6-17.7-5.2-26.4-1.6-8.6-2.9-16.8-4-24.6-1-7.8-1.5-14.4-1.5-20 0-3.8.7-7.7 2.2-11.6 1.5-4 3.3-7.6 5.6-10.9 2.3-3.3 4.7-6 7.4-8 2.6-2 5.1-3.1 7.3-3.1.1 0 .9.8 2.2 2.3s2.9 3.4 4.8 5.7c1.9 2.3 3.9 4.8 6 7.5s4.1 5.2 5.9 7.6c1.8 2.3 3.4 4.4 4.6 6 1.2 1.7 1.9 2.6 1.9 2.7 0 .3-.7 1-2.1 2.2-1.4 1.2-3 2.7-4.7 4.7s-3.3 4.4-4.7 7.1c-1.4 2.8-2.1 5.9-2.1 9.4 0 5.9.3 12.7.9 20.5.6 7.8 1.3 15.9 2.1 24.3.8 8.3 1.5 16.6 2.1 24.6.5 8 .8 15.1.8 21.3zM830.3 275.8c-.7 4-1.6 8.2-2.7 12.6s-2.3 8.7-3.7 12.9c-1.4 4.2-2.7 7.9-4.1 11.3-1.3 3.4-2.6 6.1-3.7 8.1-1.2 2-2.1 3.1-2.6 3.1-1.3 0-2.8-.4-4.5-1.1-1.7-.7-2.5-1.7-2.5-2.9 0-.4.2-1.2.5-2.3.4-1.1.7-2.7 1.1-4.9.4-2.2.7-5 1.1-8.3.4-3.4.5-7.5.5-12.3 0-4.2-.5-10.3-1.6-18-1.1-7.8-2.4-16.3-4-25.7-1.5-9.4-3.3-19.1-5.2-29.1-1.9-10-3.6-19.4-5.2-28-1.5-8.6-2.9-16.1-4-22.4-1.1-6.3-1.6-10.5-1.6-12.5 0-3.4.7-7.5 2.1-12.3 1.4-4.8 3.2-9.7 5.5-14.6s4.9-9.6 7.9-14 6.1-7.8 9.3-10.1c1.6 2.3 2.7 5.1 3.4 8.2.7 3.2 1 5.8 1 7.8v16.3l14.1 127.9c0 2.8-.4 6.3-1.1 10.3z"/>
</svg>
