<svg xmlns="http://www.w3.org/2000/svg" viewBox="0 0 1024 1024">
    <path d="M116.3 62.6c.9 0 2.9 1 5.9 3.1 3.1 2.1 6.3 4.4 9.7 6.9 3.4 2.6 6.4 5.1 9 7.5s4 3.9 4 4.5c0 .6-.4 1.8-1.3 3.5s-2 3.8-3.4 6.2c-1.4 2.3-2.9 4.8-4.6 7.4-1.7 2.6-3.3 4.9-4.8 7-1.5 2.1-2.9 3.9-4.2 5.3-1.2 1.4-2.1 2.1-2.5 2.1-.6 0-2.3-1-5.2-3.1-2.9-2-6-4.3-9.3-6.8L96.3 96c-.9-.9-1.8-1.3-2.9-1.3-.4 0-1 .7-1.8 2-3.4 4.7-6.4 8.9-9 12.7-2.3 3.2-4.6 6.1-6.8 8.7-2.2 2.6-3.7 3.8-4.4 3.8-.3 0-1.2-.5-2.7-1.4-1.5-1-3.4-2.2-5.6-3.7s-4.5-3.2-6.8-4.9c-2.3-1.8-4.5-3.4-6.6-5.1-2.1-1.6-3.7-3-5.1-4.3-1.3-1.2-2-2.1-2-2.5 0-.6.5-1.8 1.4-3.5 1-1.8 2.2-3.8 3.6-6.3 1.5-2.4 3-4.9 4.7-7.6 1.7-2.6 3.3-5 4.9-7.1 1.6-2.1 3-3.9 4.2-5.4 1.2-1.5 1.9-2.2 2.2-2.2 1 0 3 1.1 5.9 3.2 2.9 2.1 6 4.4 9.2 6.9 3.8 2.9 7.8 6.2 12.1 9.9.9 1 1.7 1.5 2.4 1.5.4 0 .8-.1 1.2-.4.4-.3.9-1 1.6-2 3.4-4.4 6.4-8.4 9.2-12.1 2.3-3.1 4.6-5.9 6.7-8.5 2.4-2.5 3.8-3.8 4.4-3.8zm26.3 145.3c0 9.4-1.2 18.1-3.7 26.3-2.5 8.1-6 15.2-10.7 21.2-4.6 6-10.3 10.7-17 14.2-6.7 3.4-14.4 5.2-22.9 5.2-5.3 0-10.4-1.2-15.4-3.7s-9.4-6-13.3-10.4c-3.9-4.5-7-9.7-9.2-15.7-2.3-6-3.4-12.5-3.4-19.6 0-3.5.3-6.9 1-10.1.7-3.2 1.6-6.6 3-10 1.3-3.4 2.9-7.1 4.8-11 1.9-3.9 4-8.2 6.4-12.9 1.6-3.1 3.6-6.8 6-11.3 2.4-4.5 4.9-8.7 7.6-12.7 2.6-4 5.3-7.5 7.9-10.3s5-4.3 7-4.3c5.3 0 10.9 1.9 17 5.8s11.7 9 16.8 15.3c5.1 6.3 9.4 13.3 12.9 21.1 3.5 7.6 5.2 15.3 5.2 22.9zm-17.3 5.7c0-1.3-1.6-3.1-4.8-5.4-3.2-2.3-7.1-4.6-11.5-6.9-4.5-2.3-9.1-4.4-14-6-4.8-1.7-8.8-2.5-11.9-2.5-2.1 0-4 .9-5.9 2.7-1.9 1.8-3.6 4-5.1 6.5-1.5 2.5-2.6 5-3.5 7.6-.9 2.6-1.3 4.7-1.3 6.3 0 1.9.8 3.7 2.5 5.3 1.7 1.6 3.8 3 6.3 4.1 2.5 1.1 5.1 1.9 7.8 2.5 2.7.6 5.2.9 7.4.9 2.8 0 6.1-.3 10-1 3.9-.7 7.6-1.6 11.2-3 3.6-1.3 6.6-2.9 9.1-4.7 2.4-2 3.7-4.1 3.7-6.4zM357.5 249.8c0 1.8-.1 3.9-.3 6.5-.2 2.6-.7 5.1-1.5 7.5-.8 2.4-2 4.5-3.6 6.2-1.6 1.7-3.8 2.5-6.6 2.5h-8.1c-6.4 0-12.2-1.5-17.2-4.4-5.1-2.9-9.6-7-13.5-12.1-4-5.1-7.4-11.2-10.4-18.1-3-7-5.7-14.5-8-22.7-1.5 6.2-4.2 12.5-8.1 19.1s-8.3 12.2-13 16.9c-6.2 5.9-14.1 10.5-24 14-9.8 3.4-21.4 5.2-34.7 5.2-5.3 0-10.2-.6-14.8-1.8-4.6-1.2-8.6-2.8-12.1-4.9-3.4-2.1-6.1-4.7-8-7.8-1.9-3.1-2.9-6.5-2.9-10.3 0-.7.3-2.3 1-4.6s1.5-5.2 2.4-8.5c1-3.3 2.1-6.7 3.4-10.3 1.3-3.6 2.6-6.9 3.8-9.9 1.2-3 2.5-5.5 3.6-7.5 1.2-2 2.2-3 3.1-3 1.2 0 2.2 1 3.1 3s1.8 3.7 2.6 5.2c.7 1.2 1.6 2.7 2.6 4.6 1 1.9 2.5 3.7 4.5 5.5s4.6 3.3 8 4.6c3.4 1.3 7.8 2 13.4 2 7.6 0 14.9-.6 21.8-1.9 6.9-1.2 13-3.3 18.2-6.3 5.3-2.9 9.5-6.8 12.6-11.6 3.1-4.8 4.7-10.8 4.7-18-.7-6.9-1.8-13.2-3.1-18.9s-2.6-10.8-4-15.3c-1.3-4.5-2.5-8.3-3.5-11.6-1-3.3-1.5-5.9-1.5-7.8 0-1.3.9-4 2.6-8 1.8-4 3.7-8.2 5.9-12.5 2.2-4.3 4.3-8.2 6.3-11.5 2-3.4 3.1-5.1 3.4-5.1.7 0 1.9.4 3.4 1.1 1.5.7 2.5 2.3 2.7 4.8 1.6 10.8 3.3 22 4.9 33.6 1.7 11.6 3.4 22.5 5.3 32.8 1.8 10.3 3.7 19.5 5.7 27.5s4.1 13.8 6.3 17.5c2.5 4.1 5.9 7.1 10.1 9.1 4.2 2 8.6 3 13.2 3h8.1c2.8 0 5 .8 6.6 2.5 1.6 1.7 2.8 3.7 3.6 6.2.8 2.4 1.3 4.9 1.5 7.4.4 2.3.5 4.4.5 6.1z"/>
    <path d="M598.1 249.8c0 1.8-.1 3.9-.3 6.5-.2 2.6-.7 5.1-1.5 7.5-.8 2.4-2 4.5-3.6 6.2-1.6 1.7-3.8 2.5-6.6 2.5H578c-17.1 0-32.3-.8-45.4-2.4-13.1-1.6-23-4.7-29.6-9.2-8.6-5.9-13-14.9-13-27.2 0-1.5.1-3.2.4-5.3.3-2 .7-4.2 1.3-6.5.6-2.3 1.2-4.5 1.9-6.8s1.4-4.3 2.1-6h-4c-6.9 0-13.4 1.1-19.4 3.4-6.1 2.3-12.1 5.2-17.9 8.8-5.9 3.6-11.6 7.6-17.4 12.1-5.7 4.5-11.6 8.9-17.6 13.3-4.8 3.5-9.9 6.8-15.2 9.9s-10.9 5.8-16.8 8.2-12.2 4.3-18.7 5.7c-6.5 1.4-13.4 2.1-20.5 2.1h-8.1c-2.8 0-5-.8-6.6-2.5-1.6-1.7-2.8-3.7-3.6-6.2-.8-2.4-1.3-4.9-1.5-7.5-.2-2.6-.3-4.7-.3-6.5s.1-3.9.3-6.4c.2-2.5.7-4.9 1.5-7.4.8-2.4 2-4.5 3.6-6.2 1.6-1.7 3.8-2.5 6.6-2.5h8.1c14.6 0 27.4-.8 38.1-2.3s20.5-4.1 29.1-7.6c2.6-1 5.5-2.3 8.5-3.8s6.1-3.1 9.2-4.6c3.1-1.5 6.3-2.9 9.4-4.2 3.1-1.2 6.1-2.2 8.9-2.7-3.1-1.2-7.1-2.9-12-5.3-4.9-2.3-10.3-4.6-16.1-6.9-5.9-2.3-12-4.2-18.3-5.9-6.4-1.7-12.5-2.5-18.3-2.5-3.1 0-6.1.5-9.1 1.4-3 1-5.7 2.1-8.1 3.3-2.4 1.2-4.5 2.3-6.2 3.3-1.7 1-2.6 1.4-2.7 1.4-.3 0-.8-.1-1.6-.4-.8-.3-1.6-.6-2.3-1-.7-.4-1.4-.7-2-1.1-.6-.4-.9-.7-.9-1 0-2.9.5-6.2 1.5-9.8 1-3.6 2.5-7.2 4.3-10.9 1.8-3.7 4.1-7.1 6.7-10.4s5.6-6 8.8-8.2c3.7-2.5 7.7-4.6 12.1-6.4s10.1-2.6 17.1-2.6c4.5 0 9.9 1.1 15.9 3.3 6.1 2.2 12.3 4.8 18.8 7.7 6.4 2.9 12.9 5.8 19.3 8.7 6.4 2.9 12.2 4.9 17.4 6 11.9 2.8 25.9 5.1 42.2 6.8 16.3 1.8 33.1 2.6 50.5 2.6.7 0 1.3.3 1.6 1 .4.7.5 1.4.5 2.1 0 .3-.2 1.8-.7 4.5-.4 2.7-1 5.7-1.5 9-.6 3.3-1.2 6.5-1.8 9.6-.6 3.1-1 5.1-1.3 5.9-.1.4-2.1.9-5.8 1.3s-8.3.8-13.6 1c-5.3.2-11.1.4-17.2.5-6.2.1-11.8.2-16.9.2-.1.3-.2.7-.2 1.3v1.5c0 2.1.8 3.9 2.4 5.5 1.6 1.6 3.7 3 6.2 4.2 3.2 1.3 7.3 2.4 12.3 3.2 5 .8 10.2 1.4 15.6 1.6 5.4.3 10.8.5 16 .5 5.3.1 9.9.1 13.8.1h8.1c2.8 0 5 .8 6.6 2.5 1.6 1.7 2.8 3.7 3.6 6.2.8 2.4 1.3 4.9 1.5 7.4.4 2.6.5 4.7.5 6.4zm-109.4 62.7c0 .6-.5 1.8-1.4 3.6-1 1.8-2.2 4-3.6 6.5-1.5 2.5-3.1 5.1-4.9 7.9-1.8 2.8-3.6 5.3-5.3 7.6-1.7 2.3-3.3 4.2-4.7 5.7-1.5 1.5-2.5 2.3-3.1 2.3-.4 0-2.3-1.1-5.6-3.2s-6.8-4.5-10.4-7.3c-3.7-2.7-7-5.3-10-7.9-3-2.6-4.5-4.2-4.5-4.9 0-.6.5-1.8 1.4-3.7 1-1.9 2.2-4.1 3.7-6.6s3.2-5.1 5.1-7.9c1.8-2.8 3.6-5.3 5.3-7.6 1.7-2.3 3.2-4.2 4.5-5.7s2.3-2.3 2.9-2.3c.9 0 3 1.1 6.3 3.3s6.8 4.6 10.4 7.4c3.7 2.7 6.9 5.3 9.8 7.9 2.7 2.5 4.1 4.1 4.1 4.9z"/>
    <path d="M839.4 252v6.2c0 2.3-.3 4.6-.9 6.7-.6 2.1-1.5 3.9-2.9 5.4-1.3 1.5-3.4 2.2-6.2 2.2h-8.1c-11.3 0-20.5-3.4-27.7-10.2-7.2-6.8-12.9-16.4-17.1-28.9-4 10.5-8.5 18.8-13.5 24.7s-11.8 8.9-20.1 8.9c-7.9 0-14-2.1-18.1-6.3s-7.1-10-8.9-17.5c-5.6 10-11.8 17.2-18.6 21.9s-15.6 6.9-26.5 6.9c-3.5 0-6.9-.4-10.2-1.3s-6.5-2.3-9.6-4.4c-3.1-2-5.9-4.8-8.5-8.2-2.6-3.4-4.8-7.7-6.7-12.9-2.8 5.3-6.1 9.6-9.9 13.1-3.8 3.4-7.8 6.2-12.1 8.3-4.3 2.1-8.5 3.6-12.9 4.5-4.3.9-8.4 1.3-12.2 1.3h-8.1c-2.8 0-5-.7-6.6-2.2-1.6-1.5-2.8-3.3-3.6-5.4-.8-2.1-1.3-4.4-1.5-6.7-.2-2.3-.3-4.4-.3-6.2s.1-4 .3-6.8c.2-2.8.7-5.5 1.5-8.1.8-2.6 2-4.9 3.6-6.8 1.6-1.9 3.8-2.9 6.6-2.9h8.1c7.8 0 14.4-.9 20-2.6 5.6-1.8 10.3-4 14.1-6.6 3.8-2.6 6.9-5.5 9.3-8.7 2.4-3.1 4.4-6 6-8.7 1.6-2.6 2.9-4.8 3.8-6.6 1-1.8 1.9-2.6 2.7-2.6 1.8 0 3 .9 3.8 2.6.8 1.8 1.5 3.9 2.1 6.5.6 2.6 1.3 5.3 2.1 8.3.8 3 2.1 5.8 4 8.3 1.8 2.6 4.4 4.7 7.7 6.5s7.7 2.6 13.3 2.6c6 0 11.3-1 15.9-3s8.6-4.4 12.1-7.4c3.4-2.9 6.4-6.1 8.8-9.4 2.4-3.4 4.5-6.5 6.2-9.4 1.7-2.9 3-5.4 4.1-7.4 1-2 1.9-3 2.6-3 2.5 0 4.1.4 4.9 1.3.8.9 1.3 2.4 1.4 4.6 0 1.2.1 3.1.4 5.8.3 2.7 1 5.5 2.1 8.3s2.7 5.4 4.8 7.6c2.1 2.2 5.2 3.3 9.1 3.3 5.3 0 9.7-1.6 13.2-4.9s6.4-7 8.6-11c2.2-4 3.9-7.7 5.2-11 1.2-3.3 2.3-4.9 3.2-4.9 4.1 0 6.2 1.7 6.2 5.1 0 2.5.7 5.8 2.2 9.9 1.5 4.1 3.6 8.1 6.5 12 2.9 3.9 6.4 7.3 10.8 10.1 4.3 2.9 9.4 4.3 15.3 4.3h8.1c2.8 0 4.8 1 6.2 2.9 1.3 1.9 2.3 4.2 2.9 6.8.6 2.6.9 5.3.9 8.1.1 3 .1 5.3.1 7z"/>
    <path d="M888.4 185.5c0 1.9-.1 4.3-.3 7.3-.2 2.9-.6 6.2-1.2 9.7-.6 3.5-1.4 7.3-2.4 11.2-1 4-2.3 7.9-3.7 11.9-2.1 5.3-4.5 10.7-7.5 16.3-2.9 5.6-6.4 10.6-10.4 15.2-4 4.5-8.7 8.3-14 11.2-5.3 2.9-11.3 4.4-18 4.4h-8.6c-2.8 0-5-.5-6.6-1.5-1.6-1-2.8-2.5-3.6-4.4-.8-1.9-1.3-4.2-1.5-7-.2-2.8-.3-6-.3-9.7 0-2.8.1-5.5.3-8.2.2-2.7.7-5.1 1.5-7.1s2-3.7 3.6-5.1c1.6-1.3 3.8-2 6.6-2h8.6c5.4 0 10.5-.4 15.3-1.2 4.8-.8 8.9-2.2 12.3-4.1 3.4-1.9 6.2-4.5 8.1-7.7 2-3.2 3-7.2 3-11.9 0-2.8-.5-7.1-1.5-13.1-1-5.9-2.3-12.8-4-20.5-1.6-7.8-3.3-16.1-5.2-25-1.8-8.9-3.6-17.7-5.2-26.4-1.6-8.6-2.9-16.8-4-24.6-1-7.8-1.5-14.4-1.5-20 0-3.8.7-7.7 2.2-11.6 1.5-4 3.3-7.6 5.6-10.9 2.3-3.3 4.7-6 7.4-8 2.6-2 5.1-3.1 7.3-3.1.1 0 .9.8 2.2 2.3s2.9 3.4 4.8 5.7c1.9 2.3 3.9 4.8 6 7.5s4.1 5.2 5.9 7.6c1.8 2.3 3.4 4.4 4.6 6 1.2 1.7 1.9 2.6 1.9 2.7 0 .3-.7 1-2.1 2.2-1.4 1.2-3 2.7-4.7 4.7s-3.3 4.4-4.7 7.1c-1.4 2.8-2.1 5.9-2.1 9.4 0 5.9.3 12.7.9 20.5.6 7.8 1.3 15.9 2.1 24.3.8 8.3 1.5 16.6 2.1 24.6.5 8 .8 15.1.8 21.3zM975 225.8c-.7 4-1.6 8.2-2.7 12.6s-2.3 8.7-3.7 12.9c-1.4 4.2-2.7 7.9-4.1 11.3-1.3 3.4-2.6 6.1-3.7 8.1-1.2 2-2.1 3.1-2.6 3.1-1.3 0-2.8-.4-4.5-1.1-1.7-.7-2.5-1.7-2.5-2.9 0-.4.2-1.2.5-2.3.4-1.1.7-2.7 1.1-4.9.4-2.2.7-5 1.1-8.3.4-3.4.5-7.5.5-12.3 0-4.2-.5-10.3-1.6-18-1.1-7.8-2.4-16.3-4-25.7-1.5-9.4-3.3-19.1-5.2-29.1-1.9-10-3.6-19.4-5.2-28-1.5-8.6-2.9-16.1-4-22.4-1.1-6.3-1.6-10.5-1.6-12.5 0-3.4.7-7.5 2.1-12.3 1.4-4.8 3.2-9.7 5.5-14.6s4.9-9.6 7.9-14 6.1-7.8 9.3-10.1c1.6 2.3 2.7 5.1 3.4 8.2.7 3.2 1 5.8 1 7.8v16.3l14.1 127.9c0 2.8-.4 6.3-1.1 10.3z"/>
</svg>
