<svg xmlns="http://www.w3.org/2000/svg" viewBox="0 0 1024 1024">
    <path d="M587 198.5c-22.3 78.7-44.2 141.7-65.5 189-21.3 47.3-46.8 83.3-76.5 108-29.7 24.7-65.8 37-108.5 37-51 0-91.6-16.8-121.8-50.3s-53.8-79.4-70.8-137.8l37.5-17c22.7 42.7 46 72.3 70 88.8s52.3 24.8 85 24.8c42.7 0 78.8-17.8 108.3-53.5s63.6-103 102.3-202l40 13zM391 324c0 16.7-5.3 29.9-16 39.8-10.7 9.8-23.5 14.8-38.5 14.8-15.7 0-29-5-40-15S280 340.3 280 324c0-16.7 5.4-30 16.3-40 10.8-10 24.3-15 40.3-15 15.3 0 28.3 5.1 38.8 15.3 10.3 10.1 15.6 23.4 15.6 39.7zM865.2 863.4c-64.9 3.3-103.2-4-156.5-26.3-54.4-22.8-99.7-55.2-138.3-84.6-30.7-23.4-70.3-56.9-104.1-109.5l70.7-54.3c21.6 43.9 45 70.4 69.3 95.1C642 720 672.9 752 718.4 778.4c55.9 32.4 86.8 37.7 154.5 44.5l-7.7 40.5z"/>
</svg>
