<svg xmlns="http://www.w3.org/2000/svg" viewBox="0 0 1024 1024">
    <path d="M739.2 136.9C701.9 163.6 616.1 213.2 545 249c-8.4-.2-12.9-1.2-18-2.3-18-3.6-30.8-9.6-43.5-16.3-12-6.3-21.3-13.8-31.5-25.9-10.8-12.9-18.6-24.6-24.9-37.3l-41.6 49c11 17.2 40.8 46.9 64 55.6 9 3.3 16.2 6.6 26.3 8.8-2.6 1.1-5.2 2.1-7.7 3.1-17.6 5.1-34.1 6.6-47.6 6.7s-26.3-4.3-38.7-9.2c-15.6-6.2-29-13.7-40.1-22.7L302 306.9c17.1 11.1 31.4 18.8 42.8 23.4 21.6 8.5 42.3 13.9 60.9 14 21.6.1 42.8-1.1 69.5-13.8 156.5-74.7 209.5-117 283.4-171.6l-19.4-22z"/>
</svg>
