<svg xmlns="http://www.w3.org/2000/svg" viewBox="0 0 1024 1024">
    <path d="M549.6 147.9c24.9-6.8 46.1-10.2 63.4-10.2 17.6 0 32.5 4.5 44.6 13.6 12.1 9.1 18.2 22.5 18.2 40.4 0 13.6-4.8 25.7-14.4 36.2-9.6 10.5-21.7 19.6-36.2 27.2-11.6 6-26.4 13.1-44.4 21l33.5 65c22-9.5 40.3-18.3 54.7-26.2 17.9-9.9 33-22.8 45.4-38.8 12.4-16 18.6-35.9 18.6-59.6 0-13.9-3.2-27.2-9.6-40-6.4-12.8-17.2-27.8-32.4-45s-32.4-30.2-51.6-39c-19.2-8.8-38.5-13.2-58-13.2-22.7 0-45.9 3.3-69.8 10s-44.7 14.3-62.6 22.8l29.2 61.6c22.7-10.4 46.5-19 71.4-25.8z"/>
</svg>
