<svg xmlns="http://www.w3.org/2000/svg" viewBox="0 0 1024 1024">
    <path d="M344.7 460.6v273.9h-25.8V460.6c0-63.2-9-109-27.1-137.4-18.1-28.4-47.1-42.6-87.1-42.6-43.3 0-77.1 19.6-101.4 58.8s-36.5 94-36.5 164.4c0 28 2 55.9 5.9 83.7s10.8 51.6 20.7 71.4c2.5-33.8 11.2-61.2 26.1-82.2s32.9-31.5 54.1-31.5c20.6 0 36.8 8.7 48.6 26 11.8 17.3 17.7 41 17.7 71.3 0 28.2-7.1 51.1-21.3 68.7-14.2 17.6-32.5 26.4-54.9 26.4-30.6 0-55-12.9-73.1-38.7-18-25.9-30.6-57-37.7-93.5s-10.7-72.9-10.7-109.1c0-51 6.7-97.1 20.1-138.1s32.5-73.5 57.4-97.2 53.9-35.6 87-35.6c92 0 138 78.5 138 235.2zM105.8 678.8c13.9 17.2 30.8 25.8 50.7 25.8 13.3 0 24-5.5 32.2-16.6 8.1-11.1 12.2-25.5 12.2-43.1 0-16.6-3.5-30.4-10.6-41.5-7.1-11.1-17.8-16.6-32.3-16.6-14.8 0-26.9 8.1-36.2 24.3s-14.6 38.7-16 67.7zM679.9 394.6h236v33h-74v307.2h-40V427.6h-96.3v307.2h-25.7z"/>
</svg>
