<svg xmlns="http://www.w3.org/2000/svg" viewBox="0 0 1024 1024">
    <path d="M1009 365.2v33h-48.6v307.2h-26.2V398.2h-63.1v307.2h-26.2v-165c0-46.2-6.4-82-19.3-107.3-12.9-25.3-30.9-38-54-38-13.8 0-26.3 6.2-37.5 18.5s-20.1 30.3-26.5 54c-6.5 23.7-9.7 51.9-9.7 84.8 0 18 .9 34.9 2.8 50.7 3.2-25 9.4-45.3 18.5-60.9 9.1-15.6 19.4-23.4 31.1-23.4 12.9 0 23.1 8.5 30.7 25.6 7.6 17.1 11.4 40 11.4 68.6 0 28.2-4.7 51.1-14 68.7s-21.3 26.4-36 26.4c-11 0-21.1-6-30.3-18.1-9.2-12.1-16.6-30-22.1-53.5-5.5-23.6-8.3-51.9-8.3-84.9 0-40.2 4-74.6 12-103.1s18.8-50 32.3-64.5 28.8-21.8 45.5-21.8c16.9 0 31.8 6.2 44.5 18.6s22.8 30.3 30.3 53.7v-69.3H1009zM707.4 636.7c3.7 12.6 8.2 22.1 13.4 28.6s10.9 9.8 16.8 9.8c8.7 0 15.8-5.5 21.1-16.6 5.3-11.1 8-25.5 8-43 0-16.4-2.4-29.7-7.2-39.9-4.8-10.2-11.3-15.3-19.5-15.3-8.5 0-15.6 6.8-21.5 20.4-6 13.5-9.6 32.2-11.1 56zM340.5 431.2v273.9h-16.9V431.2c0-63.2-5.9-109-17.8-137.4-11.8-28.4-30.9-42.6-57.1-42.6-28.4 0-50.5 19.6-66.4 58.8s-23.9 94-23.9 164.4c0 28 1.3 55.9 3.8 83.7 2.6 27.8 7.1 51.6 13.6 71.4 1.6-33.8 7.3-61.2 17.1-82.2s21.6-31.5 35.5-31.5c13.5 0 24.1 8.6 31.9 25.9 7.7 17.3 11.6 41.1 11.6 71.3 0 28.2-4.7 51.1-14 68.7s-21.3 26.4-36 26.4c-20.1 0-36-12.9-47.9-38.7-11.8-25.8-20.1-57-24.8-93.5s-7-72.8-7-109c0-51 4.4-97.1 13.2-138.2 8.8-41.1 21.3-73.5 37.6-97.2 16.3-23.7 35.3-35.6 57-35.6 60.3.1 90.5 78.5 90.5 235.3zM183.9 649.3c9.1 17.2 20.2 25.8 33.2 25.8 8.7 0 15.8-5.5 21.1-16.6 5.3-11.1 8-25.5 8-43 0-16.6-2.3-30.5-7-41.6s-11.7-16.7-21.1-16.7c-9.7 0-17.6 8.1-23.7 24.3-6.1 16.2-9.6 38.8-10.5 67.8z"/>
</svg>
