<svg xmlns="http://www.w3.org/2000/svg" viewBox="0 0 1024 1024">
    <path d="M344.9 636.6c0 28.2-9.4 51.1-28.3 68.7-18.8 17.6-43.1 26.4-72.8 26.4-32.8 0-64-10.4-93.8-31.1-29.8-20.7-53.9-50.4-72.4-89.2-18.5-38.8-27.7-84.1-27.7-135.9s9.2-97.1 27.7-135.9 42.6-68.6 72.4-89.3 61-31.1 93.8-31.1c29.9 0 54.2 8.9 72.9 26.6s28.1 40.6 28.1 68.6c0 31.4-7.7 55.7-23.2 72.9-15.5 17.2-37 25.8-64.4 25.8-17.8 0-34.6-4.8-50.4-14.3s-28.8-23.6-39.2-42.2c-10.4-18.6-16.4-40.8-18-66.6-20.4 19.4-36.6 45-48.7 76.8-12.1 31.8-18.2 68-18.2 108.6s6.1 76.8 18.2 108.6c12.1 31.8 28.4 57.4 48.7 76.8 1.6-25.8 7.6-48 18-66.6 10.4-18.6 23.4-32.6 39.2-42.1s32.5-14.3 50.4-14.3c27.5 0 49 8.6 64.4 25.8 15.6 17.3 23.3 41.6 23.3 73zM234.3 252.3c-23.7 0-46 7.7-66.9 23.1 2.4 33.6 10 58 22.8 73.3 12.8 15.3 29.1 22.9 48.7 22.9 18 0 31.5-5.7 40.6-16.9 9-11.3 13.5-25.6 13.5-42.8 0-17.6-5.4-32-16.1-43.1-10.7-10.9-24.9-16.5-42.6-16.5zM293 639c0-17.2-4.5-31.5-13.5-42.8-9-11.3-22.5-17-40.6-17-19.7 0-35.9 7.7-48.7 23-12.8 15.3-20.4 39.8-22.8 73.3 20.9 15.4 43.2 23.1 66.9 23.1 17.7 0 31.9-5.6 42.6-16.7C287.6 671 293 656.6 293 639zM690.3 388.5H1003v33h-98v307.2h-53V421.5H724.5v307.2h-34.2z"/>
</svg>
