<svg xmlns="http://www.w3.org/2000/svg" viewBox="0 0 1024 1024">
    <path d="M812.3 627.2c0 63.3-14.3 113.9-43 151.8s-66.7 56.8-114 56.8c-30.3 0-58.2-9.9-83.5-29.8s-45.2-48.3-59.5-85.3c-14.7 37-34.8 65.4-60.3 85.3s-53.3 29.8-83.3 29.8c-47.7 0-85.8-18.9-114.3-56.8s-42.8-88.4-42.8-151.8c0-74.7 20.1-139.8 60.3-195.5s93.3-92.9 159.8-110c39.3-10.1 53.6-10.5 71.5-10.5 37.8 0 50 2 71 6.5 70.9 15.4 128.4 50.4 172.3 107.3s65.8 124.2 65.8 202.2zm-65.5-36.5c0-68.3-21.9-124.3-65.8-168-43.8-43.7-100.3-65.5-169.3-65.5s-125.3 21.8-169 65.5-65.5 99.7-65.5 168c0 42.3 9.4 74.8 28.3 97.5 18.8 22.7 43.9 34 75.3 34 57 0 95.5-36 115.5-108h31.5c20 72 58.5 108 115.5 108 31.3 0 56.4-11.3 75.3-34s28.2-55.1 28.2-97.5z"/>
    <path d="M258.5 522.7h507.1v47.5H258.5z"/>
</svg>
