<svg xmlns="http://www.w3.org/2000/svg" viewBox="0 0 1024 1024">
    <path d="M461.3 439.7c0-15 4.8-26.9 14.5-35.8s21.7-13.3 36-13.3c13.7 0 25.2 4.5 34.5 13.5s14 20.8 14 35.5c0 15-4.8 26.8-14.3 35.5s-20.9 13-34.3 13c-14.3 0-26.3-4.4-36-13.3s-14.4-20.4-14.4-35.1zm-142 15.5l37.5-17c22.7 42.7 46 72.3 70 88.8s52.3 24.8 85 24.8c32.3 0 60.7-8.3 85-24.8s47.7-46.1 70-88.8l38 17c-16.7 57-40.1 100.9-70.3 131.8-30.2 30.8-71.1 46.3-122.8 46.3s-92.5-15.4-122.5-46.3c-29.9-30.8-53.3-74.8-69.9-131.8z"/>
</svg>
