<svg xmlns="http://www.w3.org/2000/svg" viewBox="0 0 1024 1024">
    <path d="M791.2 327.2c40.5 0 74.4 17.5 101.6 52.4s40.8 79.6 40.8 134c0 18.7-2.1 37.7-6.4 57.2s-11.1 39.1-20.4 58.8-23.6 35.9-42.8 48.4-41.6 18.8-67.2 18.8c-33.1 0-61.3-12.5-84.8-37.6s-35.7-55.2-36.8-90.4H700c3.2 21.3 11.6 40 25.2 56s31.3 24 53.2 24c27.2 0 49.5-14.3 66.8-42.8s26-63.3 26-104.4c0-40-8.1-72.7-24.4-98-16.3-25.3-37.5-38-63.6-38-6.4 0-13.3 1.2-20.8 3.6-7.5 2.4-16.4 6.7-26.8 12.8-10.4 6.1-18.9 16.8-25.6 32-6.7 15.2-10 33.7-10 55.6h-24.8c0-48.5 12.1-84.4 36.4-107.6 24.3-23.2 50.8-34.8 79.6-34.8zM221 328.8c36.8 0 68.7 8.7 95.6 26 26.9 17.3 40.4 40.9 40.4 70.8 0 24.5-7.7 42.3-23.2 53.2-15.5 10.9-32.3 16.4-50.4 16.4-18.7 0-36-5.5-52-16.4s-24-28.7-24-53.2c0-22.9 11.2-44 33.6-63.2-8.5-4.3-17.3-6.4-26.4-6.4-38.9 0-68.7 15.3-89.2 46s-30.8 67.1-30.8 109.2 10.3 78.8 30.8 110 50.3 46.8 89.2 46.8c9.1 0 17.9-2.1 26.4-6.4-22.9-14.4-34.4-33.1-34.4-56 0-23.5 8.1-41.3 24.4-53.6 16.3-12.3 34.3-18.4 54-18.4 18.1 0 34.7 5.1 49.6 15.2 14.9 10.1 22.4 26.9 22.4 50.4 0 29.9-13.2 53.3-39.6 70.4s-58 25.6-94.8 25.6c-60.8 0-107.2-18.4-139.2-55.2s-48-79.7-48-128.8c0-49.6 15.9-92.4 47.6-128.4s77.7-54 138-54zm67.2 140.8c10.7 0 20.3-4 28.8-12s12.8-18.9 12.8-32.8c0-12.3-3.9-23.7-11.6-34.4-7.7-10.7-19.9-17.9-36.4-21.6-10.1 4.8-18.3 13.1-24.4 24.8-6.1 11.7-9.2 23.7-9.2 36 0 12.8 3.9 22.7 11.6 29.6 7.7 7 17.2 10.4 28.4 10.4zm0 89.6c-11.2 0-20.7 3.5-28.4 10.4-7.7 6.9-11.6 16.8-11.6 29.6 0 25.1 11.2 44 33.6 56.8 14.9-3.7 26.7-11.1 35.2-22s12.8-22.5 12.8-34.8-4.1-22-12.4-29.2-18-10.8-29.2-10.8z"/>
</svg>
