<svg xmlns="http://www.w3.org/2000/svg" viewBox="0 0 1024 1024">
    <path d="M780.7 327.2c37.8 0 69.4 17.5 94.8 52.4s38.1 79.6 38.1 134c0 18.7-2 37.7-6 57.2s-10.3 39.1-19 58.8-22 35.9-39.9 48.4-38.8 18.8-62.7 18.8c-30.9 0-57.2-12.5-79.1-37.6s-33.3-55.2-34.3-90.4h23.1c3 21.3 10.8 40 23.5 56s29.2 24 49.7 24c25.4 0 46.2-14.3 62.3-42.8 16.2-28.5 24.3-63.3 24.3-104.4 0-40-7.6-72.7-22.8-98-15.2-25.3-35-38-59.4-38-6 0-12.4 1.2-19.4 3.6s-15.3 6.7-25 12.8c-9.7 6.1-17.7 16.8-23.9 32-6.2 15.2-9.3 33.7-9.3 55.6h-23.1c0-48.5 11.3-84.4 34-107.6 22.5-23.2 47.2-34.8 74.1-34.8zm-596.1 0c28.9 0 55.7 6.4 80.6 19.2 24.9 12.8 46.2 34.3 63.8 64.4s26.5 66.8 26.5 110c0 11.2-1 22.7-3 34.4s-5.6 26.4-10.8 44c-5.2 17.6-14.4 35.1-27.6 52.4s-29.5 32.4-48.9 45.2l-36.6-18.4c43.3-34.7 65-84 65-148 0-28.3-4.1-53.3-12.3-75.2-8.2-21.9-18.8-38.7-31.7-50.4-12.9-11.7-26.3-20.4-39.9-26-13.7-5.6-27.3-8.4-40.7-8.4-12.4 0-25 2.4-37.7 7.2-12.7 4.8-26.1 12.7-40.3 23.6S64.4 429.1 54 452c-10.5 22.9-17.4 50.1-20.9 81.6l3 1.6c22.4-38.4 47.5-57.6 75.4-57.6 28.9 0 51.1 11.9 66.8 35.6s23.5 50 23.5 78.8c0 27.7-6.8 52.1-20.5 73.2s-36.7 31.6-69.1 31.6c-31.9 0-57-15.2-75.4-45.6S9.2 584.3 9.2 541.6c0-37.9 5.6-71.3 16.8-100.4s25.8-51.5 43.7-67.2c17.9-15.7 36.6-27.5 56-35.2 19.4-7.7 39-11.6 58.9-11.6zm-31.3 257.6c0-16-4.2-31.3-12.7-46s-21.9-22-40.3-22c-17.4 0-30.7 6.7-39.9 20s-13.8 28.8-13.8 46.4c0 18.7 5 34.4 14.9 47.2s23.1 19.2 39.6 19.2c18.4 0 31.7-6.8 39.9-20.4 8.2-13.6 12.3-28.4 12.3-44.4z"/>
</svg>
