<svg xmlns="http://www.w3.org/2000/svg" viewBox="0 0 1024 1024">
    <path d="M685.6 339.7v88.8l-12.7-6.4V155.7c2.7 2.1 9.2 8.1 19.6 18s17.5 16.7 21.3 20.4 10 10.3 18.4 19.6c8.4 9.3 14.5 17.1 18.1 23.2s8 13.7 13 22.8c5 9.1 8.4 18.3 10.4 27.6 1.9 9.3 2.9 19.1 2.9 29.2 0 13.9-3.7 24.7-11.2 32.4-7.5 7.7-17.2 11.6-29.1 11.6-17.3 0-34.2-6.9-50.7-20.8zm0-151.2v131.2c10.7 9.1 21.1 13.6 31.1 13.6 8.4 0 15.4-2.9 20.7-8.8s8.1-13.6 8.1-23.2c0-22.4-5.4-42.4-16.1-60-10.8-17.6-25.4-35.2-43.8-52.8zm-457.8 276c0 18.7-4.5 34.9-13.5 48.8-9 13.9-21.2 20.8-36.6 20.8s-27.5-6.9-36.6-20.8c-9-13.9-13.5-30.1-13.5-48.8 0-16 3.3-30 9.8-42 6.5-12 14.9-20.9 25-26.8 10.2-5.9 19.9-10.1 29.1-12.8 9.2-2.7 18-4 26.5-4 30.3 0 56.5 13.3 78.6 40 22.1 26.7 33.1 60.5 33.1 101.6 0 36.3-7.9 68.3-23.6 96s-35.5 48.1-59.3 61.2-49.1 19.6-76 19.6c-41.5 0-77.2-19.2-107.4-57.6s-45.2-85.3-45.2-140.8c0-65.1 18.1-119.6 54.4-163.6s79.5-66 129.8-66c38 0 73.1 14.1 105.4 42.4 32.2 28.3 56.6 66.4 73.1 114.4 0 .5.1 1.2.3 2 .2.8.3 1.5.3 2 0 5.9-2.1 8.8-6.3 8.8-2.7 0-4.6-1.6-5.8-4.8-15.4-44.8-38.1-80.5-68.2-107.2-30.1-26.7-63-40-98.7-40-46.1 0-86.2 18.9-120.3 56.8S31 429.3 31 486.9c0 41.1 13 74.3 38.9 99.6s56.3 38 91.3 38c103.6 0 155.6-34.9 156-104.8-.4-36.3-10.3-65.9-29.6-88.8-19.6-22.9-42.8-34.4-69.6-34.4-7.3 0-14.4.8-21.3 2.4 10 4.8 17.7 13.3 23 25.6s8.1 25.6 8.1 40zm-50.1-52c-11.9 0-21.1 5.2-27.6 15.6-6.5 10.4-9.8 22.5-9.8 36.4s3.3 26 9.8 36.4c6.5 10.4 15.7 15.6 27.6 15.6 11.9 0 21.1-5.2 27.6-15.6 6.5-10.4 9.8-22.5 9.8-36.4s-3.2-26-9.5-36.4c-6.3-10.4-15.6-15.6-27.9-15.6z"/>
</svg>
