<svg xmlns="http://www.w3.org/2000/svg" viewBox="0 0 1024 1024">
    <path d="M665.5 387.7c0-24 6.9-43.9 20.8-59.6 13.8-15.7 30.3-23.6 49.4-23.6 27.3 0 48.6 17.7 64 53.2 15.4 35.5 23.1 77.5 23.1 126s-7.7 90.5-23.1 126c-15.4 35.5-36.7 53.2-64 53.2-19.1 0-35.6-8-49.4-24-13.8-16-20.8-36-20.8-60h12.9c0 13.9 4.3 25.2 12.9 34 8.6 8.8 18.7 13.2 30.4 13.2 20.3 0 35.1-13.9 44.4-41.6 9.4-27.7 14-61.3 14-100.8 0-40-4.7-73.9-14-101.6-9.4-27.7-24.2-41.6-44.4-41.6-11.7 0-21.8 4.4-30.4 13.2-8.6 8.8-12.9 20.1-12.9 34h-12.9zm-440.4 76.8c0 18.7-4.6 34.9-13.7 48.8-9.2 13.9-21.5 20.8-37.1 20.8s-28-6.9-37.1-20.8c-9.2-13.9-13.7-30.1-13.7-48.8 0-16 3.3-30 9.9-42 6.6-12 15.1-20.9 25.4-26.8 10.3-5.9 20.2-10.1 29.5-12.8 9.4-2.7 18.3-4 26.9-4 30.8 0 57.4 13.3 79.8 40s33.6 60.5 33.6 101.6c0 36.3-8 68.3-24 96s-36.1 48.1-60.2 61.2c-24.2 13.1-49.9 19.6-77.2 19.6-42.1 0-78.5-19.2-109.1-57.6s-45.9-85.3-45.9-140.8c0-65.1 18.4-119.6 55.3-163.6s80.8-66 131.9-66c38.6 0 74.3 14.1 107 42.4 32.8 28.3 57.5 66.4 74.3 114.4 0 .5.1 1.2.3 2 .2.8.3 1.5.3 2 0 5.9-2.1 8.8-6.4 8.8-2.7 0-4.7-1.6-5.8-4.8-15.6-44.8-38.7-80.5-69.3-107.2-30.6-26.7-64-40-100.3-40-46.8 0-87.5 18.9-122.2 56.8s-52.1 85.6-52.1 143.2c0 41.1 13.2 74.3 39.5 99.6s57.2 38 92.7 38c105.3 0 158.1-34.9 158.5-104.8-.4-36.3-10.4-65.9-30.1-88.8-19.7-22.9-43.2-34.4-70.5-34.4-7.4 0-14.6.8-21.6 2.4 10.1 4.8 17.9 13.3 23.4 25.6 5.3 12.3 8 25.6 8 40zm-50.9-52c-12.1 0-21.4 5.2-28.1 15.6-6.6 10.4-9.9 22.5-9.9 36.4s3.3 26 9.9 36.4c6.6 10.4 16 15.6 28.1 15.6s21.4-5.2 28.1-15.6 9.9-22.5 9.9-36.4-3.2-26-9.6-36.4-15.9-15.6-28.4-15.6z"/>
</svg>
