<svg id="レイヤー_1" xmlns="http://www.w3.org/2000/svg" viewBox="0 0 1024 1024">
    <style>
        .st0{fill:none}
    </style>
    <path class="st0" d="M-4.8 623.1c-7.4-.2-16.7 7.6-17 14.2-.3 6.2 6.5 12.1 14.4 12.2 8 .2 13.8-5.5 13.8-13.7-.1-7.3-4.7-12.5-11.2-12.7zM901 720.5c-16.1-29.6-44.4-36.6-69.7-14.5-17.3 15.1-28.3 37.4-41.8 56.7-6.5 9.2-10.3 23.5-19 27.4-18.4 8.3-21.9 21.5-21.5 38.4 1.1 47.3-4.2 96 19.5 139.4 10.4 19.2 24.8 38.7 42.3 51 29.8 20.8 67.3 4.3 83.5-33.8 20.1-47.3 26.4-97.3 27.3-148.4-1.3-22.6-.9-45.4-4.4-67.6-2.6-16.6-8.1-33.7-16.2-48.6zM117.4 595.4c13.8.8 28.7-12.9 28.9-26.6.2-14.5-16-32.9-35.4-32.5-5.5 7.8-15.5 17.9-20.1 30.1-4 10.7 14.2 28.2 26.6 29zM.7 572.2c-2.8-1-5.8 2.5-6.3 5.9-.5 3.4 1.6 7.3 5.5 6.9 2.4-.3 5.6-2.2 5.7-6.6.1-4.3-2.6-5.4-4.9-6.2z"/>
    <path d="M600.1 636.9c16.8-10.4 36.1-16.9 54.2-25.1 11.6-5.2 23.2-10.2 41.4-18.1-21.9-19.1-37.6-12.1-53-11.4-27.8 1.2-55.9 3.6-83.4.9-48.1-4.8-84.4-30.4-109.4-71.9-26.9-44.8-22.7-97.8 11.6-137.3 24.4-28.1 55.9-43.6 91.5-54 22.4-6.6 45.7-16.1 63.5-30.5 26.2-21.2 25.4-53.1 2.2-77.6-19.9-21.1-44.1-35.5-74.3-32.9-50 4.2-76.3 16.5-76.3 16.5s-41.2-29.3-49.8-12.7c-6.5 12.7 32.8 26.2 32.8 26.2s-16.8 8-18.4 38.3c-.9 15.7 2.6 31.4 18.7 40.6 15.2 8.7 51.7 3 63.5-10 20.1-22 13.5-56.6-12.3-68.1 29.3-16.9 85.4-10.4 101.4 21.8 8.5 17.1 2.5 31.3-11.2 42.2-21.7 17.3-43.3 19.3-72 20.5-.7 0-44.6 7-61.2 12-8.8 2.7-20.4 6.6-28.6 9.8C351.3 347 312.7 422 334 505c7.6 29.5 22.8 53.8 46.7 72.6 35.8 28.2 76.2 42.7 122.2 42 14.5-.2 31.7-7 45.8 12.5-11.5 10.3-22.8 19.2-32.6 29.6-53.5 56.7-41.3 138.2 26.9 170.3 44.2 20.8 90.9 16.7 136.6 2.6 5.2-1.6 8-11 15.2-21.6-23.7-2.9-41.8-4.3-59.6-7.4-43.1-7.5-72-34.7-79.5-73.9-7.3-38.1 7.6-72 44.4-94.8zm-121.7-364c-15.7 1.8-24.2-13.7-22.2-27.5 2-13.5 13.9-27.5 25.2-23.5 9.1 3.2 19.9 7.7 19.6 24.6-.3 17.5-12.9 25.3-22.6 26.4z"/>
</svg>
