<svg id="レイヤー_1" xmlns="http://www.w3.org/2000/svg" viewBox="0 0 1024 1024">
    <style>
        .st0{fill:none}
    </style>
    <path class="st0" d="M-4.8 623.1c-7.4-.2-16.7 7.6-17 14.2-.3 6.2 6.5 12.1 14.4 12.2 8 .2 13.8-5.5 13.8-13.7-.1-7.3-4.7-12.5-11.2-12.7zM-167.3 584.2c-25.1-21.8-64-19-94.5 6.7-30.1 25.4-25.9 59.8 10.1 75.8 10.7 4.7 22.8 6.3 38.6 10.4 14.3-6.5 33.2-11 46.9-22 26.6-21.4 24.8-48.5-1.1-70.9zM901 720.5c-16.1-29.6-44.4-36.6-69.7-14.5-17.3 15.1-28.3 37.4-41.8 56.7-6.5 9.2-10.3 23.5-19 27.4-18.4 8.3-21.9 21.5-21.5 38.4 1.1 47.3-4.2 96 19.5 139.4 10.4 19.2 24.8 38.7 42.3 51 29.8 20.8 67.3 4.3 83.5-33.8 20.1-47.3 26.4-97.3 27.3-148.4-1.3-22.6-.9-45.4-4.4-67.6-2.6-16.6-8.1-33.7-16.2-48.6zM195.1 785.5c-30.2-1.4-67.8 33.4-66.9 62 .8 23.6 25 45.3 51.4 45.9 31.3.8 60.5-26.2 60.9-56.3.5-26.5-20.7-50.5-45.4-51.6z"/>
    <path d="M987 359c-39-65-112.5-75.1-164.6-20.4-15.9 16.7-24.5 40.2-36.4 60.7-4.3 7.4-8.2 14.9-16.9 30.5-11.5-24.9-19.4-42.4-27.7-59.8-34.2-71.2-108.3-87.8-169.2-38.2-32.3 26.3-51 60.8-61.8 100.4-4 14.6-3.5 32.8-28.9 38.5-3.7-7-7.4-12.5-9.5-18.5-33.2-93-100.4-140.5-197.5-149.5-98.9-9.2-230.8 57.8-256.3 169C.4 549.1 9.2 621 73.3 676.2c60.7 52.3 148.9 59.9 221.2 22.9 79.4-40.7 109.7-105.1 103.1-194.6-4.4-58.4-44.4-102.8-101.6-113.5-38.8-7.2-77.6-1.7-113 15.7-47 23.1-65.7 79.1-44.4 126.5 9.5 21.2 25.6 33.6 49 35.9 29.8 3 56.3-4.1 74.4-29.2 19.7-27.2 18.4-57.3 7.2-87.4-3.9-10.5-9.2-20.5-13.5-29.8 5.9-4.5 7.9-7.2 10.1-7.4 35.3-3 74.1 21.9 92 58.6 14 28.7 9.3 62.5-17.2 87.8-16.9 16.1-37.4 31.6-59.2 38.9-44.8 15.2-92.1 16-138 3-74.5-21.2-107.9-83.7-82.1-154.9 6.6-18.2 18.1-36.2 31.8-50 69-69.7 152.2-81 243.5-55.5 35 9.8 61.6 31 81.8 60.5 26.6 38.8 46.2 81.1 53.6 127.6 8.1 51.3 12.8 103 19.6 154.5 1 7.5 5.6 14.6 8.5 21.8 3.3-.4 6.6-.8 9.9-1.1 1.4-12.3 3.5-24.6 4-36.9 2.1-50.6 1.4-101.4 6-151.7 4.4-49.3 25.8-92.2 64.2-124.8 33.5-28.5 63.7-28.3 96.5 1.2 11.6 10.4 22.8 23.7 28.4 37.9 19.2 48.9 29.8 100.5 22.4 152.7-7 49.7-27.9 92.4-85 103-5.1 1-10.9 2.4-14.7 5.6-3.6 3-7.7 9.7-6.5 13 1.9 5.3 7.1 11.4 12.3 13.1 5.7 1.9 13.1 0 19.4-1.6 32.3-8.2 57.5-26.5 77.8-52.8 8.1-10.6 18.8-19.1 31.3-31.6 6.1 13.5 9.5 20.5 12.4 27.6C795.3 702.1 838 728 880.6 721c43-7.1 79-27.7 98.2-67.7 41.7-86.6 44.1-177.1 20.5-269.1-2.7-8.8-7.6-17.2-12.3-25.2zM258.5 489.4c-.4 30-29.7 57-60.9 56.3-26.4-.6-50.7-22.3-51.4-45.9-.9-28.5 36.6-63.3 66.9-62 24.6 1.1 45.8 25.1 45.4 51.6zm653.8 148.1c-16.2 38-53.7 54.6-83.5 33.8-17.5-12.2-31.9-31.8-42.3-51-23.7-43.4-18.3-92.2-19.5-139.4-.4-16.9 3.1-30.1 21.5-38.4 8.7-3.9 12.5-18.2 19-27.4 13.5-19.3 24.6-41.6 41.8-56.7 25.3-22.1 53.6-15.1 69.7 14.5 8.1 14.8 13.6 31.9 16.2 48.7 3.5 22.2 3.1 45 4.4 67.6-.9 51-7.2 101-27.3 148.3z"/>
</svg>
