<svg xmlns="http://www.w3.org/2000/svg" viewBox="0 0 1024 1024">
    <path d="M715.4 369c-31.2 26.9-51.2 60.7-63 100-5.1 17-12.8 33.2-20.6 52.8-10.2-7.4-12.9-8.6-14.2-10.6-2.2-3.3-3.8-7-5-10.8-20.7-60.9-59.9-105.5-117-135.5-49.6-26-101.2-37.5-157.5-33.6-65.8 4.5-126.8 22.6-177.5 64.5-86.5 71.5-104.3 139.9-83.4 237.9 13.2 61.6 77.3 140 184.2 148.9 30.2 2.5 61.3 0 91.4-4 77.2-10.2 127.6-54.7 156.7-126 34.8-85.5 3.2-181-76.4-213.7-67.9-27.9-133.5-16.9-191.8 28.8-9.2 7.2-17 17.2-23.1 27.3-22.7 37-13.7 88.7 18.5 111.6 35.3 25.2 90.3 21.6 122.4-7.8 37-34.1 36.1-89.9-2-122.8-5.6-4.8-10.7-10.1-17-16 47.9-19.9 107.9 5.7 131.8 53.5 17 33.9 12.2 66.9-11.5 93.1-17.2 19-40.8 35.6-64.8 44.4-63.4 23-128.4 21.1-192.1-1.7-73.1-26.3-102.7-97.7-70.5-168.8 16.6-36.6 42.7-64.2 78.8-81.9C284 363.2 360 353 437.4 373.9c56.7 15.3 105.1 45.7 132.4 101.3 20.5 41.7 41.9 82.9 44.9 131 3 46.5 8.3 92.8 12.4 139.2.9 10.2-.6 21.3 16.6 25.3 1.9-9.8 4.5-18.2 5.1-26.7 2.8-43.9 2.1-88.2 8.3-131.5 5.4-37.8 14.6-76 28.9-111.4 18.4-45.4 54.8-72.1 105.9-71.2 51 .9 84.5 28.8 103.4 74.7 20.4 49.7 22.9 101.6 10.5 153.2-11.9 49-40.9 83-94.5 90.5-10.5 1.5-20.3 7.3-31.4 11.6 9.8 23.6 25.5 20.8 39.4 19.2 61.8-7 97.6-46.3 117-101.2 30.8-87.1 20.1-175.2-10-258.9-34.2-95.4-134-116.4-210.9-50zM357.7 516.7c9.1 22.2-1.9 38.6-15.8 53.2-21.4 22.5-54.3 27.7-79.8 13.8-21.8-11.8-32-33.4-26.5-56.3 5.9-24.6 37-47.1 66.3-48.1 22.4-.6 47.1 16.2 55.8 37.4zm285.9-249.9c25.7 40.1 69.1 56.1 114.8 42.2 58-17.6 93.2-80.3 77.8-139.2C824.4 125 799.5 90.2 757.5 69c-110.6-56-221-53-329.3 4.8-49.6 26.5-78 71.7-91 125.9-10 41.6 7.1 86.2 39 105.8 11.7 7.2 23.5 12.8 36.6-2.8-5.5-7.7-10.3-15.2-15.7-22.2-27.9-35.8-26.7-71.4 5.5-103.4 11.1-11 24.8-20.4 39-27.3 65.8-31.9 136.1-34.3 207.2-28.6 7.1.6 13.7 6.2 25.3 11.7-8.6 10.9-13.3 17.1-18.2 23-28.7 34.8-33.5 77.8-12.3 110.9zm90.7-119.6c30.4-.1 61.6 33.9 60.7 66.4-.9 34.3-33.2 67.2-65.9 67.2-33-.1-62.4-31.8-61-65.6 1.5-33.6 34.9-67.9 66.2-68z"/>
</svg>
