<svg xmlns="http://www.w3.org/2000/svg" viewBox="0 0 1024 1024">
    <path d="M169.2 705.3c60.4 31.2 125.3 32.4 191.1 17.2 69.4-16 120.4-53 149.8-119.6 27.4-62.2 13.2-144.4-36.1-183.2-74.1-58.2-182-44.4-245.6 6.1-32.4 25.7-37.7 61.3-26.9 97.8 10 33.6 41.7 44.9 72.3 48.6 37.6 4.5 72-7.8 93.9-41 18.2-27.7 10.4-65.7-16.4-98.7-4.5-5.6-6.5-13.1-9.9-20.3 54.8-13.7 123.1 22.2 137.6 70.5 7.9 26.4 2.7 52.1-16.2 70.6-18.7 18.2-40.3 37.1-64.3 45.6-74.1 26.4-149.8 24.7-222.6-5.9-58.9-24.8-81.9-82.2-61.1-142.4 14.3-41.3 41.5-72.3 81-89.3 35.2-15.2 72.1-31.2 109.5-35.9 166.8-20.7 274.8 53.9 308.4 216.1 9.9 48.1 11.7 97.8 17.6 146.7 1.3 10.9-1.7 25.5 21.9 26.5 1.5-12.2 3.7-24.6 4.4-37 2.2-37.2.3-75.2 6.7-111.6 6.9-38.9 20-77 33.1-114.5 9.1-26.1 29.2-44.3 55.5-54.4 72.5-28 147.7 9.3 165 85.2 7.3 32 9.1 66.3 6.9 99.1-4.3 64.1-36.4 97.5-99.9 112.7-10.7 2.6-20.9 7.1-34.4 11.8 12.5 22.7 27.9 21.7 44 19 59.3-10.1 100.5-44.1 119.2-100.2 29.6-88.8 17.6-176.7-17.8-261.4-14.5-34.6-43.3-57.4-80.9-65.7-67.4-14.9-129.1 10.5-165.2 69.5-13.8 22.5-23.3 47.7-34.3 71.8-5.9 12.8-6 31.6-24.9 31.9-17.2.3-17.6-17.3-22.8-28.9-16.5-37.1-40-68-72.7-93.5-100.4-78.2-292.5-79.3-405.8 20.7C14 471.1 32.9 634.8 169.2 705.3zm167.7-184.7c-13.7 11-32.6 15.5-46.9 22-15.8-4.2-27.9-5.7-38.6-10.4-36-16-40.2-50.4-10.1-75.8 30.5-25.7 69.3-28.4 94.5-6.7 25.8 22.4 27.6 49.5 1.1 70.9z"/>
</svg>
