<svg id="レイヤー_1" xmlns="http://www.w3.org/2000/svg" viewBox="0 0 1024 1024">
    <style>
        .st0{fill:none}
    </style>
    <path class="st0" d="M548.3 383.8c0 15.9-1.2 31.9.3 47.6 2.3 23.9 15.1 31.8 38.4 26.1 35.1-8.7 60.1-42.2 59.5-79.7-.6-39.6-21.6-62.8-59.5-65.9-26.5-2.2-37 6.1-38.9 32.3-.9 13.2-.2 26.5-.2 39.7.1-.1.3-.1.4-.1zM-4.8 623.1c-7.4-.2-16.7 7.6-17 14.2-.3 6.2 6.5 12.1 14.4 12.2 8 .2 13.8-5.5 13.8-13.7-.1-7.3-4.7-12.5-11.2-12.7z"/>
    <path d="M325.4 668.5c56 64.5 145.2 81 231.2 47.6 71.1-27.7 123.2-106 123.6-185.8.3-65.8-35.8-119.7-96.1-143.1-56-21.8-128.4-4.8-169.3 39.5-24.7 26.8-31.3 68.8-15.8 100.4 13.1 26.6 49.6 47.3 79.3 44.9 34.9-2.8 60.3-26.3 73.5-63.9 9.6-27.2.8-49.4-13.2-71.4-4.6-7.3-8.7-14.9-15.8-27.1 13.7-1 22.6-3.5 30.6-2 41.3 7.8 72.4 39.9 79.2 80.1 6.6 39.6-13.8 81.8-54 103-53.1 28-110 33.6-166.6 13.7-99.5-35-124.2-140.1-53.6-218.5 28.9-32.1 65.7-49.5 105.9-61 119.6-34.1 236.8 36.4 268.2 130.8 24.5 73.6 44.6 147.9 44 226.4-.1 10.8 2.9 21.6 5 36.4 22.5-14.8 18.1-32.1 17.6-46.9-2.5-83.1-15.6-163.6-51.2-240.3-15.6-33.6-33.8-63-62.5-86-55.1-44.1-118.2-59.3-187.4-53.1-144.7 13-254.5 125.8-212.7 299.3 6.7 27.6 21.6 55.7 40.1 77zM526.7 487c0 32.6-22.9 55.4-55.1 54.7-31.5-.6-59.1-24-57.7-48.9 1.5-26.4 38.6-57.3 68.1-56.7 26.3.6 44.8 21.7 44.7 50.9z"/>
</svg>
