<svg id="レイヤー_1" xmlns="http://www.w3.org/2000/svg" viewBox="0 0 1024 1024">
    <style>
        .st0{fill:none}
    </style>
    <path class="st0" d="M-4.8 623.1c-7.4-.2-16.7 7.6-17 14.2-.3 6.2 6.5 12.1 14.4 12.2 8 .2 13.8-5.5 13.8-13.7-.1-7.3-4.7-12.5-11.2-12.7zM-167.3 584.2c-25.1-21.8-64-19-94.5 6.7-30.1 25.4-25.9 59.8 10.1 75.8 10.7 4.7 22.8 6.3 38.6 10.4 14.3-6.5 33.2-11 46.9-22 26.6-21.4 24.8-48.5-1.1-70.9zM901 720.5c-16.1-29.6-44.4-36.6-69.7-14.5-17.3 15.1-28.3 37.4-41.8 56.7-6.5 9.2-10.3 23.5-19 27.4-18.4 8.3-21.9 21.5-21.5 38.4 1.1 47.3-4.2 96 19.5 139.4 10.4 19.2 24.8 38.7 42.3 51 29.8 20.8 67.3 4.3 83.5-33.8 20.1-47.3 26.4-97.3 27.3-148.4-1.3-22.6-.9-45.4-4.4-67.6-2.6-16.6-8.1-33.7-16.2-48.6zM195.1 785.5c-30.2-1.4-67.8 33.4-66.9 62 .8 23.6 25 45.3 51.4 45.9 31.3.8 60.5-26.2 60.9-56.3.5-26.5-20.7-50.5-45.4-51.6zM117.4 595.4c13.8.8 28.7-12.9 28.9-26.6.2-14.5-16-32.9-35.4-32.5-5.5 7.8-15.5 17.9-20.1 30.1-4 10.7 14.2 28.2 26.6 29z"/>
    <path d="M759.4 174.8c-6.7-12.8-24.9-11.5-46.4 1.7-4.5 2.8-9.1 5.7-13 9.2-33.2 29.2-64.7 60.3-80.7 102.5-8.5 22.3-22.7 34.5-44.4 41.6-21.5 7-43.2 10.4-56.1 32.5-7.6 13-16.3 35.7 1.2 56.2 21.8 25.5 46.6 30.8 75.4 38.2 31.5 8.1 60 21.6 83.1 43.8 27.4 26.4 27.4 59.1-2.5 83.1-20.2 16.2-45.1 29.5-70.1 36.3-40.8 11-82.8 22.5-124.1 22.7-35.7.2-67.9-11.1-100.5-16.7-5.2-.9-10.3-2.8-15.3-4.7-41.8-16.4-66.4-45.8-65.2-77.5 1.2-31.5 36.1-70 74.1-80.8 16.6-4.7 46.3-12.3 46.3-12.3 18.7-5.5 35.2-15.4 50.6-33.4 17.6-20.6 8.8-43.2 1.2-56.2-12.8-22.1-33.9-28-56.1-32.5-18.2-3.7-24.9-1.7-24.9-1.7-16.8-18-32.4-31.3-37.8-24-6.8 9.3 4.5 17.3 16.8 26.8 0 0-22.2 8.7-29 12.4-20.4 11.1-28 39-16 62.8 3.5 6.9 16.2 11.3 22.5 16 5.5 4.1 98.2 16.8 60.2-68.3 32 11.2 53.7 26.8 49.2 43-5.1 18.3-24 29.7-42 36.6-7.3 2.8-46.2 8.6-70.4 18.5-11.6 4.8-33.7 18.9-42.8 26.4-29.7 24.8-44.9 56.8-40.7 95.1 6.4 58.3 30.2 109.8 83.2 138.2 104.3 55.9 210.1 52.8 311.6-8.4 48.6-29.3 72.7-76.7 76.8-133.3 3.5-48.7-21.9-88.6-66.8-107.4-9.3-3.9-18.3-8.3-30.3-13.8-24.3-8.4-53.2-11.1-60.5-13.9-18-7-36.1-18.6-42-36.6-4.5-13.5 17.2-31.9 49.2-43-38 85.1 54.6 72.4 60.2 68.3 6.3-4.7 19-9 22.5-16 12-23.8 4.4-51.7-16-62.8-36.3-19.7-19.7-26 7.3-59.5 23.3-28.9 53-49 82.2-72 12-9.5 30.8-16.3 20-37.1zM367.7 405.3c-13.8.8-28.6-10.5-28.8-24.3-.2-14.5 24.7-33.2 44-32.8 5.5 7.8 11.4 17 13.4 29.9 4 26-16.2 26.4-28.6 27.2zm285.4-22.9c-.2 13.8-15 25.1-28.8 24.3-12.4-.8-32.6-1.2-28.6-27.2 2-12.8 10.5-21.7 16-29.6 19.4-.4 41.6 18 41.4 32.5z"/>
</svg>
