<svg xmlns="http://www.w3.org/2000/svg" viewBox="0 0 1024 1024">
    <path d="M522.6 272c-4.3-8-6.4-14.7-6.4-20 0-4.8 1.6-7.2 4.8-7.2 3.2 0 8.4 2 15.6 6s16.1 6 26.8 6c5.3 0 11.2-.8 17.6-2.4 6.4-1.6 12.3-4 17.6-7.2s9.7-7.1 13.2-11.6 5.2-9.7 5.2-15.6c0-10.1-3.7-20.1-11.2-30s-16.5-14.8-27.2-14.8c-13.9 0-28.4 3.2-43.6 9.6-15.2 6.4-30.4 14.9-45.6 25.6-15.2 10.7-30.5 22.9-46 36.8s-30.4 28-44.8 42.4l-68.8 68c-2.1 2.1-4.8 3.9-8 5.2-3.2 1.3-5.6 2-7.2 2-4.8 0-7.2-2.4-7.2-7.2 0-4.3 2-8.8 6-13.6s7.6-9.3 10.8-13.6l56.8-72.8c2.1-2.7 5.5-8.1 10-16.4s10.3-17.7 17.2-28.4c6.9-10.7 14.7-21.9 23.2-33.6s17.6-22.5 27.2-32.4 19.7-18 30.4-24.4c10.7-6.4 21.3-9.6 32-9.6 6.9 0 14.7 1.9 23.2 5.6 8.5 3.7 17.3 8.5 26.4 14.4s18.1 12.5 27.2 20c9.1 7.5 17.3 14.9 24.8 22.4 10.7 10.7 19.3 22.7 26 36 6.7 13.3 10 28 10 44 0 13.9-2.9 25.5-8.8 34.8-5.9 9.3-12.8 16.8-20.8 22.4s-16 9.7-24 12.4c-8 2.7-13.9 4-17.6 4-10.7 0-20-1.9-28-5.6-8-3.7-14.9-11.2-20.8-22.4l-16-28.8zm125.6 609.2c-1.6 0-5.6-3.2-12-9.6-6.4-6.4-12.5-11.7-18.4-16-9.6-8-23.3-16.7-41.2-26-17.9-9.3-37.9-17.9-60-25.6-22.1-7.7-45.6-14.1-70.4-19.2-24.8-5.1-48.9-7.6-72.4-7.6-4.3 0-8 .9-11.2 2.8-3.2 1.9-6.3 3.7-9.2 5.6-2.9 1.9-5.6 3.7-8 5.6-2.4 1.9-5.2 2.8-8.4 2.8-1.6 0-2.4-1.6-2.4-4.8 0-1.6 1.6-4.5 4.8-8.8L377 722c4.3-5.9 8.9-10.1 14-12.8 5.1-2.7 10.3-4 15.6-4 25.6 0 49.3 3.9 71.2 11.6s41.6 18.3 59.2 31.6c8.5 6.4 17.3 15.6 26.4 27.6s18.1 21.7 27.2 29.2l33.6 28V700.4h24v156c1.1 1.6 2.5 3.7 4.4 6.4 1.9 2.7 2.8 4.5 2.8 5.6s-.8 3.5-2.4 7.2c-1.6 3.7-3.2 5.6-4.8 5.6z"/>
</svg>
