<svg xmlns="http://www.w3.org/2000/svg" viewBox="0 0 1024 1024">
    <path d="M289 783.6c12.5-12.5 18.8-22.6 18.8-30.4 0-6.3-1.9-10.8-5.6-13.5-3.8-2.5-8.1-3.8-13.1-3.8v47.7zm-70.5-284.7L185.9 479c-22-13.3-33-23.9-33-31.9 0-7.8 7-22.3 21-43.5l63-94.9 40.5 23.3 20.3 12c11.8 6.8 21.8 10.1 30 10.1 1.5 0 2.9-.1 4.1-.4l13.5-1.9c0 8.8-5.1 21.1-15.4 37.1s-20.5 24.8-30.8 26.3c-1.5.3-3.1.4-4.9.4-9.5 0-21.4-4.3-35.6-12.8l-25.5-14.6-16.1 28.1 72 42.4v225c18.8 0 32.8 6.3 42 18.8 9.5 12.5 14.3 25.6 14.3 39.4 0 14.3-2.1 28.2-6.4 41.8S318 826.6 289 871.3h-70.5V498.9zM398.4 244.2h187.5c-24.3-19.3-46.5-31.7-66.8-37.3s-41.7-8.4-64.5-8.4c-37.5-.1-56.2 15.2-56.2 45.7zm231-27V110.7h50.3v168.8c0 12.5-12.5 18.8-37.5 18.8H398.4c-36 0-54-18-54-54 0-64 36.8-96 110.3-96 58.9-.1 117.2 22.9 174.7 68.9z"/>
</svg>
