<svg xmlns="http://www.w3.org/2000/svg" viewBox="0 0 1024 1024">
    <path d="M289 783.6c12.5-12.5 18.8-22.6 18.8-30.4 0-6.3-1.9-10.8-5.6-13.5-3.8-2.5-8.1-3.8-13.1-3.8v47.7zm-70.5-284.7L185.9 479c-22-13.3-33-23.9-33-31.9 0-7.8 7-22.3 21-43.5l63-94.9 40.5 23.3 20.3 12c11.8 6.8 21.8 10.1 30 10.1 1.5 0 2.9-.1 4.1-.4l13.5-1.9c0 8.8-5.1 21.1-15.4 37.1s-20.5 24.8-30.8 26.3c-1.5.3-3.1.4-4.9.4-9.5 0-21.4-4.3-35.6-12.8l-25.5-14.6-16.1 28.1 72 42.4v225c18.8 0 32.8 6.3 42 18.8 9.5 12.5 14.3 25.6 14.3 39.4 0 14.3-2.1 28.2-6.4 41.8S318 826.6 289 871.3h-70.5V498.9zM465.4 151.5h187.5c-24.3-16.7-46.5-27.5-66.8-32.3s-41.8-7.3-64.5-7.3c-37.5-.1-56.2 13.1-56.2 39.6zm281.2 15.3c28 15.4 42 42.2 42 80.3v682.6c0 54.2-56.3 81.3-168.8 81.3S451 983.9 451 929.7v-97.5h70.5v97.5c0 23 32.8 34.5 98.3 34.5s98.3-11.5 98.3-34.5V247c0-32.5-15.5-48.8-46.5-48.8H465.4c-36 0-54-15.6-54-46.8 0-55.5 36.8-83.2 110.3-83.2 27.3 0 54.3 4.2 81 12.7V19.5H653v82.2c14.8 7.6 29.3 16.4 43.5 26.3V35.7h50.3v131.1z"/>
</svg>
