<svg xmlns="http://www.w3.org/2000/svg" viewBox="0 0 1024 1024">
    <path d="M823 45.2c37 0 67.6 13.3 91.8 39.8s44.1 63.4 59.8 110.8l-37 15.5c-11.7-23.3-25.3-40.8-41-52.5s-31.7-17.5-48-17.5c-29.3 0-50.7 10.5-64 31.5-13.3 21-23 59.5-23 115.5 0 35 .7 71.4 4 109.3 1.4 43.8 6.3 83.9 9.5 147.8 3.5 71.3 7 128.6 6.7 178.1-.7 86.7-15.5 174.5-26.3 225.9l-42.8-7.2c3-32 5.9-58 7.5-110.3 1.5-49.3.2-79.4-3.7-123.1-3.8-43.7-11.7-94.9-19.3-159.9-7.3-64.3-15.2-100.5-21.5-159.3-4.5-41.8-5.5-83.3-5.5-124.3 0-69.7 11.6-123.8 34.8-162.3s62.3-57.8 118-57.8z"/>
</svg>
