<svg xmlns="http://www.w3.org/2000/svg" viewBox="0 0 1024 1024">
    <path d="M793.8 296.3c34.2-1.8 59.7 1.2 76.5 9s24.9 16.5 24.3 26.1c0 11.4-11.1 19.2-33.3 23.4-21 3-103.5.6-247.5-7.2-15-1.2-23.4.3-25.2 4.5-1.2 4.8 3.9 16.5 15.3 35.1 7.8 13.8 12.6 32.4 14.4 55.8v6.3c-1.2 111.6-17.1 171.9-47.7 180.9-8.4 1.2-31.8-3.6-70.2-14.4-65.4-21-118.2-16.2-158.4 14.4-28.2 22.8-42 48-41.4 75.6 0 29.4 15.3 55.8 45.9 79.2 45 36 101.1 54.3 168.3 54.9 96.6-4.2 192-28.2 286.2-72 18-10.2 28.8-12.3 32.4-6.3 3 7.2-5.7 19.8-26.1 37.8-44.4 31.2-89.4 54.3-135 69.3-57 18-109.2 27.3-156.6 27.9-89.4 0-160.2-20.7-212.4-62.1-45-38.4-67.5-81.9-67.5-130.5 0-46.2 21.9-86.7 65.7-121.5 42-32.4 100.2-45.6 174.6-39.6 27.6 3.6 46.2 3.6 55.8 0 10.2-5.4 17.1-12 20.7-19.8 3.6-8.4 5.4-18.9 5.4-31.5 0-10.8.3-27 .9-48.6 2.4-59.4-12.6-89.1-45-89.1-59.4-.6-130.8 9-214.2 28.8-29.4 6.6-51.3 10.2-65.7 10.8-16.2-.6-37.8-13.8-64.8-39.6-15.6-15.6-21.6-26.4-18-32.4 2.4-2.4 22.8 0 61.2 7.2 42 4.2 163.8-3.6 365.4-23.4 100.8-5.4 172.8-8.4 216-9z"/>
    <circle cx="499" cy="162" r="57"/>
</svg>
