<svg xmlns="http://www.w3.org/2000/svg" viewBox="0 0 2048 2048"><title>control-box2</title><path d="M1983 240V65h-175v100h75v75h100zM598 65H374v100h224zm358 0H733v100h224zm358 0h-223v100h224zm358 0h-222v100h224zM240 65H65v175h100v-75h75V65zM65 1450v224h100v-224zm0-358v224h100v-225zm0-358v223h100V733zm0-358v222h100V374zM65 1808v175h175v-100h-75v-75H65zM1450 1983h224v-100h-224zm-358 0h224v-100h-225zm-358 0h223v-100H733zm-358 0h222v-100H374zM1808 1983h175v-175h-100v75h-75v100zM1983 598V374h-100v224zm0 358V733h-100v224zm0 358v-223h-100v224zm0 358v-222h-100v224z"/></svg>