<svg xmlns="http://www.w3.org/2000/svg" viewBox="0 0 1024 1024">
    <path d="M600.7 836.4v-19c17 0 30.4-1.1 40.3-3.2 9.8-2.2 17.3-6.3 22.5-12.5s8.4-14.7 9.8-25.7c1.3-11 2-25.3 2-42.9V546.6c0-20.6-1.2-38.5-3.5-53.6s-6.3-27.5-11.9-37.2c-5.6-9.6-12.9-16.8-21.9-21.5s-20.2-7-33.8-7c-19.2 0-38.7 5.3-58.4 16-19.7 10.6-39.5 26.9-59.4 48.9v240.9c0 18 .8 32.4 2.3 43.4s4.9 19.5 10.3 25.4c5.3 6 12.9 10.1 22.8 12.2 9.8 2.2 23.1 3.2 39.8 3.2v19h-228v-19c14.3 0 26-1.1 35-3.3s16-6.4 21-12.8c5-6.3 8.4-15 10.3-26 1.8-11 2.8-25.2 2.8-42.5V562.4c0-27.3-.3-48.8-1-64.5s-1.6-27.7-2.8-36c-1.2-8.3-2.7-14-4.5-17s-4.1-5.5-6.8-7.5c-11-9.7-29-9.3-54 1l-8-18 140.4-55h20.6l-.4 95.5c54.4-63.7 105.8-95.5 154.2-95.5 22.4 0 41.2 4.1 56.6 12.3 15.3 8.2 27.7 19.8 37 34.8s16.1 33 20.3 54 6.3 44.3 6.3 70V733c0 17 .8 31 2.5 42s5 19.6 10 25.8 12.2 10.5 21.5 13 21.7 3.8 37 3.8v19H600.7v-.2zM162.2 211.2c0-9.7 2.2-18.3 6.5-25.6 4.3-7.4 9.8-13.5 16.3-18.3 6.5-4.9 13.6-8.5 21.3-10.8s15-3.5 22.1-3.5c10 0 20.2 2.3 30.6 7s19.7 11.3 28.1 20 15.1 19.1 20.3 31.3 7.8 26 7.8 41.3c0 17.4-2.3 33.1-7 47.3s-10.8 26.8-18.3 37.8-16 20.8-25.3 29.3-18.9 15.8-28.6 21.8c-9.7 6-19.1 10.9-28.1 14.8s-16.7 6.9-23.1 9.3v-22c9.2-5 18.7-10.8 28.7-17.3s19.3-13.8 27.7-22c8.5-8.2 15.4-17.5 20.8-28s8.1-22.4 8.1-35.8c0-6.7-.8-12-2.3-16s-3.3-7.1-5.3-9.3c-2-2.2-4.1-3.7-6.3-4.5-2.2-.8-4-1.3-5.3-1.3-4.4 0-10.1 1.3-17.2 4s-14 4-20.8 4c-5.8 0-11.6-1.2-17.5-3.5s-11.3-5.9-16.2-10.5-9-10.4-12.2-17.1c-3.2-6.5-4.8-14.1-4.8-22.4z"/>
</svg>
