<svg xmlns="http://www.w3.org/2000/svg" viewBox="0 0 1024 1024">
    <path d="M95 511.7c0-57.2 18.8-106.9 56.5-149.1 0-53.9 21.8-102.7 65.3-146.6 43.4-43.7 92-65.6 145.9-65.6C405.3 112.1 455.1 93 512.3 93s106.9 18.8 149.1 56.5c53.9 0 102.7 21.8 146.6 65.3 43.7 43.4 65.6 92 65.6 145.9 38.2 42.5 57.4 92.4 57.4 149.6s-18.8 106.9-56.5 149.1c0 53.9-21.8 102.7-65.3 146.6-43.4 43.7-92 65.6-145.9 65.6-42.5 38.2-92.4 57.4-149.6 57.4-57.2 0-106.9-18.8-149.1-56.5-53.9 0-102.7-21.8-146.6-65.3-43.7-43.4-65.6-92-65.6-145.9C114.1 618.7 95 568.9 95 511.7zm57.4-.7c0 21.5 4.1 42.6 12.3 63.3 11.4-31.9 28.9-59.6 52.6-83.1 44.3-44.2 97-66.3 158-66.3 33.9 0 65.8 7.3 95.8 21.9-7.6-16.7-16.6-31.2-26.9-43.7-33.3-38.5-73.5-57.7-120.5-57.7s-87.3 15.5-120.9 46.6-50.4 70.7-50.4 119zm56.9 137.9c0 46 16.1 85.2 48.3 117.5 16 16 34.1 28.2 54.3 36.4-15-30.8-22.4-64.7-22.4-101.7 0-43.8 13.7-85.2 41-124.2 27.4-39 63.2-66.5 107.5-82.4-19.8-7.9-40.6-11.8-62.5-11.8-46.2 0-85.4 16.2-117.7 48.6s-48.5 71.6-48.5 117.6zm11.8-339c30.8-15 64.7-22.4 101.7-22.4 43.8 0 85.2 13.7 124.2 41 39 27.4 66.5 63.2 82.4 107.5 7.9-19.8 11.8-40.6 11.8-62.5 0-46.2-16.2-85.4-48.6-117.7s-71.5-48.5-117.6-48.5-85.2 16.1-117.5 48.3c-15.9 15.9-28.1 34-36.4 54.3zm126.3 390.3c0 47 15.5 87.3 46.6 120.9s70.7 50.4 119.1 50.4c21.5 0 42.6-4.1 63.3-12.3-31.9-11.4-59.6-28.9-83.1-52.6-44.2-44.3-66.3-97-66.3-158 0-33.9 7.3-65.8 21.9-95.8-16.7 7.6-31.2 16.6-43.7 26.9-38.6 33.4-57.8 73.5-57.8 120.5zm102.3-537.5c31.9 11.4 59.6 28.9 83.1 52.6 44.2 44.3 66.3 97 66.3 158 0 33.9-7.3 65.8-21.9 95.8 16.7-7.6 31.2-16.6 43.7-26.9 38.5-33.3 57.7-73.5 57.7-120.5s-15.5-87.3-46.6-120.9-70.7-50.4-119.1-50.4c-21.4 0-42.5 4.1-63.2 12.3zm35.1 485.8c0 46.2 16.2 85.4 48.6 117.7s71.5 48.5 117.6 48.5 85.2-16.1 117.5-48.3c16-16 28.2-34.1 36.4-54.3-30.8 15-64.7 22.4-101.7 22.4-43.8 0-85.2-13.7-124.2-41s-66.5-63.2-82.4-107.5c-7.9 19.8-11.8 40.6-11.8 62.5zm70.1-73.3c7.6 16.7 16.6 31.2 26.9 43.7 33.3 38.5 73.5 57.7 120.5 57.7s87.3-15.5 120.9-46.6 50.4-70.7 50.4-119.1c0-21.5-4.1-42.6-12.3-63.3-11.4 31.9-28.9 59.6-52.6 83.1-44.3 44.2-97 66.3-158 66.3-33.8.1-65.8-7.2-95.8-21.8zm33.1-47.8c19.8 7.9 40.6 11.8 62.5 11.8 46.2 0 85.4-16.2 117.7-48.6s48.5-71.5 48.5-117.6-16.1-85.2-48.3-117.5c-16-16-34.1-28.2-54.3-36.4 15 30.8 22.4 64.7 22.4 101.7 0 43.8-13.7 85.2-41 124.2s-63.1 66.5-107.5 82.4z"/>
</svg>
