<svg xmlns="http://www.w3.org/2000/svg" viewBox="0 0 1024 1024">
    <path d="M601.5 670c-17.3 0-31.2-6-41.5-18s-15.5-27.3-15.5-46c0-15.3 3.2-32 9.5-50s13.5-31 21.5-39c0 5.3 4.8 12.2 14.5 20.5s21.5 12.5 35.5 12.5c5.3 0 13.7-.3 25-1s20-1 26-1c22.7 0 38.8 6.8 48.5 20.5s14.5 29.2 14.5 46.5c0 24.7-5.8 66.2-17.5 124.5S700.5 827 692.5 827c0-.7.5-4.2 1.5-10.5s2.2-14.7 3.5-25 2-20.2 2-29.5c0-34.7-6.8-58.8-20.5-72.5S649.5 669 631.5 669c-3.3 0-8.3.2-15 .5s-11.7.5-15 .5zm-260 0c-17.3 0-31.2-6-41.5-18s-15.5-27.3-15.5-46c0-15.3 3.2-32 9.5-50s13.5-31 21.5-39c0 5.3 4.8 12.2 14.5 20.5s21.5 12.5 35.5 12.5c5.3 0 13.7-.3 25-1s20-1 26-1c22.7 0 38.8 6.8 48.5 20.5s14.5 29.2 14.5 46.5c0 24.7-5.8 66.2-17.5 124.5S440.5 827 432.5 827c0-.7.5-4.2 1.5-10.5s2.2-14.7 3.5-25 2-20.2 2-29.5c0-34.7-6.8-58.8-20.5-72.5S389.5 669 371.5 669c-3.3 0-8.3.2-15 .5s-11.7.5-15 .5zM435 394c-17.3 0-31.2-6-41.5-18S378 348.7 378 330c0-15.3 3.2-32 9.5-50s13.5-31 21.5-39c0 5.3 4.8 12.2 14.5 20.5S445 274 459 274c5.3 0 13.7-.3 25-1s20-1 26-1c22.7 0 38.8 6.8 48.5 20.5 9.7 13.7 14.5 29.2 14.5 46.5 0 24.7-5.8 66.2-17.5 124.5S534 551 526 551c0-.7.5-4.2 1.5-10.5s2.2-14.7 3.5-25 2-20.2 2-29.5c0-34.7-6.8-58.8-20.5-72.5S483 393 465 393c-3.3 0-8.3.2-15 .5-6.7.3-11.7.5-15 .5z"/>
</svg>
