<svg xmlns="http://www.w3.org/2000/svg" viewBox="0 0 1024 1024">
    <path d="M547.296 952.926h-91v-400.2h91z"/>
    <path d="M301.635 848.261v-91h400.2v91zM207.3 415c0-79 14.3-137.3 43-175 28.7-37.7 68.7-56.5 120-56.5 28.3 0 52.9 5.7 73.8 17 20.8 11.3 36.1 25.8 45.8 43.5 11-36.3 30.6-64.9 58.8-85.8 28.2-20.8 61.9-31.3 101.3-31.3 62 0 108.9 19.6 140.8 58.8 31.8 39.2 47.8 95.8 47.8 169.8v304h-631V415zm340 164.5h200V344c0-91.3-32.8-137-98.5-137-33 0-58.2 12.5-75.5 37.5-17.3 25-26 60.7-26 107v228zm-249 0h158v-178c0-49-6.5-84.3-19.5-106-13-21.7-32.8-32.5-59.5-32.5-27.7 0-47.8 11.3-60.3 34s-18.8 59.8-18.8 111.5v171z"/>
</svg>
