<svg xmlns="http://www.w3.org/2000/svg" viewBox="0 0 1024 1024">
    <path d="M348.54 221.58c-16.8 5.6-41.6 20.8-54.4 33.6-37.6 36-102.4 143.2-128.8 213.6-23.2 61.6-24 71.2-24.8 184.8 0 136 5.6 156.8 56.8 192 28.8 19.2 36 20 136.8 20 108.8 0 132-4.8 152-33.6 14.4-20 20-18.4 36.8 10.4l14.4 24 156-2.4 156-2.4 24-27.2c23.2-25.6 24-28.8 20.8-92-4-98.4-37.6-151.2-104-161.6-39.2-6.4-64 0-94.4 25.6-31.2 26.4-55.2 72.8-61.6 119.2-4 30.4-7.2 36-23.2 36-31.2 0-61.6-16-96-48.8l-32.8-32-12.8 32c-7.2 17.6-20 36-28.8 40-20 11.2-167.2 11.2-198.4.8-32.8-12-45.6-38.4-38.4-78.4 4-27.2 8.8-33.6 28-37.6 42.4-9.6 185.6-111.2 248-176.8 75.2-78.4 92-111.2 80-154.4-10.4-40-36-72-68.8-85.6-33.6-14.4-101.6-13.6-142.4.8zm113.6 70.4c32 38.4 16 80-59.2 154.4s-195.2 156-195.2 132.8c0-17.6 52-156.8 66.4-179.2 9.6-14.4 42.4-46.4 72.8-72 42.4-35.2 61.6-46.4 80.8-46.4 14.4 0 29.6 4.8 34.4 10.4zm369.6 381.6c20 20 20.8 49.6.8 67.2-8 8-34.4 16-57.6 18.4-35.2 3.2-46.4 1.6-62.4-11.2-18.4-15.2-19.2-17.6-8.8-41.6 5.6-13.6 17.6-30.4 27.2-36.8 24.8-17.6 81.6-15.2 100.8 4z"/>
</svg>
