<svg xmlns="http://www.w3.org/2000/svg" viewBox="0 0 1024 1024">
    <path d="M415.74 263.18c-46.4 7.2-90.4 20-132 37.6-43.2 20-43.2 20-35.2 44.8 7.2 18.4 12.8 23.2 22.4 20 94.4-39.2 126.4-45.6 224.8-46.4 89.6-1.6 104 .8 138.4 17.6 43.2 20.8 56 38.4 52 75.2-4 40.8-31.2 48.8-104 32.8-100.8-22.4-135.2-23.2-172.8-4-17.6 8.8-38.4 24.8-44.8 34.4-17.6 24.8-16 83.2 3.2 124.8 24 52.8 51.2 60.8 180 53.6 95.2-4.8 105.6-4 116.8 9.6 17.6 20 24.8 61.6 12.8 77.6-23.2 31.2-180.8 22.4-272.8-15.2-65.6-28-63.2-28-68.8 6.4-5.6 30.4-4.8 30.4 32.8 50.4 63.2 31.2 122.4 43.2 221.6 43.2 105.6 0 144-8.8 175.2-41.6 19.2-20 22.4-29.6 22.4-69.6 0-56-15.2-82.4-60.8-104.8-28.8-15.2-44.8-16.8-163.2-15.2-96.8 1.6-134.4-.8-144-8.8-16.8-13.6-15.2-50.4 3.2-72.8 14.4-18.4 15.2-18.4 106.4-8.8 143.2 15.2 208 12.8 233.6-7.2 18.4-14.4 20.8-22.4 20.8-64 0-72.8-26.4-111.2-96-142.4-57.6-24.8-196.8-39.2-272-27.2z"/>
</svg>
