<svg xmlns="http://www.w3.org/2000/svg" viewBox="0 0 1024 1024">
    <path d="M464.48 106.92c-57.6 12-98.4 41.6-122.4 88.8-44.8 91.2-34.4 155.2 33.6 204 62.4 44 159.2 28 180-29.6 12-32.8-1.6-78.4-32-108.8-27.2-27.2-28-27.2-86.4-24-58.4 2.4-58.4 2.4-48-14.4 16.8-24.8 46.4-35.2 100-35.2 52.8 0 104.8 20.8 119.2 47.2 4 8.8 8 32 8 52v36.8h62.4l3.2-48c4-60.8 23.2-84 70.4-84 41.6 0 60 19.2 84.8 87.2 23.2 64.8 24 116.8 4 218.4-16 82.4-28 102.4-73.6 115.2-27.2 8.8-35.2 6.4-104-24.8-41.6-19.2-104-49.6-139.2-68.8-122.4-65.6-203.2-88-282.4-78.4-53.6 6.4-81.6 29.6-110.4 89.6-26.4 55.2-27.2 88.8-3.2 143.2 15.2 36.8 23.2 44.8 60.8 63.2 56.8 27.2 181.6 44.8 324 45.6h108.8l-11.2 31.2c-21.6 64 16.8 96 122.4 100.8 63.2 3.2 65.6 2.4 94.4-23.2 40.8-36 55.2-66.4 50.4-108.8-4.8-44.8-24-72.8-59.2-88-25.6-10.4-48-10.4-173.6-1.6-192 12.8-372 5.6-429.6-16.8-65.6-26.4-78.4-56.8-47.2-108.8 20-32 36.8-37.6 100-37.6 77.6.8 137.6 16.8 244 66.4 112.8 52.8 204.8 79.2 261.6 75.2 72.8-5.6 106.4-66.4 124-224 8-68.8 7.2-93.6-4-162.4-15.2-94.4-36-147.2-62.4-161.6-30.4-16-72.8-23.2-106.4-17.6-24.8 4-36 11.2-55.2 39.2-13.6 19.2-27.2 35.2-29.6 35.2s-11.2-11.2-18.4-24c-8-13.6-24-28.8-36-35.2-28-14.4-86.4-20.8-121.6-13.6zm33.6 190.4c19.2 17.6 19.2 55.2-.8 66.4-22.4 12-58.4 9.6-79.2-4.8-19.2-13.6-24-49.6-8-65.6 14.4-14.4 70.4-12 88 4zm304.8 467.2c33.6 41.6 0 95.2-60 95.2-44 0-70.4-17.6-70.4-46.4 0-26.4 19.2-56 43.2-66.4 25.6-10.4 71.2-1.6 87.2 17.6z"/>
</svg>
