<svg xmlns="http://www.w3.org/2000/svg" viewBox="0 0 1024 1024">
    <path d="M285.34 194.38c-16.8 4-40 12-52.8 19.2-42.4 21.6-63.2 113.6-36.8 164 15.2 29.6 58.4 62.4 89.6 68.8 35.2 7.2 90.4-20 133.6-64.8l35.2-37.6 43.2 32.8c23.2 17.6 64.8 56.8 92 87.2l49.6 55.2-22.4 21.6c-12 11.2-24.8 20.8-28 20.8-4 0-20.8-16-38.4-36-56-64-129.6-67.2-181.6-8-20.8 24-24.8 35.2-24.8 68.8 0 21.6 5.6 51.2 12.8 64 16 32 67.2 54.4 121.6 55.2h41.6v81.6l-165.6-3.2c-181.6-2.4-184-3.2-237.6-53.6l-30.4-28.8 3.2 57.6c4.8 68 19.2 94.4 60.8 112.8 24.8 11.2 67.2 13.6 256 16 216.8 2.4 227.2 2.4 222.4-12-2.4-8-8-64.8-12.8-125.6l-8.8-112 34.4-34.4c36.8-37.6 47.2-40.8 63.2-21.6 16.8 20.8 84.8 51.2 112.8 51.2 76.8 0 132.8-100 99.2-178.4-20-47.2-36.8-56-104-52-58.4 2.4-61.6 4-95.2 36.8l-34.4 33.6-15.2-25.6c-44.8-76.8-216.8-224-292.8-250.4-36.8-13.6-45.6-13.6-89.6-3.2zm104.8 104c20.8 14.4 39.2 27.2 41.6 28.8 9.6 8.8-49.6 50.4-72 50.4-53.6 0-96-42.4-80.8-82.4 14.4-37.6 52.8-36 111.2 3.2zm456 168.8c17.6 17.6 11.2 54.4-13.6 79.2-28 28-57.6 29.6-96.8 6.4l-28-17.6 42.4-38.4c44-40 76-49.6 96-29.6zm-344 96c5.6 5.6 9.6 19.2 9.6 31.2 0 26.4-42.4 64.8-67.2 61.6-14.4-2.4-17.6-8.8-19.2-40.8-1.6-21.6 1.6-44 7.2-50.4 11.2-13.6 56-15.2 69.6-1.6z"/>
</svg>
