<svg xmlns="http://www.w3.org/2000/svg" viewBox="0 0 1024 1024">
    <path d="M807 496c0 8.7-.8 18-2.3 28s-4.4 20.2-8.8 30.5-10.5 20.4-18.5 30.3S759 603.3 746 611c-19 11-41 21-66 30s-51.6 16.8-79.8 23.3-57.1 11.5-86.8 15c-29.7 3.5-58.5 5.3-86.5 5.3-66.7 0-118-9.8-154-29.5s-54-48.5-54-86.5c0-10.3 2.3-21.8 6.8-34.5s9.7-24.5 15.5-35.5c5.8-11 11.3-20.2 16.5-27.5s8.6-11 10.3-11c1.3 0 2.7.5 4 1.5s2 2.2 2 3.5c0 .7-.2 1.2-.5 1.5-1.3 2.7-3.3 6-5.8 10s-4.9 8.6-7.3 13.8-4.3 10.9-6 17.3-2.5 13.2-2.5 20.5c0 11.3 2.8 21.5 8.3 30.5s12.8 16.8 22 23.5 19.8 12.3 32 16.8 25 8.2 38.5 11 27.3 4.9 41.5 6.3 27.8 2 40.8 2c24.7 0 50.3-1.4 77-4.3 26.7-2.8 52.9-6.8 78.8-11.8s50.3-10.7 73.5-17 43.6-12.9 61.3-19.8 31.7-13.8 42-20.8 15.5-13.7 15.5-20c0-3.3-1.5-7.6-4.5-12.8s-6.4-10.8-10.3-16.8-7.3-12-10.3-18-4.5-11.3-4.5-16c0-3.3.9-7.8 2.8-13.3s3.8-11.3 6-17.3 4.4-11.8 6.8-17.3 4-9.6 5-12.3c5 6 9.6 13.1 13.8 21.3s7.7 16.6 10.5 25.3 5 17.3 6.5 25.8 2.1 16.1 2.1 22.8z"/>
    <path d="M715 440.3c0 6-.5 12.4-1.5 19.2-1 6.9-3 13.9-6 21s-7.2 14-12.7 20.8c-5.5 6.8-12.7 12.8-21.6 18-13.1 7.6-28.2 14.4-45.4 20.6-17.2 6.2-35.4 11.5-54.8 16s-39.2 7.9-59.6 10.3c-20.4 2.4-40.2 3.6-59.4 3.6-45.8 0-81.1-6.8-105.8-20.3s-37.1-33.3-37.1-59.4c0-7.1 1.5-15 4.6-23.7 3.1-8.7 6.6-16.8 10.7-24.4 4-7.6 7.8-13.9 11.3-18.9 3.6-5 5.9-7.6 7-7.6.9 0 1.8.3 2.7 1 .9.7 1.4 1.5 1.4 2.4 0 .5-.1.8-.3 1-.9 1.8-2.2 4.1-4 6.9-1.7 2.7-3.4 5.9-5 9.4s-3 7.5-4.1 11.9c-1.1 4.4-1.7 9-1.7 14.1 0 7.8 1.9 14.8 5.7 21 3.8 6.2 8.8 11.6 15.1 16.1 6.3 4.6 13.6 8.4 22 11.5 8.4 3.1 17.2 5.6 26.5 7.6 9.3 1.9 18.8 3.4 28.5 4.3 9.7.9 19.1 1.4 28 1.4 16.9 0 34.6-1 52.9-2.9 18.3-1.9 36.4-4.6 54.1-8.1 17.8-3.4 34.6-7.3 50.5-11.7s29.9-8.9 42.1-13.6c12.1-4.7 21.8-9.4 28.9-14.3s10.7-9.4 10.7-13.7c0-2.3-1-5.2-3.1-8.8s-4.4-7.4-7-11.5c-2.6-4.1-5-8.2-7-12.4-2.1-4.1-3.1-7.8-3.1-11 0-2.3.6-5.3 1.9-9.1 1.3-3.8 2.6-7.7 4.1-11.9 1.5-4.1 3-8.1 4.6-11.9 1.6-3.8 2.7-6.6 3.4-8.4 3.4 4.1 6.6 9 9.4 14.6 2.9 5.6 5.3 11.4 7.2 17.4 1.9 6 3.4 11.9 4.5 17.7.9 6 1.4 11.2 1.4 15.8z"/>
    <path d="M493.2 355.7c0 1.3-1.5 4.6-4.5 9.8s-6.4 10.7-10.3 16.5c-3.8 5.8-7.7 11.1-11.5 15.8-3.8 4.7-6.4 7-7.8 7-.7 0-3.4-1.5-8.3-4.5s-10-6.4-15.5-10.3c-5.5-3.8-10.4-7.6-14.8-11.3s-6.5-6.2-6.5-7.5 1.6-4.6 4.8-9.8 6.7-10.7 10.5-16.5 7.6-11.1 11.3-15.8 6-7 7-7c1.3 0 4.5 1.6 9.5 4.8s10.2 6.8 15.5 10.8 10.1 7.8 14.3 11.5 6.3 5.8 6.3 6.5zM585.4 335.6c0 1.3-1.5 4.6-4.5 9.8-3 5.2-6.4 10.7-10.3 16.5-3.8 5.8-7.7 11.1-11.5 15.8-3.8 4.7-6.4 7-7.8 7-.7 0-3.4-1.5-8.3-4.5-4.8-3-10-6.4-15.5-10.3-5.5-3.8-10.4-7.6-14.8-11.3-4.3-3.7-6.5-6.2-6.5-7.5 0-1.3 1.6-4.6 4.8-9.8a692 692 0 0 1 10.5-16.5c3.8-5.8 7.6-11.1 11.3-15.8 3.7-4.7 6-7 7-7 1.3 0 4.5 1.6 9.5 4.8 5 3.2 10.2 6.8 15.5 10.8 5.3 4 10.1 7.8 14.3 11.5 4.2 3.7 6.3 5.8 6.3 6.5z"/>
</svg>
