<svg xmlns="http://www.w3.org/2000/svg" viewBox="0 0 1024 1024">
    <path d="M552.6 945.7c0 .4-.3 1.7-1 3.7s-1.4 4.4-2.3 6.9c-.9 2.6-1.8 5-2.7 7.3-1 2.3-1.7 3.7-2.3 4.3-1 1-2.3 2-4 2.9-1.6.9-3.4 1.9-5.5 3.1l-53.2 28.6c-3.5 1.9-5.9 3.3-7.1 4.2-1.2.9-2.5 1.3-3.6 1.3-1.9 0-2.9-1-2.9-3.1 0-.6.3-1.9.8-4s1.1-4.3 1.8-6.6 1.4-4.5 2.1-6.5c.7-2 1.4-3.3 2-3.8.6-.6 1.4-1.2 2.4-1.9s2.6-1.6 4.6-2.7l54.5-29.4c2.5-1.3 5.2-2.8 8-4.4 2.9-1.6 4.7-2.4 5.6-2.4 1 0 1.8.3 2.2.8.4.4.6 1 .6 1.7zM598.4 826c0 10.1-.7 18.4-2.1 24.9-1.4 6.5-3 12.3-4.9 17.5-2.6 7.3-6.8 14.5-12.5 21.6-5.7 7.1-12.5 13.4-20.3 18.9-7.8 5.5-16.6 9.9-26.4 13.3-9.7 3.4-20 5.1-30.7 5.1-9.7 0-19.1-1.6-28.3-4.9-9.2-3.3-17.4-8.1-24.5-14.5-7.1-6.4-12.9-14.1-17.2-23.2-4.4-9.1-6.6-19.5-6.6-31.2 0-8.2 1.2-16.6 3.6-25.2 2.4-8.6 5.1-16.3 8-23.3 2.9-7 5.7-12.6 8.3-17s4.2-6.6 4.6-6.6 1.1.1 1.9.4c.8.3 1.6.7 2.4 1.1.8.4 1.5 1 2.1 1.5.6.6.9 1.2.9 1.8 0 .3-.7 1.7-2.2 4.3-1.5 2.6-3.1 5.9-4.8 10.1-1.8 4.2-3.4 9-4.8 14.6-1.5 5.6-2.2 11.5-2.2 17.8 0 7.9 1.6 14.9 4.9 21.1s7.8 11.3 13.4 15.5c5.6 4.2 12.3 7.4 19.9 9.6 7.6 2.2 15.8 3.3 24.6 3.3 7 0 14.1-.8 21.2-2.3 7.1-1.5 13.7-3.5 19.8-5.8 6.1-2.3 11.4-4.8 15.9-7.4 4.5-2.6 7.8-4.9 9.9-7.1 2.8-2.9 4.9-6.4 6.5-10.5 1.5-4.1 2.3-9 2.3-14.7 0-4.1-.8-8.9-2.5-14.5s-3.7-11.1-6.2-16.7c-2.4-5.6-5.1-10.8-7.9-15.6s-5.4-8.7-7.6-11.6c-3.4-4.4-6.4-8.2-9-11.4-2.6-3.2-4-5.9-4-7.9 0-2.2.9-5.6 2.6-10.2 1.8-4.6 3.8-9.3 6-14.2 2.3-4.8 4.4-9.1 6.4-12.9 2-3.7 3.2-5.8 3.6-6.3 2.6 4.4 5.4 9.6 8.2 15.7 2.9 6.1 5.6 12.6 8.2 19.7s5.1 14.2 7.5 21.6c2.3 7.4 4.4 14.5 6.2 21.4 1.8 6.9 3.1 13.3 4.2 19.2 1 5.9 1.6 10.9 1.6 15zm-71.5-116.9c0 .6-.5 1.8-1.4 3.6-1 1.8-2.2 4-3.6 6.5-1.5 2.5-3.1 5.1-4.9 7.9-1.8 2.8-3.6 5.3-5.3 7.6-1.7 2.3-3.3 4.2-4.7 5.7-1.5 1.5-2.5 2.3-3.1 2.3-.4 0-2.3-1.1-5.6-3.2s-6.8-4.5-10.4-7.3c-3.7-2.7-7-5.3-10-7.9-3-2.6-4.5-4.2-4.5-4.9 0-.6.5-1.8 1.4-3.7 1-1.9 2.2-4.1 3.7-6.6s3.2-5.1 5.1-7.9c1.8-2.8 3.6-5.3 5.3-7.6 1.7-2.3 3.2-4.2 4.5-5.7 1.3-1.5 2.3-2.3 2.9-2.3.9 0 3 1.1 6.3 3.3s6.8 4.7 10.4 7.4c3.7 2.7 6.9 5.3 9.8 7.9 2.7 2.5 4.1 4.2 4.1 4.9z"/>
</svg>
