<svg xmlns="http://www.w3.org/2000/svg" viewBox="0 0 1024 1024">
    <path d="M641.6 267.4c0 1.8-.1 3.9-.3 6.5-.2 2.6-.7 5.1-1.5 7.5-.8 2.4-2 4.5-3.6 6.2-1.6 1.7-3.8 2.5-6.6 2.5h-8.3c-6.9 0-13-.4-18.3-1.1-5.3-.7-10.2-1.7-14.5-3-4.3-1.2-8.3-2.7-11.9-4.4-3.6-1.7-7.1-3.5-10.7-5.6-10 5.6-21.6 11.1-35 16.5s-27.4 10.3-42 14.5c-14.6 4.2-29.3 7.7-44.3 10.2-14.9 2.6-28.9 3.8-42 3.8-12.6 0-24.8-1.2-36.5-3.6-11.7-2.4-22.1-6.2-31.2-11.3-9.1-5.1-16.4-11.8-21.9-20s-8.2-18.1-8.2-29.7c0-8.3 1.4-16.3 4.3-23.8s6-14.1 9.6-19.8c3.5-5.6 6.8-10.1 9.9-13.4s4.8-4.9 5.3-4.9l6.4 4.4c0 .4-.8 1.7-2.5 3.8-1.7 2.1-3.5 4.8-5.5 8.1s-3.8 7.2-5.5 11.6c-1.7 4.5-2.5 9.2-2.5 14.2 0 5.4 1.6 10.2 4.7 14.3 3.1 4.1 7.3 7.6 12.3 10.5 5.1 2.9 10.8 5.3 17.1 7.3 6.4 1.9 12.7 3.4 19.1 4.5s12.5 1.9 18.3 2.3c5.9.4 10.8.7 14.9.7 6.4 0 13.2-.3 20.2-1s14.1-1.5 21.2-2.6 14.1-2.4 21-4c6.9-1.5 13.3-3.2 19.3-4.9 6.9-2 13-4.1 18.2-6s10.7-4.5 16.3-7.6l.7-1.3c-1.2-1-2.3-2.3-3.5-3.8-1.2-1.5-2.2-3.2-3.2-4.9-1-1.8-1.7-3.5-2.3-5.4-.6-1.8-.9-3.5-.9-4.9 0-4.8.8-10.5 2.5-16.9 1.7-6.4 3.9-13 6.7-19.8 2.8-6.7 6-13.4 9.6-19.9 3.6-6.5 7.3-12.3 11.2-17.4 3.9-5.1 7.8-9.2 11.6-12.3 3.9-3.1 7.5-4.7 10.9-4.7 3.4 0 6.7 1.1 9.9 3.2s6.2 4.9 9 8.2c2.8 3.4 5.3 7.2 7.6 11.4 2.3 4.3 4.2 8.5 5.9 12.7 1.7 4.3 3 8.3 3.8 12.2.9 3.9 1.3 7.1 1.3 9.8 0 4.3-.3 8.2-1 11.8-.7 3.6-1.5 7.1-2.6 10.4-1.1 3.4-2.5 6.8-4.2 10.4-1.7 3.6-3.5 7.5-5.4 11.8 2.3 1.6 5.9 2.7 10.5 3.4 4.7.7 10 1 16 1h8.3c2.8 0 5 .8 6.6 2.5 1.6 1.7 2.8 3.7 3.6 6.2.8 2.4 1.3 4.9 1.5 7.4.5 2.3.6 4.4.6 6.2zm-53.8-62c0-1-.6-2.7-1.9-4.9-1.2-2.3-2.9-4.5-4.8-6.8-2-2.3-4.2-4.2-6.6-5.9-2.4-1.7-4.9-2.5-7.4-2.5-1.8 0-4.1.8-7.1 2.5s-5.9 3.7-8.8 6.2-5.3 4.9-7.5 7.6c-2.1 2.6-3.2 5-3.2 7 0 2.2.6 4.1 1.8 5.8 1.2 1.7 2.8 3.3 4.9 4.7 2.1 1.5 4.7 3 7.7 4.6 3 1.6 6.3 3.4 10 5.5 8.3-5.6 14.2-10.2 17.7-13.8 3.5-3.8 5.2-7.1 5.2-10zm6.6-122.8c0 .6-.5 1.8-1.4 3.6-1 1.8-2.2 4-3.6 6.5-1.5 2.5-3.1 5.1-4.9 7.9-1.8 2.8-3.6 5.3-5.3 7.6-1.7 2.3-3.3 4.2-4.7 5.7-1.5 1.5-2.5 2.3-3.1 2.3-.4 0-2.3-1.1-5.6-3.2s-6.8-4.5-10.4-7.3c-3.7-2.7-7-5.3-10-7.9-3-2.6-4.5-4.2-4.5-4.9 0-.6.5-1.8 1.4-3.7 1-1.9 2.2-4.1 3.7-6.6s3.2-5.1 5.1-7.9c1.8-2.8 3.6-5.3 5.3-7.6 1.7-2.3 3.2-4.2 4.5-5.7s2.3-2.3 2.9-2.3c.9 0 3 1.1 6.3 3.3s6.8 4.7 10.4 7.4c3.7 2.7 6.9 5.3 9.8 7.9 2.7 2.5 4.1 4.1 4.1 4.9z"/>
    <path d="M726.5 207.8c0 10.4-1.1 19.6-3.4 27.6s-6.1 15.9-11.5 23.8c-1.8 2.6-4.7 5.7-8.9 9.2s-9.6 6.9-16.1 10.1c-6.6 3.2-14.4 5.9-23.4 8.1s-19.2 3.3-30.7 3.3h-8.1c-2.8 0-5-.8-6.6-2.5-1.6-1.7-2.8-3.7-3.6-6.2-.8-2.4-1.3-4.9-1.5-7.5-.2-2.6-.3-4.7-.3-6.5s.1-3.9.3-6.4c.2-2.5.7-4.9 1.5-7.4.8-2.4 2-4.5 3.6-6.2 1.6-1.7 3.8-2.5 6.6-2.5h8.1c13.3 0 24.8-1 34.5-2.9s17.7-4.2 24-6.9c6.3-2.7 10.9-5.6 13.8-8.6 2.9-3 4.4-5.6 4.4-7.8s-.9-4.9-2.7-8c-1.8-3.1-3.8-5.8-5.8-8-.9 2.9-2.3 6-4.2 9.2-1.9 3.2-4.3 6.2-7.1 8.8s-6.1 4.8-9.8 6.6c-3.7 1.8-7.6 2.6-11.9 2.6-4 0-7.8-.5-11.4-1.4-3.7-1-6.8-2.6-9.6-5.1-2.7-2.4-4.9-5.6-6.6-9.6-1.7-4-2.5-8.9-2.5-14.9 0-3.1.5-7 1.6-11.9s2.6-10 4.6-15.6c2-5.6 4.3-11.1 6.9-16.7 2.6-5.6 5.5-10.6 8.7-15.2 3.1-4.5 6.4-8.2 9.8-11.1 3.4-2.9 6.8-4.3 10.3-4.3 5 0 10.2 2.5 15.7 7.5s10.5 11.5 15.2 19.4c4.6 8 8.5 17 11.5 26.9 3 10.4 4.6 20.3 4.6 30.1zM692.4 50.9c.9 0 2.9 1 5.9 3.1 3.1 2.1 6.3 4.4 9.7 6.9 3.4 2.6 6.4 5.1 9 7.5s4 3.9 4 4.5c0 .6-.4 1.8-1.3 3.5s-2 3.8-3.4 6.2c-1.4 2.3-2.9 4.8-4.6 7.4-1.7 2.6-3.3 4.9-4.8 7-1.5 2.1-2.9 3.9-4.2 5.3-1.2 1.4-2.1 2.1-2.5 2.1-.6 0-2.3-1-5.2-3.1-2.9-2-6-4.3-9.3-6.8l-13.2-10.1c-.9-.9-1.8-1.3-2.9-1.3-.4 0-1 .7-1.8 2-3.4 4.7-6.4 8.9-9 12.7-2.3 3.2-4.6 6.1-6.8 8.7-2.2 2.6-3.7 3.8-4.4 3.8-.3 0-1.2-.5-2.7-1.4-1.5-1-3.4-2.2-5.6-3.7s-4.5-3.2-6.8-4.9c-2.3-1.8-4.5-3.4-6.6-5.1-2-1.6-3.7-3-5.1-4.3-1.3-1.2-2-2.1-2-2.5 0-.6.5-1.8 1.4-3.5 1-1.8 2.2-3.8 3.6-6.3 1.5-2.4 3-4.9 4.7-7.6 1.7-2.6 3.3-5 4.9-7.1 1.6-2.1 3-3.9 4.2-5.4 1.2-1.5 1.9-2.2 2.2-2.2 1 0 3 1.1 5.9 3.2 2.9 2.1 6 4.4 9.2 6.9 3.8 2.9 7.8 6.2 12.1 9.9.9 1 1.7 1.5 2.4 1.5.4 0 .8-.1 1.2-.4.4-.3.9-1 1.6-2 3.4-4.4 6.4-8.4 9.2-12.1 2.3-3.1 4.6-5.9 6.7-8.5 2.4-2.6 3.7-3.9 4.3-3.9zm-9 129c0-.4-.5-1.2-1.4-2.2-1-1-2.2-2.1-3.8-3.2-1.6-1.1-3.4-2-5.4-2.9-2-.8-3.9-1.2-5.8-1.2-1.6 0-3.2.9-4.6 2.6-1.5 1.8-2.2 3.4-2.2 5.1 0 1.8.7 3.8 2.2 6.3 1.5 2.4 3.9 3.6 7.3 3.6 1.8 0 3.4-.4 5.1-1.1 1.6-.7 3.1-1.5 4.4-2.4s2.4-1.8 3.2-2.6c.6-.9 1-1.6 1-2z"/>
</svg>
