<svg xmlns="http://www.w3.org/2000/svg" viewBox="0 0 1024 1024">
    <path d="M322.2 297.4c0 1.8-.1 3.9-.3 6.5-.2 2.6-.7 5.1-1.5 7.5-.8 2.4-2 4.5-3.6 6.2-1.6 1.7-3.8 2.5-6.6 2.5h-8.1c-6.7 0-12.6-.7-17.5-2s-9.2-3.6-12.9-6.8c-3.7-3.2-6.8-7.6-9.4-13.1s-4.9-12.5-6.8-21c-1.8 2.5-3.9 5.1-6.4 7.8-2.5 2.7-5.2 5.2-8.2 7.4-3 2.2-6.3 4-9.8 5.4-3.5 1.4-7.2 2.1-11 2.1-3.1 0-7-.3-11.8-.9-4.8-.6-9.3-1.6-13.7-3-4.4-1.4-8.2-3.2-11.4-5.5-3.2-2.3-4.8-5.1-4.8-8.5 0-1.8.5-4.3 1.4-7.7 1-3.4 2.2-7 3.8-10.9 1.6-3.9 3.4-7.8 5.5-11.8 2-4 4.2-7.5 6.4-10.8 1.9-2.8 4.9-6.1 8.9-10 4-3.9 8.4-7.7 13.1-11.5 4.7-3.8 9.3-7.2 13.8-10.2 4.5-3 8.1-5.1 10.8-6.3-.1-1.3-.3-2.5-.3-3.4-.1-1-.1-2.1-.1-3.4v-2.2c0-.4.1-1.2.2-2.2.3-3.2 1.2-6.5 2.9-9.8 1.6-3.3 3.5-6.3 5.6-9 2.1-2.7 4.2-4.9 6.3-6.6 2-1.7 3.7-2.5 4.8-2.5.1 0 .4 1.1.8 3.2s.8 4.9 1.4 8.2c.6 3.4 1.2 7.2 2 11.4.7 4.3 1.5 8.5 2.2 12.7 1 6.6 2.1 13.2 3.3 19.8 1.2 6.6 2.2 12.6 3.2 18.1 1 5.5 1.8 10.2 2.5 14.2s1.2 6.4 1.5 7.5c.6 2.5 1.2 4.7 2 6.6.7 1.9 1.9 3.6 3.4 5.1 1.5 1.5 3.7 2.6 6.6 3.3 2.9.7 6.8 1.1 11.8 1.1h8.1c2.8 0 5 .8 6.6 2.5 1.6 1.7 2.8 3.7 3.6 6.2.8 2.4 1.3 4.9 1.5 7.4 0 2.5.2 4.6.2 6.4zM267 90.4c.9 0 2.9 1 5.9 3.1 3.1 2.1 6.3 4.4 9.7 6.9 3.4 2.6 6.4 5.1 9 7.5s4 3.9 4 4.5c0 .6-.4 1.8-1.3 3.5s-2 3.8-3.4 6.2c-1.4 2.3-2.9 4.8-4.6 7.4-1.7 2.6-3.3 4.9-4.8 7-1.5 2.1-2.9 3.9-4.2 5.3-1.2 1.4-2.1 2.1-2.5 2.1-.6 0-2.3-1-5.2-3.1-2.9-2-6-4.3-9.3-6.8L247 123.8c-.9-.9-1.8-1.3-2.9-1.3-.4 0-1 .7-1.8 2-3.4 4.7-6.4 8.9-9 12.7-2.3 3.2-4.6 6.1-6.8 8.7-2.2 2.6-3.7 3.8-4.4 3.8-.3 0-1.2-.5-2.7-1.4-1.5-1-3.4-2.2-5.6-3.7s-4.5-3.2-6.8-4.9c-2.3-1.8-4.5-3.4-6.6-5.1-2.1-1.6-3.7-3-5.1-4.3-1.3-1.2-2-2.1-2-2.5 0-.6.5-1.8 1.4-3.5 1-1.8 2.2-3.8 3.6-6.3 1.5-2.4 3-4.9 4.7-7.6 1.7-2.6 3.3-5 4.9-7.1 1.6-2.1 3-3.9 4.2-5.4 1.2-1.5 1.9-2.2 2.2-2.2 1 0 3 1.1 5.9 3.2 2.9 2.1 6 4.4 9.2 6.9 3.8 2.9 7.8 6.2 12.1 9.9.9 1 1.7 1.5 2.4 1.5.4 0 .8-.1 1.2-.4.4-.3.9-1 1.6-2 3.4-4.4 6.4-8.4 9.2-12.1 2.3-3.1 4.6-5.9 6.7-8.5 2.5-2.5 3.8-3.8 4.4-3.8zm-16 163.2c-.7-3.4-1.5-7.9-2.4-13.6s-1.8-11.2-2.9-16.5c-5.6 2.3-10.6 5.1-15.1 8.2-4.5 3.2-8.2 6.2-11.3 9.2-3.1 3-5.5 5.6-7.1 7.9-1.7 2.3-2.5 3.6-2.5 4.1s.9.9 2.7 1.4c1.8.5 4.1 1 6.9 1.4 2.8.4 5.8.8 9.1 1s6.4.3 9.3.3c3.7 0 6.4-.3 8.1-.9 1.9-.4 3.6-1.3 5.2-2.5z"/>
    <path d="M416.4 297.1c0 7.2-.7 12.8-2 16.8s-4.7 6-10.1 6h-8.6c-4.1 0-7.5-.5-10.2-1.5-2.7-1-5.5-2.8-8.5-5.3-2.5-2-4.8-4.8-7-8.1-2.2-3.4-4-7.2-5.5-11.4-2.6 3.5-5.5 6.8-8.5 10s-6.6 5.9-10.7 8.3c-4.1 2.4-8.8 4.4-14.1 5.8-5.3 1.5-11.4 2.2-18.5 2.2h-8.1c-2.8 0-5-.5-6.6-1.4-1.6-1-2.8-2.4-3.6-4.4-.8-2-1.3-4.4-1.5-7.1-.2-2.8-.3-6.1-.3-9.9 0-3.5.1-6.6.3-9.3.2-2.7.7-5 1.5-6.9.8-1.9 2-3.4 3.6-4.4 1.6-1 3.8-1.5 6.6-1.5h8.1c7.6 0 14.2-.7 19.9-2.1 5.6-1.4 10.4-3.2 14.4-5.4s7.2-4.5 9.8-6.9c2.6-2.4 4.8-4.7 6.6-6.9 1.8-2.2 3.3-4 4.5-5.4 1.2-1.4 2.3-2.1 3.5-2.1.9 0 1.8.7 2.9 2 1 1.3 2.1 4.7 3.3 10.1.4 1.9 1 3.8 1.6 5.8s1.7 3.8 3.1 5.4c1.4 1.6 3.1 2.9 5.3 4 2.1 1 4.8 1.5 8 1.5h8.6c5.4 0 8.8 1.9 10.1 5.7 1.5 3.8 2.1 9.3 2.1 16.4zm-39.3-130.3c.9 0 2.9 1 5.9 3.1 3.1 2.1 6.3 4.4 9.7 6.9 3.4 2.6 6.4 5.1 9 7.5s4 3.9 4 4.5c0 .6-.4 1.8-1.3 3.5s-2 3.8-3.4 6.2c-1.4 2.3-2.9 4.8-4.6 7.4-1.7 2.6-3.3 4.9-4.8 7-1.5 2.1-2.9 3.9-4.2 5.3-1.2 1.4-2.1 2.1-2.5 2.1-.6 0-2.3-1-5.2-3.1-2.9-2-6-4.3-9.3-6.8l-13.2-10.1c-.9-.9-1.8-1.3-2.9-1.3-.4 0-1 .7-1.8 2-3.4 4.7-6.4 8.9-9 12.7-2.3 3.2-4.6 6.1-6.8 8.7-2.2 2.6-3.7 3.8-4.4 3.8-.3 0-1.2-.5-2.7-1.4-1.5-1-3.4-2.2-5.6-3.7s-4.5-3.2-6.8-4.9c-2.3-1.8-4.5-3.4-6.6-5.1-2.1-1.6-3.7-3-5.1-4.3-1.3-1.2-2-2.1-2-2.5 0-.6.5-1.8 1.4-3.5 1-1.8 2.2-3.8 3.6-6.3s3-4.9 4.7-7.6c1.7-2.6 3.3-5 4.9-7.1 1.6-2.1 3-3.9 4.2-5.4 1.2-1.5 1.9-2.2 2.2-2.2 1 0 3 1.1 5.9 3.2 2.9 2.1 6 4.4 9.2 6.9 3.8 2.9 7.8 6.2 12.1 9.9.9 1 1.7 1.5 2.4 1.5.4 0 .8-.1 1.2-.4.4-.3.9-1 1.6-2 3.4-4.4 6.4-8.4 9.2-12.1 2.3-3.1 4.6-5.9 6.7-8.5 2.3-2.6 3.7-3.9 4.3-3.9z"/>
    <path d="M637 297.4c0 1.8-.1 3.9-.3 6.5-.2 2.6-.7 5.1-1.5 7.5-.8 2.4-2 4.5-3.6 6.2-1.6 1.7-3.8 2.5-6.6 2.5h-8.3c-5.1 0-9.9-.8-14.3-2.3s-8.8-3.7-13.3-6.5-9.1-6.2-13.8-10.2c-4.8-4-10.1-8.6-16.1-13.6-6-5.1-12.8-10.5-20.3-16.5-7.5-5.9-16.2-12.3-26-19 .6 2.5 1 5.5 1.1 9 .1 3.5.2 6.2.2 8.1 0 17.1-9 29.9-26.9 38.3-17.9 8.4-44.7 12.6-80.3 12.6h-8.1c-2.8 0-5-.8-6.6-2.5-1.6-1.7-2.8-3.7-3.6-6.2-.8-2.4-1.3-4.9-1.5-7.5-.2-2.6-.3-4.7-.3-6.5s.1-3.9.3-6.4c.2-2.5.7-4.9 1.5-7.4.8-2.4 2-4.5 3.6-6.2 1.6-1.7 3.8-2.5 6.6-2.5h8.1c16.7 0 30.7-.7 42-2.2 11.3-1.5 20.3-3.3 27.1-5.6 6.8-2.3 11.7-4.8 14.6-7.7 2.9-2.9 4.4-5.7 4.4-8.7 0-3.4-2.6-7.5-7.7-12.5s-12.2-9.8-21.3-14.5c-2.8-1.5-5.8-2.9-9.1-4.3s-6.5-2.7-9.6-4.1-5.8-2.6-8.2-3.7c-2.4-1.2-4.1-2.3-4.9-3.3-1.6-1.8-3.2-3.9-4.7-6.4-1.5-2.5-2.9-5.2-4.1-8-1.2-2.9-2.2-5.7-3-8.7-.8-2.9-1.2-5.7-1.2-8.3 0-1 .2-3 .7-5.8s1.2-6 2.4-9.6c1.2-3.5 2.9-7.1 5.1-10.8 2.2-3.7 5-6.8 8.3-9.4 7.5-5.9 16.7-11.9 27.6-18 10.9-6.2 22.4-12.2 34.4-18 12-5.9 24-11.4 36-16.5s22.9-9.6 32.7-13.4c9.8-3.8 17.9-6.8 24.2-9.1 6.3-2.3 9.8-3.4 10.5-3.4.4 0 1.2.5 2.3 1.4 1.1 1 1.6 1.6 1.6 2.1 0 .3-.4 1.6-1.1 3.8-.7 2.3-1.6 5-2.6 8.2-1 3.2-2.2 6.7-3.5 10.4s-2.6 7.2-3.7 10.3c-1.2 3.2-2.2 5.8-3.2 7.9-1 2.1-1.6 3.3-1.9 3.4-11.9 3.4-23.9 7-36.1 10.8-12.2 3.8-24 7.7-35.4 11.5-11.4 3.9-22 7.7-32.1 11.5-10 3.8-18.8 7.5-26.3 11s-13.4 6.8-17.8 9.9-6.7 5.7-6.8 7.9c0 .7 1.5 1.5 4.5 2.3 3 .8 6.7 1.8 11.1 2.9s9.2 2.3 14.3 3.7c5.1 1.4 9.7 3 13.8 4.7 6.3 2.6 12.6 5.6 18.8 8.8 6.2 3.2 12.3 6.6 18.1 10.1 5.9 3.5 11.5 7.1 16.8 10.8 5.3 3.7 10.4 7.3 15.1 10.8 11 8.2 20 15.3 27.1 21.2 7.1 5.9 13 10.9 17.8 14.8 4.8 4 8.8 6.9 12.2 8.8 3.4 1.9 6.9 2.9 10.5 2.9h8.3c2.8 0 5 .8 6.6 2.5 1.6 1.7 2.8 3.7 3.6 6.2.8 2.4 1.3 4.9 1.5 7.4.2 2.7.3 4.8.3 6.6z"/>
    <path d="M835.7 231.9c0 2.9-.3 6.7-.8 11.4s-1.4 9.7-2.6 15.1c-1.2 5.3-2.8 10.7-4.7 16.1-1.9 5.4-4.3 10.3-7.1 14.7-2.9 4.4-6.2 7.9-10.1 10.7-3.9 2.7-8.3 4.1-13.3 4.1-4.1 0-8-.8-11.6-2.4-3.7-1.6-7-3.7-10.1-6.3-3.1-2.6-5.9-5.5-8.3-8.8-2.5-3.3-4.6-6.6-6.4-10-2.5 4.4-5.3 9.1-8.5 14.2s-6.7 9.7-10.8 14.1c-4 4.3-8.5 7.9-13.3 10.7-4.8 2.8-10.2 4.2-16 4.2-4.5 0-8.8-.8-12.9-2.5-4-1.7-7.7-3.8-11-6.4-3.3-2.6-6.1-5.4-8.3-8.6-2.3-3.1-3.9-6.3-4.9-9.3-5.6 8.3-12.3 15-20.3 19.9-8 4.9-16.9 7.4-26.7 7.4h-8.1c-2.8 0-5-.8-6.6-2.5-1.6-1.7-2.8-3.7-3.6-6.2-.8-2.4-1.3-4.9-1.5-7.5-.2-2.6-.3-4.7-.3-6.5s.1-3.9.3-6.4c.2-2.5.7-4.9 1.5-7.4.8-2.4 2-4.5 3.6-6.2 1.6-1.7 3.8-2.5 6.6-2.5h8.1c7.9 0 14.8-.7 20.5-2.2 5.8-1.5 10.7-3.3 14.7-5.4 4-2.1 7.4-4.5 10-7 2.6-2.6 4.8-4.9 6.5-7 1.7-2.1 3.1-3.9 4.2-5.4 1.1-1.5 2.1-2.2 3-2.2 1.8 0 3.1.7 4 2.2.9 1.5 1.7 3.3 2.4 5.4.7 2.1 1.5 4.4 2.3 6.9.8 2.5 2 4.8 3.5 6.9 1.5 2.1 3.6 3.9 6.2 5.4 2.6 1.5 6 2.2 10.2 2.2 7.2 0 13.7-1.4 19.7-4.3s11-6.6 15.3-11.1c4.2-4.5 7.6-9.6 10.1-15.3 2.5-5.6 4-11.3 4.6-17 .1-1.2.5-2.2 1.2-3.2s1.8-1.4 3.4-1.4c2 0 3.7 1.8 4.8 5.5 3.4 10.8 8.3 18.9 14.8 24.2 6.5 5.3 13.4 7.9 20.5 7.9 3.2 0 5.8-.8 7.8-2.3 2-1.5 3-3.3 3-5.4 0-2-.9-3.8-2.6-5.4s-3.7-2.9-5.9-4-4.2-1.9-5.9-2.5c-1.8-.6-2.6-1-2.6-1.3 0-.3.2-1.7.7-4.2.4-2.5 1-5.5 1.8-9.1.7-3.6 1.6-7.4 2.6-11.5s2.1-7.9 3.2-11.3c1.1-3.4 2.2-6.3 3.3-8.6 1.1-2.3 2.2-3.4 3.2-3.4 1.2 0 2.7 1.3 4.7 3.8 2 2.6 3.9 5.8 5.8 9.8 1.9 4 3.5 8.3 4.9 13.2 1.1 4.7 1.8 9.4 1.8 14z"/>
</svg>
