<svg xmlns="http://www.w3.org/2000/svg" viewBox="0 0 1024 1024">
    <path d="M414.7 267.4c0 1.8-.1 3.9-.3 6.5-.2 2.6-.7 5.1-1.5 7.5-.8 2.4-2 4.5-3.6 6.2-1.6 1.7-3.8 2.5-6.6 2.5h-8.1c-6.7 0-12.6-.7-17.5-2s-9.2-3.6-12.9-6.8c-3.7-3.2-6.8-7.6-9.4-13.1s-4.9-12.5-6.8-21c-1.8 2.5-3.9 5.1-6.4 7.8-2.5 2.7-5.2 5.2-8.2 7.4-3 2.2-6.3 4-9.8 5.4-3.5 1.4-7.2 2.1-11 2.1-3.1 0-7-.3-11.8-.9-4.8-.6-9.3-1.6-13.7-3-4.4-1.4-8.2-3.2-11.4-5.5-3.2-2.3-4.8-5.1-4.8-8.5 0-1.8.5-4.3 1.4-7.7 1-3.4 2.2-7 3.8-10.9 1.6-3.9 3.4-7.8 5.5-11.8 2-4 4.2-7.5 6.4-10.8 1.9-2.8 4.9-6.1 8.9-10 4-3.9 8.4-7.7 13.1-11.5 4.7-3.8 9.3-7.2 13.8-10.2 4.5-3 8.1-5.1 10.8-6.3-.1-1.3-.3-2.5-.3-3.4-.1-1-.1-2.1-.1-3.4v-2.2c0-.4.1-1.2.2-2.2.3-3.2 1.2-6.5 2.9-9.8 1.6-3.3 3.5-6.3 5.6-9 2.1-2.7 4.2-4.9 6.3-6.6 2-1.7 3.7-2.5 4.8-2.5.1 0 .4 1.1.8 3.2s.8 4.9 1.4 8.2c.6 3.4 1.2 7.2 2 11.4.7 4.3 1.5 8.5 2.2 12.7 1 6.6 2.1 13.2 3.3 19.8 1.2 6.6 2.2 12.6 3.2 18.1 1 5.5 1.8 10.2 2.5 14.2s1.2 6.4 1.5 7.5c.6 2.5 1.2 4.7 2 6.6.7 1.9 1.9 3.6 3.4 5.1 1.5 1.5 3.7 2.6 6.6 3.3 2.9.7 6.8 1.1 11.8 1.1h8.1c2.8 0 5 .8 6.6 2.5 1.6 1.7 2.8 3.7 3.6 6.2.8 2.4 1.3 4.9 1.5 7.4.1 2.5.2 4.6.2 6.4zm-55.2-207c.9 0 2.9 1 5.9 3.1 3.1 2.1 6.3 4.4 9.7 6.9 3.4 2.6 6.4 5.1 9 7.5s4 3.9 4 4.5c0 .6-.4 1.8-1.3 3.5s-2 3.8-3.4 6.2c-1.4 2.3-2.9 4.8-4.6 7.4-1.7 2.6-3.3 4.9-4.8 7-1.5 2.1-2.9 3.9-4.2 5.3-1.2 1.4-2.1 2.1-2.5 2.1-.6 0-2.3-1-5.2-3.1-2.9-2-6-4.3-9.3-6.8l-13.2-10.1c-.9-.9-1.8-1.3-2.9-1.3-.4 0-1 .7-1.8 2-3.4 4.7-6.4 8.9-9 12.7-2.3 3.2-4.6 6.1-6.8 8.7-2.2 2.6-3.7 3.8-4.4 3.8-.3 0-1.2-.5-2.7-1.4-1.5-1-3.4-2.2-5.6-3.7s-4.5-3.2-6.8-4.9c-2.3-1.8-4.5-3.4-6.6-5.1-2.1-1.6-3.7-3-5.1-4.3-1.3-1.2-2-2.1-2-2.5 0-.6.5-1.8 1.4-3.5 1-1.8 2.2-3.8 3.6-6.3 1.5-2.4 3-4.9 4.7-7.6 1.7-2.6 3.3-5 4.9-7.1 1.6-2.1 3-3.9 4.2-5.4 1.2-1.5 1.9-2.2 2.2-2.2 1 0 3 1.1 5.9 3.2 2.9 2.1 6 4.4 9.2 6.9 3.8 2.9 7.8 6.2 12.1 9.9.9 1 1.7 1.5 2.4 1.5.4 0 .8-.1 1.2-.4.4-.3.9-1 1.6-2 3.4-4.4 6.4-8.4 9.2-12.1 2.3-3.1 4.6-5.9 6.7-8.5 2.4-2.6 3.7-3.9 4.3-3.9zm-16 163.2c-.7-3.4-1.5-7.9-2.4-13.6s-1.8-11.2-2.9-16.5c-5.6 2.3-10.6 5.1-15.1 8.2-4.5 3.2-8.2 6.2-11.3 9.2-3.1 3-5.5 5.6-7.1 7.9-1.7 2.3-2.5 3.6-2.5 4.1s.9.9 2.7 1.4c1.8.5 4.1 1 6.9 1.4 2.8.4 5.8.8 9.1 1s6.4.3 9.3.3c3.7 0 6.4-.3 8.1-.9 1.9-.4 3.6-1.3 5.2-2.5z"/>
    <path d="M553.5 267.4c0 1.8-.1 3.9-.3 6.5-.2 2.6-.7 5.1-1.5 7.5-.8 2.4-2 4.5-3.6 6.2-1.6 1.7-3.8 2.5-6.6 2.5h-8.1c-7.9 0-15.4-.7-22.4-2s-13.5-2.9-19.3-4.7c-5.9-1.8-11-3.8-15.5-5.9-4.5-2.1-8.1-4-10.9-5.6-2.8 1.5-6.4 3.3-10.8 5.4-4.4 2.1-9.2 4.1-14.5 6-5.3 1.9-10.9 3.5-16.8 4.8s-11.8 2-17.7 2h-8.1c-2.8 0-5-.8-6.6-2.5-1.6-1.7-2.8-3.7-3.6-6.2-.8-2.4-1.3-4.9-1.5-7.5-.2-2.6-.3-4.7-.3-6.5s.1-3.9.3-6.4c.2-2.5.7-4.9 1.5-7.4.8-2.4 2-4.5 3.6-6.2 1.6-1.7 3.8-2.5 6.6-2.5h8.1c5.4 0 11.1-.4 16.9-1.1 5.9-.7 10.6-1.5 14.3-2.4-.7-1.3-1.4-3.4-2-6.4-.6-2.9-.9-6-.9-9.2 0-4.1.6-8.5 1.9-13.3 1.2-4.8 2.9-9.6 4.9-14.5 2-4.9 4.5-9.9 7.4-14.8 2.9-5 6-9.7 9.3-14.1 3.1-4.1 6.2-7.9 9.4-11.3 3.2-3.4 6.5-6.4 9.8-9 3.3-2.6 6.5-4.6 9.7-6 3.1-1.5 6.1-2.2 8.9-2.2 5.1 0 9.6 1.9 13.3 5.6s6.8 8.2 9.3 13.5c2.5 5.3 4.4 10.8 5.6 16.5 1.2 5.7 1.9 10.5 1.9 14.5 0 17.3-6.8 33.9-20.4 49.9 4.5 1.3 9.2 2.4 13.8 3.2 4.7.8 9.6 1.2 14.7 1.2h8.1c2.8 0 5 .8 6.6 2.5 1.6 1.7 2.8 3.7 3.6 6.2.8 2.4 1.3 4.9 1.5 7.4.3 2.4.4 4.5.4 6.3zm-47.4-63.8c0-1.3-.5-3-1.5-5.2-1-2.1-2.6-4.2-4.6-6.2-2.1-2-4.5-3.7-7.5-5.1-2.9-1.4-6.2-2.1-9.9-2.1-1.9 0-4.3.5-7.1 1.5-2.9 1-5.6 2.3-8.3 3.8-2.7 1.5-5.1 3.2-7 5.1-2 1.8-3 3.6-3 5.4s.8 3.8 2.3 6.3 3.4 4.9 5.7 7.4c2.3 2.5 4.7 4.9 7.3 7.1 2.6 2.3 4.9 4.1 6.9 5.6 3.5-1.8 6.9-3.6 10.1-5.5 3.2-1.9 6.1-3.9 8.6-5.9 2.5-2 4.5-4.1 5.9-6.2 1.3-1.9 2.1-3.9 2.1-6zm10.1-118.4c0 .6-.5 1.8-1.4 3.6-1 1.8-2.2 4-3.6 6.5-1.5 2.5-3.1 5.1-4.9 7.9-1.8 2.8-3.6 5.3-5.3 7.6-1.7 2.3-3.3 4.2-4.7 5.7-1.5 1.5-2.5 2.3-3.1 2.3-.4 0-2.3-1.1-5.6-3.2s-6.8-4.5-10.4-7.3c-3.7-2.7-7-5.3-10-7.9-3-2.6-4.5-4.2-4.5-4.9 0-.6.5-1.8 1.4-3.7 1-1.9 2.2-4.1 3.7-6.6s3.2-5.1 5.1-7.9c1.8-2.8 3.6-5.3 5.3-7.6 1.7-2.3 3.2-4.2 4.5-5.7s2.3-2.3 2.9-2.3c.9 0 3 1.1 6.3 3.3s6.8 4.7 10.4 7.4c3.7 2.7 6.9 5.3 9.8 7.9 2.6 2.5 4.1 4.2 4.1 4.9z"/>
    <path d="M638.3 207.8c0 10.4-1.1 19.6-3.4 27.6s-6.1 15.9-11.5 23.8c-1.8 2.6-4.7 5.7-8.9 9.2s-9.6 6.9-16.1 10.1c-6.6 3.2-14.4 5.9-23.4 8.1s-19.2 3.3-30.7 3.3h-8.1c-2.8 0-5-.8-6.6-2.5-1.6-1.7-2.8-3.7-3.6-6.2-.8-2.4-1.3-4.9-1.5-7.5-.2-2.6-.3-4.7-.3-6.5s.1-3.9.3-6.4c.2-2.5.7-4.9 1.5-7.4.8-2.4 2-4.5 3.6-6.2 1.6-1.7 3.8-2.5 6.6-2.5h8.1c13.3 0 24.8-1 34.5-2.9s17.7-4.2 24-6.9c6.3-2.7 10.9-5.6 13.8-8.6 2.9-3 4.4-5.6 4.4-7.8s-.9-4.9-2.7-8c-1.8-3.1-3.8-5.8-5.8-8-.9 2.9-2.3 6-4.2 9.2-1.9 3.2-4.3 6.2-7.1 8.8s-6.1 4.8-9.8 6.6c-3.7 1.8-7.6 2.6-11.9 2.6-4 0-7.8-.5-11.4-1.4-3.7-1-6.8-2.6-9.6-5.1-2.7-2.4-4.9-5.6-6.6-9.6-1.7-4-2.5-8.9-2.5-14.9 0-3.1.5-7 1.6-11.9s2.6-10 4.6-15.6c2-5.6 4.3-11.1 6.9-16.7 2.6-5.6 5.5-10.6 8.7-15.2 3.1-4.5 6.4-8.2 9.8-11.1 3.4-2.9 6.8-4.3 10.3-4.3 5 0 10.2 2.5 15.7 7.5s10.5 11.5 15.2 19.4c4.6 8 8.5 17 11.5 26.9 3.1 10.4 4.6 20.3 4.6 30.1zm-34-156.9c.9 0 2.9 1 5.9 3.1 3.1 2.1 6.3 4.4 9.7 6.9 3.4 2.6 6.4 5.1 9 7.5s4 3.9 4 4.5c0 .6-.4 1.8-1.3 3.5s-2 3.8-3.4 6.2c-1.4 2.3-2.9 4.8-4.6 7.4-1.7 2.6-3.3 4.9-4.8 7-1.5 2.1-2.9 3.9-4.2 5.3-1.2 1.4-2.1 2.1-2.5 2.1-.6 0-2.3-1-5.2-3.1-2.9-2-6-4.3-9.3-6.8l-13.2-10.1c-.9-.9-1.8-1.3-2.9-1.3-.4 0-1 .7-1.8 2-3.4 4.7-6.4 8.9-9 12.7-2.3 3.2-4.6 6.1-6.8 8.7-2.2 2.6-3.7 3.8-4.4 3.8-.3 0-1.2-.5-2.7-1.4-1.5-1-3.4-2.2-5.6-3.7s-4.5-3.2-6.8-4.9c-2.3-1.8-4.5-3.4-6.6-5.1-2-1.6-3.7-3-5.1-4.3-1.3-1.2-2-2.1-2-2.5 0-.6.5-1.8 1.4-3.5 1-1.8 2.2-3.8 3.6-6.3 1.5-2.4 3-4.9 4.7-7.6 1.7-2.6 3.3-5 4.9-7.1 1.6-2.1 3-3.9 4.2-5.4 1.2-1.5 1.9-2.2 2.2-2.2 1 0 3 1.1 5.9 3.2 2.9 2.1 6 4.4 9.2 6.9 3.8 2.9 7.8 6.2 12.1 9.9.9 1 1.7 1.5 2.4 1.5.4 0 .8-.1 1.2-.4.4-.3.9-1 1.6-2 3.4-4.4 6.4-8.4 9.2-12.1 2.3-3.1 4.6-5.9 6.7-8.5 2.3-2.6 3.7-3.9 4.3-3.9zm-9 129c0-.4-.5-1.2-1.4-2.2-1-1-2.2-2.1-3.8-3.2-1.6-1.1-3.4-2-5.4-2.9-2-.8-3.9-1.2-5.8-1.2-1.6 0-3.2.9-4.6 2.6-1.5 1.8-2.2 3.4-2.2 5.1 0 1.8.7 3.8 2.2 6.3 1.5 2.4 3.9 3.6 7.3 3.6 1.8 0 3.4-.4 5.1-1.1 1.6-.7 3.1-1.5 4.4-2.4s2.4-1.8 3.2-2.6c.6-.9 1-1.6 1-2zM754.6 251.5c0 10.1-1 20.6-3.1 31.4-2.1 10.8-4.9 21.5-8.7 32-3.7 10.5-8.2 20.4-13.5 29.8-5.3 9.4-11.1 17.6-17.5 24.6s-13.3 12.6-20.7 16.8c-7.4 4.2-15.1 6.3-23 6.3-4.5 0-9.2-.9-14.1-2.6s-9.6-4-14.3-6.7c-4.7-2.7-9.1-5.6-13.2-8.7-4.1-3.1-7.7-6-10.9-8.8-3.1-2.8-5.6-5.2-7.5-7.1-1.8-2-2.7-3.1-2.7-3.4 0-.3.2-.8.7-1.5.4-.7 1-1.5 1.5-2.3.6-.8 1.2-1.5 1.8-2.1.6-.6 1-.9 1.3-.9.4 0 1.6.5 3.4 1.5 1.8 1 4.2 2.2 7.1 3.4 2.9 1.2 6.3 2.4 10 3.4s7.7 1.5 11.8 1.5c11.1 0 22.1-2.4 33-7.3 10.8-4.8 20.5-11.1 29.1-18.7 8.6-7.6 15.5-16.1 20.8-25.6s7.9-18.7 7.9-27.8c0-3.7 0-7.1-.1-10.4-.1-3.3-.3-6.6-.8-9.8-1.8 3.1-3.8 5.8-6.2 8.1-2.3 2.3-4.8 4.3-7.4 5.8-2.6 1.5-5 2.7-7.4 3.5-2.3.8-4.4 1.2-6.2 1.2-2.9 0-6.1-.8-9.6-2.3-3.4-1.5-6.6-3.7-9.6-6.6-2.9-2.9-5.4-6.3-7.5-10.4-2.1-4.1-3.1-8.6-3.1-13.6 0-3.8.5-8.3 1.6-13.4s2.6-10.4 4.5-15.8 4.1-10.8 6.6-16.1c2.5-5.3 5.2-10.1 8-14.4 2.9-4.2 5.8-7.7 8.8-10.2 3-2.6 5.9-3.8 8.7-3.8 4.4 0 8.9 1.8 13.6 5.4 4.7 3.6 9 8.8 12.9 15.7 3.9 6.9 7.1 15.3 9.7 25.4 3 10 4.3 21.5 4.3 34.5zm-37.8-27.2c-1.3-2-3-4.2-5.2-6.5-2.1-2.3-4.5-3.4-7.1-3.4-1.8 0-3.2.8-4.4 2.5-1.2 1.7-1.8 4-1.8 6.9 0 1.9.7 3.6 2 4.9 1.3 1.4 3 2.1 5.1 2.1 2.9 0 5.4-.7 7.4-2.1 1.9-1.3 3.2-2.8 4-4.4z"/>
</svg>
