<svg xmlns="http://www.w3.org/2000/svg" viewBox="0 0 1024 1024">
    <path d="M711.9 538c-8.9-49.5-38.9-92.2-70.2-130.3-41.5-50.7-85-99.9-127.7-149.6-18-20.9-106.5 35.9-96.8 47.2 25.3 29.7 50.8 59.2 76.1 88.8-4.7 2.9-9 5.8-12.6 8.5-85.7 64.9-149.3 157-167.3 264.2-7.3 43.5-12.8 112.7 52.2 102.6 36.9-5.7 73.6-23.9 105.8-47.9 18.4 12.2 41.9 16.9 64.5 15.4 53.9-3.6 113.1-32.2 147.8-73.9 28.8-34.6 36-81.6 28.2-125zm-98.2 110.6c-2.7 10.9-6.7 22-12.6 31.7-.4.7-.9 1.4-1.4 2-5.4-.4-10.7-1.3-15.9-2.9-19.1-5.7-33.1-17.1-41.9-35-5.2-10.6-36.1 2.1-41.9 4.4-17.8 7.1-39.8 17.3-51.5 33.1-8.3 11.2-17.3 21.8-27.8 31-.5-.3-1-.5-1.4-.8-5.6-4.2-8.8-11.5-10.8-17.9-10.3-33 2.2-77.2 11.5-109.3 17.6-60.6 50.8-119.2 97.2-162.7 6.7 7.9 13.3 15.7 19.9 23.6 33.1 39.5 66.3 83.2 77.1 134.7 4.8 22.6 5 45.7-.5 68.1z"/>
</svg>
