<svg xmlns="http://www.w3.org/2000/svg" viewBox="0 0 1024 1024">
    <path d="M692.2 438.1c46.1 63.7 69.2 122.7 69.2 176.8 0 39.7-10.7 71.5-32 95.2-21.3 23.7-49.7 35.6-85.2 35.6-27.7 0-52.5-7.1-74.4-21.2-21.9-14.1-39.3-31.5-52.2-52-12.9-20.5-19.4-41.9-19.4-64 0-19.7 3.2-37.7 9.6-53.8 6.4-16.1 15.6-31.7 27.6-46.6s40.8-45.3 86.4-91.2c-34.1-40.8-72-71.2-113.6-91.2 10.7 20.5 16 42.7 16 66.4 0 34.1-9.9 61.1-29.8 80.8-19.9 19.7-47.4 29.6-82.6 29.6-36 0-67.4-13.1-94.2-39.4-26.8-26.3-40.2-57-40.2-92.2 0-36.5 12.8-65.9 38.4-88.2 25.6-22.3 59.6-33.4 102-33.4 38.4 0 76.6 11.1 114.6 33.2s77.5 56.9 118.6 104.4l140.8-145.6 48.8 47.2-148.4 149.6zM437.4 307.7c-31.2 0-56.7 8.2-76.4 24.6-19.7 16.4-29.6 37.4-29.6 63 0 17.1 5.5 31.3 16.4 42.8 10.9 11.5 24.8 17.2 41.6 17.2 24.5 0 44.5-9.1 60-27.2s23.2-41.6 23.2-70.4c0-15.2-2.8-30.9-8.4-47.2-8.5-1.9-17.5-2.8-26.8-2.8zm258 280.4c0-37.1-11.9-76.3-35.6-117.6-28 28.5-48.9 50.6-62.6 66.2-13.7 15.6-24.2 30.7-31.4 45.4S555 612.4 555 628.9c0 20.5 6.1 36.9 18.2 49 12.1 12.1 28.1 18.2 47.8 18.2 21.6 0 39.4-10 53.4-30s21-46 21-78zM330.1 769.9c0-30.9 14.5-46.4 43.6-46.4 28.8 0 43.2 15.5 43.2 46.4s-14.4 46.4-43.2 46.4c-29 0-43.6-15.5-43.6-46.4zM204 677.1c0-30.9 14.5-46.4 43.6-46.4 28.8 0 43.2 15.5 43.2 46.4s-14.4 46.4-43.2 46.4c-29.1 0-43.6-15.5-43.6-46.4z"/>
    <path d="M349.5 615.1c0-30.9 14.5-46.4 43.6-46.4 28.8 0 43.2 15.5 43.2 46.4s-14.4 46.4-43.2 46.4c-29.1 0-43.6-15.5-43.6-46.4z"/>
</svg>
