<svg xmlns="http://www.w3.org/2000/svg" viewBox="0 0 1024 1024">
    <path d="M670 139.3c-11.4-13.8-21.3-23-37.2-40L575 119c17 15 44.4 49.5 51.7 60.8 6.3 9.8 11.6 20.5 13.8 28 2.3 7.6 3.9 15.5 4.7 24.3 0 11.5-4.1 21.1-12.2 28.8-8.1 7.7-18.5 11.6-31 11.6-19.2 0-34.9-7.1-47-21.2-12.1-14.1-18.2-32.8-18.2-56l.8-24.8-54.4 15.6c-.8 4.5-1.2 11.5-1.2 20.8 0 16 2.1 31.1 6.4 45.2-16.3 9.3-33.1 14-50.4 14-16.8 0-30.7-5.3-41.8-16-11.1-10.7-16.6-24.9-16.6-42.8 0-34.4 22.5-70.9 67.6-109.6l-18.4-24.4c-30.4 19.7-55.3 44.3-74.6 73.8-19.3 29.5-29 58.3-29 86.6 0 25.9 8.4 46.9 25.2 63 16.8 16.1 38.1 24.2 64 24.2 14.9 0 29.7-4 44.4-12s27.9-19.2 39.6-33.6c8.3 13.9 19.1 24.5 32.4 31.8 13.3 7.3 28.1 11 44.4 11 22.9 0 43.7-6.1 62.2-18.4 18.5-12.3 33.4-26.3 44.6-42.2 11.2-15.9 16.8-34.1 16.8-54.6 0-11.7-2.5-22.3-7.4-31.6s-11.8-20.3-21.4-32z"/>
</svg>
