<svg xmlns="http://www.w3.org/2000/svg" viewBox="0 0 1024 1024">
    <path d="M399 208.8c0-29.3 10.1-54 30.4-74s45.3-30 75.2-30c29.6 0 57.1 12.8 82.4 38.4 25.3 25.6 38 53.5 38 83.6 0 17.6-4.3 34.5-12.8 50.6s-20.9 29.1-37 39c-16.1 9.9-34.9 14.8-56.2 14.8-28.8 0-56-12.1-81.6-36.4-25.6-24.3-38.4-52.9-38.4-86zm175.6-15.2c0-11.2-3.7-20.7-11.2-28.4-7.5-7.7-16.9-11.6-28.4-11.6-20.5 0-39.9 9.1-58 27.2s-27.2 38.4-27.2 60.8c0 12.5 3.7 22.7 11.2 30.6 7.5 7.9 17.6 11.8 30.4 11.8 20.3 0 39.2-9.6 56.8-28.8 17.6-19.2 26.4-39.7 26.4-61.6z"/>
</svg>
