<svg xmlns="http://www.w3.org/2000/svg" viewBox="0 0 1024 1024">
    <path d="M413.2 226.5c0-30.6 9.1-55.4 27.2-74.5 18.1-19 41.9-28.6 71.3-28.6 29.7 0 53.6 9.5 71.8 28.6 18.2 19.1 27.2 43.9 27.2 74.5 0 31.5-9.1 56.5-27.2 74.9-18.1 18.5-42.1 27.7-71.8 27.7-30 0-53.9-9.3-71.8-27.9s-26.7-43.5-26.7-74.7zm153.9-12.6c0-16.8-4.9-30.2-14.6-40.3-9.8-10.1-23.3-15.1-40.7-15.1-17.1 0-30.5 5-40.3 15.1-9.8 10-14.6 23.5-14.6 40.3 0 15.9 4.7 28.6 14.2 38 9.5 9.5 23 14.2 40.7 14.2 18 0 31.7-4.7 41.2-14.2 9.4-9.4 14.1-22.1 14.1-38z"/>
</svg>
