<svg xmlns="http://www.w3.org/2000/svg" viewBox="0 0 1024 1024">
    <path d="M800 383.8c-38.7-48.3-87.3-72.5-146-72.5-40.7 0-73 11.3-97 33.8s-36 52.9-36 91.3c0 39 11.3 70 34 93s53.2 34.5 91.5 34.5c37.7 0 67.6-11.1 89.8-33.3 22.2-22.2 33.3-52.4 33.3-90.8 0-6.7-.8-14.2-2.5-22.5 13.7 16 24 37.1 28.7 62.4 5.2 28.2 5.8 48.5 5.8 75.3v.3c0 35.7-6.5 66.1-19.5 91.3s-29.9 44.1-50.8 56.8-42.9 19-66.3 19c-71.3 0-117-36-137-108h-32c-20 72-65.7 108-137 108-23.3 0-45.4-6.3-66.3-19S255 671.7 242 646.5s-19.5-55.6-19.5-91.3v-.3c0-26.9.7-47.1 5.8-75.3 4.6-25.4 15-46.4 28.7-62.4-1.7 8.3-2.5 15.8-2.5 22.5 0 38.3 11.1 68.6 33.3 90.8 22.2 22.2 52.1 33.3 89.8 33.3 38.3 0 68.8-11.5 91.5-34.5 22.7-23 34-54 34-93 0-38.3-12-68.8-36-91.3s-56.3-33.8-97-33.8c-58.7 0-107.3 24.2-146 72.5s-48 109-48 182c0 55.3 8.3 103.4 24.8 144.3s38.7 72 66.5 93.5 58.4 32.3 91.8 32.3c34.3 0 64.9-10.4 91.8-31.3 26.8-20.8 47.3-48.8 61.3-83.8 14 35 34.4 62.9 61.3 83.8 26.8 20.8 57.4 31.3 91.8 31.3 33.3 0 63.9-10.8 91.8-32.3s50-52.7 66.5-93.5S848 621.1 848 565.8c0-73-9.3-133.7-48-182zM696.5 501.5c-13 12.2-29.3 18.3-49 18.3-19 0-34.6-6.3-46.8-19-12.2-12.7-18.3-29.7-18.3-51s6.3-38.2 19-50.5c12.7-12.3 29.3-18.5 50-18.5 18.3 0 33.7 6.1 46 18.3 12.3 12.2 18.5 29.1 18.5 50.8.1 22.2-6.4 39.4-19.4 51.6zM326.5 399c12.3-12.2 27.7-18.3 46-18.3 20.7 0 37.3 6.2 50 18.5 12.7 12.3 19 29.2 19 50.5s-6.1 38.3-18.3 51c-12.2 12.7-27.8 19-46.8 19-19.7 0-36-6.1-49-18.3-13-12.2-19.5-29.4-19.5-51.8.1-21.5 6.3-38.4 18.6-50.6z"/>
</svg>
