<svg xmlns="http://www.w3.org/2000/svg" viewBox="0 0 1024 1024">
    <path d="M428.9 562.6c18.1 26.7 39.9 46.4 65.2 59.2 25.4 12.8 50.8 17.6 76.3 14.6 34.1-4.1 60.5-18.7 79.1-43.9 18.6-25.2 25.9-55.4 21.7-90.5-4.4-36.7-16-64.8-35-84.2-18.9-19.4-44.1-27.2-75.6-23.5-31.4 3.8-54.4 16.3-68.8 37.7-14.4 21.4-19.9 33.9-13.5 70 3.7 20.9 26.2 43.1 32.9 34 4.7-6.3 2.8-10.4 2-15.2-2.3-15.5 1.9-28.5 11.2-38.9 9.3-10.3 23.4-16.6 42.3-18.9 20.2-2.4 35.6.4 46.3 8.6s17 20 18.8 35.5c1.7 13.9-1.8 26.4-10.4 37.5-8.6 11.1-22.2 20.1-41.3 23.1-21.5 3.3-39.1.7-53.3-1.9-17.8-3.2-38.5-13-43-15.8-28.7-18.2-43.4-47-47.5-81.4-4-33.8 3.7-61.5 23.3-83.3 19.6-21.8 48.5-35 86.9-39.6 59.6-7.1 107.4 5.8 143.4 38.8s46.1 74 45.7 141.3c-.4 74.2-71.3 156.4-179.4 156.2-79.7-.2-157-20.8-203-61-48-42-88.4-103.5-89-154-.4-28.6-12.5-43.5-24.9-41.9-14.9 2-15.5 8.9-21.2 19.2-10.1 18.4 4.7 81.6 10 96 23.3 64 57.5 120.7 111 162.7 53.4 41.9 134 67.9 215 67.9 102.1 0 160.6-53.3 191.9-97.7 36.6-52 45.1-119.7 45.2-176.3.1-83.3-27.3-138.9-74.2-184.9-46.7-46.1-103.8-65-171-57-52.6 6.3-92.7 28.6-120.2 67s-37.7 86.8-30.7 145.4c4.4 36.7 15.7 68.5 33.8 95.2z"/>
</svg>
