<svg xmlns="http://www.w3.org/2000/svg" viewBox="0 0 1024 1024">
    <path d="M713 281.1c19.7 0 35.7 6.4 48 19.2s18.4 28.5 18.4 47.2c0 18.7-6.3 34.4-18.8 47.2-12.5 12.8-28.4 19.2-47.6 19.2-18.7 0-34.4-6.3-47.2-18.8-12.8-12.5-19.2-28.4-19.2-47.6 0-18.7 6.3-34.4 18.8-47.2s28.4-19.2 47.6-19.2zm-9.6 100c8.5 0 16.1-3.2 22.8-9.6 6.7-6.4 10-14.4 10-24 0-9.1-3.3-16.8-10-23.2-6.7-6.4-14.3-9.6-22.8-9.6-9.1 0-16.8 3.3-23.2 10-6.4 6.7-9.6 14.3-9.6 22.8 0 9.1 3.1 16.9 9.2 23.6 6.1 6.7 14 10 23.6 10z"/>
</svg>
