<svg xmlns="http://www.w3.org/2000/svg" viewBox="0 0 1024 1024">
    <path d="M669 387.7c0-24 6.9-43.9 20.6-59.6 13.8-15.7 30.1-23.6 49.1-23.6 7.8 0 16 2.4 24.7 7.2 8.7 4.8 15.2 9.6 19.5 14.4V36.5c1.2 1.1 5.6 5.1 13.4 12 7.8 6.9 12.6 11.3 14.5 13.2 1.9 1.9 6.5 6.3 13.7 13.2 7.2 6.9 12 11.9 14.5 14.8 2.5 2.9 6.7 7.9 12.5 14.8s9.8 12.5 11.9 16.8c2.1 4.3 5.1 9.9 9 16.8s6.6 13.2 8.1 18.8 3 12 4.4 19.2 2 14.3 2 21.2c0 13.9-3.7 24.5-11 32-7.4 7.5-17.2 11.2-29.7 11.2-16.7 0-33.5-6.7-50.6-20v123.2c19.8 35.2 29.7 81.9 29.7 140 0 48.5-7.7 90.5-23 126s-36.5 53.2-63.7 53.2c-19 0-35.4-8-49.1-24-13.8-16-20.6-36-20.6-60h12.8c0 13.9 4.3 25.2 12.8 34s18.6 13.2 30.2 13.2c20.2 0 34.9-13.9 44.2-41.6s14-61.3 14-100.8c0-40-4.7-73.9-14-101.6-9.3-27.7-24-41.6-44.2-41.6-11.6 0-21.7 4.4-30.2 13.2-8.5 8.8-12.8 20.1-12.8 34H669zM795.7 69.3v130.4c10.1 9.1 20.3 13.6 30.8 13.6 8.5 0 15.6-2.9 21.2-8.8s8.4-13.6 8.4-23.2c0-22.4-5.4-42.4-16.3-60-10.7-17.6-25.5-34.9-44.1-52zM223.8 464.5c0 18.7-4.6 34.9-13.7 48.8-9.1 13.9-21.4 20.8-36.9 20.8s-27.8-6.9-36.9-20.8c-9.1-13.9-13.7-30.1-13.7-48.8 0-16 3.3-30 9.9-42 6.6-12 15-20.9 25.3-26.8 10.3-5.9 20.1-10.1 29.4-12.8 9.3-2.7 18.2-4 26.7-4 30.6 0 57.1 13.3 79.4 40 22.3 26.7 33.4 60.5 33.4 101.6 0 36.3-7.9 68.3-23.8 96S267 664.6 243 677.7s-49.6 19.6-76.7 19.6c-41.9 0-78-19.2-108.4-57.6s-45.6-85.3-45.6-140.8c0-65.1 18.3-119.6 54.9-163.6s80.3-66 131.1-66c38.4 0 73.8 14.1 106.4 42.4 32.6 28.3 57.2 66.4 73.8 114.4 0 .5.1 1.2.3 2 .2.8.3 1.5.3 2 0 5.9-2.1 8.8-6.4 8.8-2.7 0-4.7-1.6-5.8-4.8-15.5-44.8-38.5-80.5-68.9-107.2-30.4-26.7-63.7-40-99.7-40-46.5 0-87 18.9-121.5 56.8S25 429.3 25 486.9c0 41.1 13.1 74.3 39.2 99.6s56.9 38 92.2 38c104.7 0 157.2-34.9 157.6-104.8-.4-36.3-10.4-65.9-29.9-88.8-19.6-22.9-42.9-34.4-70.1-34.4-7.4 0-14.5.8-21.5 2.4 10.1 4.8 17.8 13.3 23.3 25.6 5.3 12.3 8 25.6 8 40zm-50.5-52c-12 0-21.3 5.2-27.9 15.6-6.6 10.4-9.9 22.5-9.9 36.4s3.3 26 9.9 36.4c6.6 10.4 15.9 15.6 27.9 15.6s21.3-5.2 27.9-15.6c6.6-10.4 9.9-22.5 9.9-36.4s-3.2-26-9.6-36.4-15.8-15.6-28.2-15.6z"/>
</svg>
