<svg xmlns="http://www.w3.org/2000/svg" viewBox="0 0 1024 1024">
    <path d="M727.5 387.7c0-24 6.8-43.9 20.5-59.6 13.7-15.7 30-23.6 48.9-23.6 27 0 48.1 17.7 63.3 53.2s22.8 77.5 22.8 126-7.6 90.5-22.8 126-36.3 53.2-63.3 53.2c-18.9 0-35.2-8-48.9-24s-20.5-36-20.5-60h13.3c0 13.9 4.1 25.2 12.4 34s18.2 13.2 29.8 13.2c20 0 34.7-13.9 43.9-41.6 9.3-27.7 13.9-61.3 13.9-100.8 0-40-4.6-73.9-13.9-101.6-9.3-27.7-23.9-41.6-43.9-41.6-10.4 0-19.7 3.7-27.8 11.2s-12.9 17.1-14.5 28.8c1.2-.5 3.1-.8 5.8-.8 10.4 0 19.3 6.5 26.6 19.6 7.3 13.1 11 27.9 11 44.4 0 16-4 29.6-12.1 40.8s-20.4 16.8-37 16.8c-23.1 0-42.9-11.1-59.3-33.2s-24.6-48.9-24.6-80.4c0-27.2 6.2-52.3 18.5-75.2l9.8 12c-10.4 18.7-15.6 39.7-15.6 63.2 0 21.3 5.6 39.6 16.8 54.8s24.5 22.8 39.9 22.8c11.6 0 20.1-3.9 25.7-11.6 5.6-7.7 8.4-16.9 8.4-27.6 0-6.9-1.3-13.1-3.8-18.4-2.5-5.3-5.7-8-9.5-8-2.7 0-5 1.1-6.9 3.2l-6.9-15.2zm-504.8 76.8c0 18.7-4.5 34.9-13.6 48.8-9.1 13.9-21.3 20.8-36.7 20.8s-27.7-6.9-36.7-20.8c-9.1-13.9-13.6-30.1-13.6-48.8 0-16 3.3-30 9.8-42s14.9-20.9 25.2-26.8c10.2-5.9 19.9-10.1 29.2-12.8 9.3-2.7 18.1-4 26.6-4 30.5 0 56.8 13.3 78.9 40C314 445.6 325 479.4 325 520.5c0 36.3-7.9 68.3-23.7 96-15.8 27.7-35.7 48.1-59.6 61.2s-49.3 19.6-76.3 19.6c-41.6 0-77.6-19.2-107.8-57.6s-45.4-85.3-45.4-140.8c0-65.1 18.2-119.6 54.6-163.6s79.9-66 130.4-66c38.2 0 73.4 14.1 105.8 42.4 32.4 28.3 56.9 66.4 73.4 114.4 0 .5.1 1.2.3 2 .2.8.3 1.5.3 2 0 5.9-2.1 8.8-6.4 8.8-2.7 0-4.6-1.6-5.8-4.8-15.4-44.8-38.3-80.5-68.5-107.2-30.3-26.7-63.3-40-99.2-40-46.3 0-86.5 18.9-120.8 56.8s-51.5 85.6-51.5 143.2c0 41.1 13 74.3 39 99.6s56.6 38 91.6 38c104.1 0 156.3-34.9 156.7-104.8-.4-36.3-10.3-65.9-29.8-88.8s-42.7-34.4-69.7-34.4c-7.3 0-14.5.8-21.4 2.4 10 4.8 17.7 13.3 23.1 25.6s8.4 25.6 8.4 40zm-50.3-52c-11.9 0-21.2 5.2-27.8 15.6s-9.8 22.5-9.8 36.4 3.3 26 9.8 36.4 15.8 15.6 27.8 15.6c11.9 0 21.2-5.2 27.8-15.6 6.6-10.4 9.8-22.5 9.8-36.4s-3.2-26-9.5-36.4c-6.4-10.4-15.8-15.6-28.1-15.6z"/>
</svg>
