<svg xmlns="http://www.w3.org/2000/svg" viewBox="0 0 1024 1024">
    <path d="M151.6 624.3C174 711.7 258.9 755 342.2 721.2c48.6-19.7 76.7-58.3 78.8-110.8 2-48.3-22.3-84.2-65.7-105.6-57.5-28.4-127.6 7.7-138.4 70.8-1.9 11.3-5.7 24.2 13.7 32.8 4.9-13.4 9.3-26.4 14.4-39.2 16.6-41.6 58.4-57.2 98.5-36.9 57.3 29 65.9 95.4 18.1 139.6-31.3 28.9-68.7 36.7-107.8 24.1-42-13.5-64.4-48.1-70.5-89.6-9.6-64.8 7.8-122.7 61.6-163.7 24-18.3 51.5-34.2 80-44.1C457.7 352.3 584.8 374.3 707 437c7.3 3.7 12.1 12.3 18 18.6-1.3 3.2-2.6 6.4-3.9 9.7-11.5 0-23-.3-34.5.1-38.1 1.2-73.8 10.3-104.5 34.3-43.5 34-62.9 99.1-45.3 151.7 16.5 49.4 64.1 83.1 119.6 84.6 81.4 2.2 146.3-59.5 148-141.1.3-12.7 0-25.5 0-48.6 18.1 13.8 29.9 21 39.3 30.6 9.3 9.5 13 26.6 36.7 19.9-4.8-11.4-7-21.8-12.8-29.6-14.4-19.1-31.1-36.5-45.6-55.5-12.7-16.6-27.3-33.1-34.9-52.2-22.3-56-60.1-97.3-111.8-125.9-99.2-54.8-203.8-56-310.2-26.6-45.3 12.5-88 32.5-123 64.5-74.2 68.1-117.2 148.7-90.5 252.8zm624.8-68.4c.2 3.7.1 7.4.1 8.3 7.3 90.6-46.7 136.2-105.5 140.9-45.7 3.7-88.3-19.1-105.6-56.9-17.8-38.7-6.9-89.3 27.4-120.1 38.9-35 83.3-50.8 135.7-34.3 39.4 12.3 45.9 20.3 47.9 62.1z"/>
</svg>
