<svg id="レイヤー_1" xmlns="http://www.w3.org/2000/svg" viewBox="0 0 1024 1024">
    <style>
        .st0{fill:none}
    </style>
    <path class="st0" d="M424 283.4c16.8 3.2 34.4 2.3 51.7 2.6 20.8.3 32.5-10.5 33.3-31.3.7-18.6.2-37.3.2-55.9 1.1-.1 2.1-.2 3.2-.3-3.2-29-3.9-58.6-10.2-86.9-8.8-39.6-31.5-47.5-63.7-23.9-39.6 29-60.1 71.2-70.6 117-8.7 38.1 16.9 71.3 56.1 78.7zM548.3 383.8c0 15.9-1.2 31.9.3 47.6 2.3 23.9 15.1 31.8 38.4 26.1 35.1-8.7 60.1-42.2 59.5-79.7-.6-39.6-21.6-62.8-59.5-65.9-26.5-2.2-37 6.1-38.9 32.3-.9 13.2-.2 26.5-.2 39.7.1-.1.3-.1.4-.1z"/>
    <path d="M356 299.3c26.5 10.9 56.5 13.4 85.2 18.2 13 2.2 26.6.2 39.9 1.3 13.3 1.2 23.4 8.6 23.9 22.5 1 28.8.3 57.7.3 87.3-16.6 3-27.9 5-47.5 8.5 8.1 13 10.9 23.3 17.5 27 27.4 15.6 31.2 39.3 31 67.9-1 133.3-.5 266.5-.5 399.8 0 12-1.4 24.6 2.1 35.6 2.1 6.7 11.9 13.6 19.3 15 4.3.8 13.7-8.6 15.2-14.7 2.8-11.4 1.8-23.8 1.8-35.8.1-131.9-.2-263.9.1-395.8.1-38.4 2.8-38.5 41.4-39.4 26.1-.6 53.5-3.8 77.8-12.9 45.9-17.2 69.2-63.4 62.6-113.3-6.4-49.3-37.4-79.7-90-86.6-17-2.2-34.5-1.3-51.8-1.5-26.8-.3-33.3-5.3-34.5-32-1.2-27.9 2.5-56.4-1.6-83.8-4.4-29.8-10.9-60.7-24.3-87.3-19.1-38-58.5-48.1-95.7-28.6-50.6 26.6-91.6 64.7-118.5 115.4-28.1 53.1-8.8 110.6 46.3 133.2zm190.7 44.8c1.9-26.1 12.3-34.4 38.9-32.3 37.9 3.1 58.9 26.4 59.5 65.9.6 37.5-24.4 71-59.5 79.7-23.3 5.8-36-2.2-38.4-26.1-1.5-15.7-.3-31.7-.3-47.6h-.4c0-13.2-.8-26.5.2-39.6zM366.5 204.6c10.4-45.8 31-88 70.6-117 32.2-23.6 54.9-15.7 63.7 23.9 6.3 28.3 7 57.9 10.2 86.9-1.1.1-2.1.2-3.2.3 0 18.6.6 37.3-.2 55.9-.8 20.8-12.5 31.6-33.3 31.3-17.3-.2-34.9.6-51.7-2.6-39.2-7.3-64.8-40.5-56.1-78.7z"/>
</svg>
