<svg xmlns="http://www.w3.org/2000/svg" viewBox="0 0 1024 1024">
    <path d="M365.2 688.2c129.6 82.6 334.5 30.8 373.4-155.9 21.6-103.6-16.4-189.5-114.1-234.1-40.1-18.3-82.6-18.6-125.5-13-13.9 1.8-27.8 3-41.7 4.4-.9-3.3-1.8-6.6-2.6-10 5.4-3.5 10.5-7.6 16.2-10.5 50.9-26.3 102.7-50.7 152.4-79.1 27.4-15.6 53.1-35.6 75.8-57.5 21.1-20.4 22-38.8 10.2-48.6-12-10-28.8-6-47.9 15.7C614.9 152.5 557 190 497.2 225.2c-34.4 20.3-68.4 41.2-101.5 63.4-75.7 50.6-111.6 124.2-115.8 212.6-3.5 75.6 17.9 144.1 85.3 187zm68.2-386.9s.4.4.5.6l-1.8-.9 1.3.3zM319.5 417.8c12.5-35.3 31.2-64.3 70.7-80.8-2 11.7-3.5 20.3-5.3 31.1 21.7 2.1 29.3-14.7 40.5-23.8 47.4-38.6 124.9-48.5 176-20.3 54.1 29.8 82.2 76.6 76.8 137.8-5.4 61.8-39.8 107.2-98.4 128.9-57.6 21.4-117.3 22.5-176.2 3.1-76.1-25.1-111-100.1-84.1-176z"/>
</svg>
