<svg xmlns="http://www.w3.org/2000/svg" viewBox="0 0 1024 1024">
    <path d="M676.8 281.2c6.1-5.1 13.9-8.9 18.4-15.2 5-6.9 11.6-17.3 9.5-23.5-2-6.1-13.8-12.1-21.7-12.6-26.6-1.7-53.3-1.3-80-.9-60 .9-120 1.5-179.9 3.6-40.6 1.4-75.5 16.2-98.6 51.7-24.7 38-12.3 85 27.5 105.9 37.9 19.9 94.6-3.4 104.2-43.6 1.4-6-3.5-13.6-5.5-20.5-5.7 2.2-11.9 3.6-16.9 6.9-2.9 1.9-3.5 7.1-6 10.2-19.1 24.1-49.2 28.4-74.2 10.9-21.8-15.3-24.5-33.2-8.4-54.2 15.5-20.1 37-34.4 60.7-35.3 72.9-2.8 146-1.8 219-2.1.9 0 1.8 1.7 6.8 6.9-5.8 6.5-10.1 13-16 17.7-55.5 44-106.1 92.8-150.5 148.4C402.4 514 358.6 600.6 343 700.8c-7.7 49.4 1 96.5 20.7 140.5 24.4 54.6 66.3 94.1 125 110.1 64.3 17.5 129.4 13.8 193.9-1.8 7.6-1.8 15.6-5.1 21.6-9.9 4.4-3.6 8.8-11.3 7.8-16.2-.9-4.9-7.8-10.4-13.3-12.2-5.9-2-13.3-1-19.7.3-82.4 16.6-184-50.7-209.3-147.5-18.3-69.9-7.1-135.6 12.4-200.5C516.3 449 586 357.4 676.8 281.2z"/>
</svg>
