<svg xmlns="http://www.w3.org/2000/svg" viewBox="0 0 1024 1024">
    <path d="M520.8 301.5c-4.3-7-6.4-12.8-6.4-17.4 0-4.2 1.6-6.3 4.8-6.3s8.4 1.7 15.6 5.2c7.2 3.5 16.1 5.2 26.8 5.2 5.3 0 11.2-.7 17.6-2.1 6.4-1.4 12.3-3.5 17.6-6.3 5.3-2.8 9.7-6.2 13.2-10.1 3.5-3.9 5.2-8.5 5.2-13.6 0-8.8-3.7-17.5-11.2-26.1s-16.5-12.9-27.2-12.9c-13.9 0-28.4 2.8-43.6 8.4-15.2 5.6-30.4 13-45.6 22.3-15.2 9.3-30.5 20-46 32.1-15.5 12.1-30.4 24.4-44.8 36.9L328 376c-2.1 1.9-4.8 3.4-8 4.5s-5.6 1.7-7.2 1.7c-4.8 0-7.2-2.1-7.2-6.3 0-3.7 2-7.7 6-11.8 4-4.2 7.6-8.1 10.8-11.8l56.8-63.4c2.1-2.3 5.5-7.1 10-14.3s10.3-15.4 17.2-24.7c6.9-9.3 14.7-19 23.2-29.3s17.6-19.6 27.2-28.2c9.6-8.6 19.7-15.7 30.4-21.3 10.7-5.6 21.3-8.4 32-8.4 6.9 0 14.7 1.6 23.2 4.9 8.5 3.3 17.3 7.4 26.4 12.5 9.1 5.1 18.1 10.9 27.2 17.4 9.1 6.5 17.3 13 24.8 19.5 10.7 9.3 19.3 19.7 26 31.4 6.7 11.6 10 24.4 10 38.3 0 12.1-2.9 22.2-8.8 30.3-5.9 8.1-12.8 14.6-20.8 19.5s-16 8.5-24 10.8c-8 2.3-13.9 3.5-17.6 3.5-10.7 0-20-1.6-28-4.9-8-3.3-14.9-9.8-20.8-19.5l-16-24.9zm125.6 511.6c-1.6 0-5.6-2.8-12-8.4-6.4-5.6-12.5-10.2-18.4-13.9-9.6-7-23.3-14.5-41.2-22.6-17.9-8.1-37.9-15.6-60-22.3-22.1-6.7-45.6-12.3-70.4-16.7-24.8-4.4-48.9-6.6-72.4-6.6-4.3 0-8 .8-11.2 2.4-3.2 1.6-6.3 3.3-9.2 4.9s-5.6 3.3-8 4.9c-2.4 1.6-5.2 2.4-8.4 2.4-1.6 0-2.4-1.4-2.4-4.2 0-1.4 1.6-3.9 4.8-7.7l37.6-50.9c4.3-5.1 8.9-8.8 14-11.1 5.1-2.3 10.3-3.5 15.6-3.5 25.6 0 49.3 3.4 71.2 10.1s41.6 15.9 59.2 27.5c8.5 5.6 17.3 13.6 26.4 24 9.1 10.5 18.1 18.9 27.2 25.4l33.6 24.4V655.5h24v136c1.1 1.4 2.5 3.3 4.4 5.6 1.9 2.3 2.8 3.9 2.8 4.9 0 .9-.8 3-2.4 6.3-1.6 3.2-3.2 4.8-4.8 4.8zm5.6-23.7c5.3 0 8.9.7 10.8 2.1 1.9 1.4 2.8 2.6 2.8 3.5 0 1.4-.7 2.9-2 4.5s-2.3 2.7-2.8 3.1l-8 10.5c4.3 2.3 8 6.9 11.2 13.6s4.8 12.7 4.8 17.8c0 9.3-3.3 18.6-10 27.9-6.7 9.3-12.7 17.2-18 23.7l-6.4 7.7c13.9 2.8 26.1 8.4 36.8 16.7 10.7 8.4 19.5 17.8 26.4 28.2 6.9 10.5 12.1 21.1 15.6 32.1s5.2 20.6 5.2 28.9c0 .9-.4 2.1-1.2 3.5s-2 2.1-3.6 2.1-5.3-3.5-11.2-10.5c-5.9-7-14.1-14.6-24.8-23-10.7-8.4-24.1-16-40.4-23s-35.6-10.5-58-10.5c-12.3 0-21.6 1.6-28 4.9-3.7 1.9-6.5 3.5-8.4 4.9-1.9 1.4-3.3 2.1-4.4 2.1-.5 0-1.1-.5-1.6-1.4-.5-.9-.8-1.6-.8-2.1 0-5.6 1.7-11.5 5.2-17.8s8.5-12.3 15.2-18.1c6.7-5.8 14.7-10.8 24-15 9.3-4.2 19.9-6.7 31.6-7.7l4-4.9c2.7-3.7 5.7-8.4 9.2-13.9s5.2-10.7 5.2-15.3c0-5.6-2.5-9.9-7.6-12.9s-11.3-5.5-18.8-7.3c-7.5-1.9-15.7-3-24.8-3.5-9.1-.5-17.6-.7-25.6-.7-14.4 0-28.1 1.6-41.2 4.9-13.1 3.3-19.6 8.8-19.6 16.7 0 6 1.2 10.8 3.6 14.3 2.4 3.5 4.9 6.9 7.6 10.1 2.7 3.3 5.2 7 7.6 11.1 2.4 4.2 3.6 10.2 3.6 18.1 0 4.2-.5 8.7-1.6 13.6s-4.3 9.2-9.6 12.9c-6.9 5.1-13.9 10.3-20.8 15.7-6.9 5.3-11.7 8-14.4 8-3.2 0-4.8-1.2-4.8-3.5 0-.9.7-3.3 2-7s2-8.4 2-13.9c0-9.3-2.3-19.4-6.8-30.3s-6.8-21-6.8-30.3c0-8.8 3.5-18.5 10.4-28.9 6.9-10.5 15.6-20.2 26-29.3 10.4-9.1 21.6-16.7 33.6-23s23.3-9.4 34-9.4H652z"/>
</svg>
