<svg xmlns="http://www.w3.org/2000/svg" viewBox="0 0 1024 1024">
    <path d="M544.5 306.8c-4.3-8-6.4-14.7-6.4-20 0-4.8 1.6-7.2 4.8-7.2 3.2 0 8.4 2 15.6 6s16.1 6 26.8 6c5.3 0 11.2-.8 17.6-2.4 6.4-1.6 12.3-4 17.6-7.2s9.7-7.1 13.2-11.6 5.2-9.7 5.2-15.6c0-10.1-3.7-20.1-11.2-30S611.2 210 600.5 210c-13.9 0-28.4 3.2-43.6 9.6-15.2 6.4-30.4 14.9-45.6 25.6-15.2 10.7-30.5 22.9-46 36.8s-30.4 28-44.8 42.4l-68.8 68c-2.1 2.1-4.8 3.9-8 5.2-3.2 1.3-5.6 2-7.2 2-4.8 0-7.2-2.4-7.2-7.2 0-4.3 2-8.8 6-13.6 4-4.8 7.6-9.3 10.8-13.6l56.8-72.8c2.1-2.7 5.5-8.1 10-16.4s10.3-17.7 17.2-28.4c6.9-10.7 14.7-21.9 23.2-33.6s17.6-22.5 27.2-32.4 19.7-18 30.4-24.4c10.7-6.4 21.3-9.6 32-9.6 6.9 0 14.7 1.9 23.2 5.6 8.5 3.7 17.3 8.5 26.4 14.4s18.1 12.5 27.2 20c9.1 7.5 17.3 14.9 24.8 22.4 10.7 10.7 19.3 22.7 26 36s10 28 10 44c0 13.9-2.9 25.5-8.8 34.8-5.9 9.3-12.8 16.8-20.8 22.4-8 5.6-16 9.7-24 12.4s-13.9 4-17.6 4c-10.7 0-20-1.9-28-5.6s-14.9-11.2-20.8-22.4l-16-28.8zm-28 371.6c4.3 0 6.4 1.9 6.4 5.6 0 3.2-2.9 7.7-8.8 13.6l-9.6 9.6c12.8 17.1 19.2 39.5 19.2 67.2 0 13.3-4.4 26.9-13.2 40.8s-19.3 25.9-31.6 36h8.8c13.9 0 27.9 4.4 42 13.2 14.1 8.8 27.1 19.3 38.8 31.6 8.5 8.5 16.1 18.1 22.8 28.8 6.7 10.7 13.7 19.2 21.2 25.6l24 20.8c0-20.3-1.2-41.6-3.6-64-2.4-22.4-5.7-44.3-10-65.6-2.1-10.1-4.3-20.5-6.4-31.2s-4.4-20.4-6.8-29.2c-2.4-8.8-4.7-16.1-6.8-22-2.1-5.9-4-8.8-5.6-8.8-2.7 0-5.2.8-7.6 2.4-2.4 1.6-4.1 2.4-5.2 2.4-1.6 0-3.3-.4-5.2-1.2-1.9-.8-2.8-2.3-2.8-4.4s.8-4 2.4-5.6l4-4 46.4-53.6c3.2-3.2 6.3-5.3 9.2-6.4s5.2-1.6 6.8-1.6h39.2c5.3 0 8 2.7 8 8 0 3.7-.7 6.1-2 7.2s-2.3 2.7-2.8 4.8c-2.7 8-5.6 16.3-8.8 24.8-3.2 8.5-6.1 17.6-8.8 27.2-2.7 10.7-4.9 21.9-6.8 33.6-1.9 11.7-2.8 24.3-2.8 37.6v176c0 2.7-.9 4.8-2.8 6.4-1.9 1.6-3.6 2.4-5.2 2.4-2.1 0-4.8-1.2-8-3.6l-8-6-32.8-19.2c-10.1-5.9-20.5-12-31.2-18.4-10.7-6.4-22-12.3-34-17.6s-24.8-9.7-38.4-13.2-28.1-5.2-43.6-5.2c-18.7 0-33.2 1.2-43.6 3.6-10.4 2.4-17.5 4.7-21.2 6.8 0-7.5 2.9-16.7 8.8-27.6s13.3-20.9 22.4-30c5.3-5.3 10.7-9.7 16-13.2 5.3-3.5 11.2-6 17.6-7.6 5.9-6.9 11.2-16 16-27.2s7.2-20.5 7.2-28c0-4.8-1.3-10.1-4-16s-6.5-11.3-11.6-16.4-11.2-9.2-18.4-12.4c-7.2-3.2-15.6-4.8-25.2-4.8h-14.4c-25.1 0-45.3 4-60.8 12s-23.2 19.7-23.2 35.2c0 6.4 1.1 12.5 3.2 18.4 2.1 5.9 4.9 11.9 8.4 18s7.2 12.5 11.2 19.2 7.9 14 11.6 22c1.1 2.1 1.6 5.9 1.6 11.2s-1.6 11.6-4.8 18.8c-3.2 7.2-7.1 14-11.6 20.4s-9.3 11.9-14.4 16.4c-5.1 4.5-9.7 6.8-14 6.8-2.1 0-3.3-.8-3.6-2.4-.3-1.6-.4-3.2-.4-4.8 0-2.7.5-5.9 1.6-9.6s1.6-7.5 1.6-11.2c0-6.4-1.2-13.5-3.6-21.2s-5.2-15.2-8.4-22.4-6-14-8.4-20.4-3.6-11.5-3.6-15.2c0-14.4 2-29.6 6-45.6s9.7-31.2 17.2-45.6c7.5-16 17.3-29.7 29.6-41.2 12.3-11.5 25.6-21.7 40-30.8h135.2z"/>
</svg>
