<svg xmlns="http://www.w3.org/2000/svg" viewBox="0 0 1024 1024">
    <path d="M638.8 347c-16.5-17.1-33.6-34-51.2-50.8-17.6-16.8-34.1-33.7-49.6-50.8-8.5-9.6-18.9-18.8-31.2-27.6s-25.3-16.7-39.2-23.6-28.1-12.5-42.8-16.8c-14.7-4.3-28.4-6.4-41.2-6.4-6.4 0-12.8 2.3-19.2 6.8-6.4 4.5-9.6 10-9.6 16.4 0 5.3 2.4 10.7 7.2 16 4.8 5.3 10.7 10 17.6 14s14.4 7.3 22.4 10c8 2.7 15.2 4 21.6 4 4.3 0 8.8-1.6 13.6-4.8 4.8-3.2 8.5-4.8 11.2-4.8 2.1 0 3.2 1.1 3.2 3.2 0 7.5-4.3 19.2-12.8 35.2-5.3 9.6-12.1 18.5-20.4 26.8-8.3 8.3-17.7 12.4-28.4 12.4-6.9 0-14.8-1.9-23.6-5.6-8.8-3.7-17.2-8.5-25.2-14.4s-14.7-12.5-20-20c-5.3-7.5-8-14.9-8-22.4 0-9.6 2.7-22.3 8-38s12.5-31.2 21.6-46.4c9.1-15.2 19.6-28.3 31.6-39.2s24.9-16.4 38.8-16.4c6.9 0 15.1.3 24.4.8 9.3.5 18.7 1.6 28 3.2s18.1 4.1 26.4 7.6c8.3 3.5 15.3 8.4 21.2 14.8 13.9 15.5 24.7 31.1 32.4 46.8s16.7 32.9 26.8 51.6c5.3 10.7 12.4 21.6 21.2 32.8 8.8 11.2 17.3 22 25.6 32.4 8.3 10.4 15.3 19.6 21.2 27.6 5.9 8 8.8 13.9 8.8 17.6 0 5.3-3.5 8-10.4 8zm5.6 360c5.3 0 8.9.8 10.8 2.4 1.9 1.6 2.8 2.9 2.8 4 0 1.6-.7 3.3-2 5.2-1.3 1.9-2.3 3.1-2.8 3.6l-8 12c4.3 2.7 8 7.9 11.2 15.6 3.2 7.7 4.8 14.5 4.8 20.4 0 10.7-3.3 21.3-10 32s-12.7 19.7-18 27.2l-6.4 8.8c13.9 3.2 26.1 9.6 36.8 19.2 10.7 9.6 19.5 20.4 26.4 32.4s12.1 24.3 15.6 36.8c3.5 12.5 5.2 23.6 5.2 33.2 0 1.1-.4 2.4-1.2 4-.8 1.6-2 2.4-3.6 2.4s-5.3-4-11.2-12c-5.9-8-14.1-16.8-24.8-26.4s-24.1-18.4-40.4-26.4-35.6-12-58-12c-12.3 0-21.6 1.9-28 5.6-3.7 2.1-6.5 4-8.4 5.6-1.9 1.6-3.3 2.4-4.4 2.4-.5 0-1.1-.5-1.6-1.6s-.8-1.9-.8-2.4c0-6.4 1.7-13.2 5.2-20.4 3.5-7.2 8.5-14.1 15.2-20.8 6.7-6.7 14.7-12.4 24-17.2s19.9-7.7 31.6-8.8l4-5.6c2.7-4.3 5.7-9.6 9.2-16s5.2-12.3 5.2-17.6c0-6.4-2.5-11.3-7.6-14.8s-11.3-6.3-18.8-8.4-15.7-3.5-24.8-4c-9.1-.5-17.6-.8-25.6-.8-14.4 0-28.1 1.9-41.2 5.6-13.1 3.7-19.6 10.1-19.6 19.2 0 6.9 1.2 12.4 3.6 16.4 2.4 4 4.9 7.9 7.6 11.6s5.2 8 7.6 12.8 3.6 11.7 3.6 20.8c0 4.8-.5 10-1.6 15.6s-4.3 10.5-9.6 14.8c-6.9 5.9-13.9 11.9-20.8 18s-11.7 9.2-14.4 9.2c-3.2 0-4.8-1.3-4.8-4 0-1.1.7-3.7 2-8s2-9.6 2-16c0-10.7-2.3-22.3-6.8-34.8s-6.8-24.1-6.8-34.8c0-10.1 3.5-21.2 10.4-33.2 6.9-12 15.6-23.2 26-33.6 10.4-10.4 21.6-19.2 33.6-26.4 12-7.2 23.3-10.8 34-10.8h93.6z"/>
</svg>
