<svg xmlns="http://www.w3.org/2000/svg" viewBox="0 0 1024 1024">
    <path d="M503.7 670.2c4.3 0 6.4 1.1 6.4 3.4 0 2-2.9 4.7-8.8 8.3l-9.6 5.9c12.8 10.5 19.2 24.2 19.2 41.2 0 8.2-4.4 16.5-13.2 25-8.8 8.5-19.3 15.9-31.6 22.1h8.8c13.9 0 27.9 2.7 42 8.1 14.1 5.4 27.1 11.9 38.8 19.4 8.5 5.2 16.1 11.1 22.8 17.7s13.7 11.8 21.2 15.7l24 12.8c0-12.4-1.2-25.5-3.6-39.3-2.4-13.7-5.7-27.1-10-40.2-2.1-6.2-4.3-12.6-6.4-19.1-2.1-6.5-4.4-12.5-6.8-17.9-2.4-5.4-4.7-9.9-6.8-13.5-2.1-3.6-4-5.4-5.6-5.4-2.7 0-5.2.5-7.6 1.5-2.4 1-4.1 1.5-5.2 1.5-1.6 0-3.3-.2-5.2-.7-1.9-.5-2.8-1.4-2.8-2.7s.8-2.5 2.4-3.4l4-2.5 46.4-32.9c3.2-2 6.3-3.3 9.2-3.9 2.9-.7 5.2-1 6.8-1h39.2c5.3 0 8 1.6 8 4.9 0 2.3-.7 3.8-2 4.4-1.3.7-2.3 1.6-2.8 2.9-2.7 4.9-5.6 10-8.8 15.2-3.2 5.2-6.1 10.8-8.8 16.7-2.7 6.5-4.9 13.4-6.8 20.6-1.9 7.2-2.8 14.9-2.8 23.1V866c0 1.6-.9 2.9-2.8 3.9s-3.6 1.5-5.2 1.5c-2.1 0-4.8-.7-8-2.2l-8-3.7-32.8-11.8c-10.1-3.6-20.5-7.4-31.2-11.3-10.7-3.9-22-7.5-34-10.8s-24.8-6-38.4-8.1c-13.6-2.1-28.1-3.2-43.6-3.2-18.7 0-33.2.7-43.6 2.2s-17.5 2.9-21.2 4.2c0-4.6 2.9-10.2 8.8-16.9 5.9-6.7 13.3-12.8 22.4-18.4 5.3-3.3 10.7-6 16-8.1 5.3-2.1 11.2-3.7 17.6-4.7 5.9-4.3 11.2-9.8 16-16.7 4.8-6.9 7.2-12.6 7.2-17.2 0-2.9-1.3-6.2-4-9.8-2.7-3.6-6.5-7-11.6-10.1-5.1-3.1-11.2-5.6-18.4-7.6-7.2-2-15.6-2.9-25.2-2.9h-14.4c-25.1 0-45.3 2.5-60.8 7.4s-23.2 12.1-23.2 21.6c0 3.9 1.1 7.7 3.2 11.3 2.1 3.6 4.9 7.3 8.4 11s7.2 7.7 11.2 11.8 7.9 8.6 11.6 13.5c1.1 1.3 1.6 3.6 1.6 6.9s-1.6 7.1-4.8 11.5-7.1 8.6-11.6 12.5-9.3 7.3-14.4 10.1-9.7 4.2-14 4.2c-2.1 0-3.3-.5-3.6-1.5-.3-1-.4-2-.4-2.9 0-1.6.5-3.6 1.6-5.9s1.6-4.6 1.6-6.9c0-3.9-1.2-8.3-3.6-13s-5.2-9.3-8.4-13.7c-3.2-4.4-6-8.6-8.4-12.5-2.4-3.9-3.6-7-3.6-9.3 0-8.8 2-18.2 6-28s9.7-19.1 17.2-28c7.5-9.8 17.3-18.2 29.6-25.3s25.6-13.3 40-18.9h135.2zm159.2 188.4c5.3 0 8.9.5 10.8 1.5 1.9 1 2.8 1.8 2.8 2.5 0 1-.7 2-2 3.2-1.3 1.1-2.3 1.9-2.8 2.2l-8 7.4c4.3 1.6 8 4.8 11.2 9.6 3.2 4.7 4.8 8.9 4.8 12.5 0 6.5-3.3 13.1-10 19.6-6.7 6.5-12.7 12.1-18 16.7l-6.4 5.4c13.9 2 26.1 5.9 36.8 11.8 10.7 5.9 19.5 12.5 26.4 19.9s12.1 14.9 15.6 22.6c3.5 7.7 5.2 14.5 5.2 20.4 0 .7-.4 1.5-1.2 2.5-.8 1-2 1.5-3.6 1.5s-5.3-2.5-11.2-7.4c-5.9-4.9-14.1-10.3-24.8-16.2s-24.1-11.3-40.4-16.2-35.6-7.4-58-7.4c-12.3 0-21.6 1.1-28 3.4-3.7 1.3-6.5 2.5-8.4 3.4-1.9 1-3.3 1.5-4.4 1.5-.5 0-1.1-.3-1.6-1s-.8-1.1-.8-1.5c0-3.9 1.7-8.1 5.2-12.5s8.5-8.7 15.2-12.8c6.7-4.1 14.7-7.6 24-10.5s19.9-4.7 31.6-5.4l4-3.4c2.7-2.6 5.7-5.9 9.2-9.8 3.5-3.9 5.2-7.5 5.2-10.8 0-3.9-2.5-7-7.6-9.1-5.1-2.1-11.3-3.8-18.8-5.2-7.5-1.3-15.7-2.1-24.8-2.5-9.1-.3-17.6-.5-25.6-.5-14.4 0-28.1 1.1-41.2 3.4-13.1 2.3-19.6 6.2-19.6 11.8 0 4.3 1.2 7.6 3.6 10.1 2.4 2.5 4.9 4.8 7.6 7.1 2.7 2.3 5.2 4.9 7.6 7.9 2.4 2.9 3.6 7.2 3.6 12.8 0 2.9-.5 6.1-1.6 9.6-1.1 3.4-4.3 6.5-9.6 9.1-6.9 3.6-13.9 7.3-20.8 11s-11.7 5.6-14.4 5.6c-3.2 0-4.8-.8-4.8-2.5 0-.7.7-2.3 2-4.9 1.3-2.6 2-5.9 2-9.8 0-6.5-2.3-13.7-6.8-21.3s-6.8-14.8-6.8-21.3c0-6.2 3.5-13 10.4-20.4 6.9-7.4 15.6-14.2 26-20.6 10.4-6.4 21.6-11.8 33.6-16.2s23.3-6.6 34-6.6h93.6zm-131.2-527c-4.3-4.9-6.4-9-6.4-12.3 0-2.9 1.6-4.4 4.8-4.4 3.2 0 8.4 1.2 15.6 3.7s16.1 3.7 26.8 3.7c5.3 0 11.2-.5 17.6-1.5 6.4-1 12.3-2.5 17.6-4.4 5.3-2 9.7-4.3 13.2-7.1s5.2-6 5.2-9.6c0-6.2-3.7-12.3-11.2-18.4s-16.5-9.1-27.2-9.1c-13.9 0-28.4 2-43.6 5.9-15.2 3.9-30.4 9.2-45.6 15.7s-30.5 14.1-46 22.6c-15.5 8.5-30.4 17.2-44.8 26l-68.8 41.7c-2.1 1.3-4.8 2.4-8 3.2-3.2.8-5.6 1.2-7.2 1.2-4.8 0-7.2-1.5-7.2-4.4 0-2.6 2-5.4 6-8.3s7.6-5.7 10.8-8.3l56.8-44.6c2.1-1.6 5.5-5 10-10.1s10.3-10.9 17.2-17.4c6.9-6.5 14.7-13.4 23.2-20.6s17.6-13.8 27.2-19.9c9.6-6.1 19.7-11 30.4-15 10.7-3.9 21.3-5.9 32-5.9 6.9 0 14.7 1.1 23.2 3.4s17.3 5.2 26.4 8.8c9.1 3.6 18.1 7.7 27.2 12.3 9.1 4.6 17.3 9.2 24.8 13.7 10.7 6.5 19.3 13.9 26 22.1 6.7 8.2 10 17.2 10 27 0 8.5-2.9 15.6-8.8 21.3-5.9 5.7-12.8 10.3-20.8 13.7s-16 6-24 7.6-13.9 2.5-17.6 2.5c-10.7 0-20-1.1-28-3.4s-14.9-6.9-20.8-13.7l-16-17.7z"/>
</svg>
