<svg xmlns="http://www.w3.org/2000/svg" viewBox="0 0 1024 1024">
    <path d="M510.8 289.6c-4.3-8-6.4-14.7-6.4-20 0-4.8 1.6-7.2 4.8-7.2s8.4 2 15.6 6 16.1 6 26.8 6c5.3 0 11.2-.8 17.6-2.4 6.4-1.6 12.3-4 17.6-7.2s9.7-7.1 13.2-11.6 5.2-9.7 5.2-15.6c0-10.1-3.7-20.1-11.2-30-7.5-9.9-16.5-14.8-27.2-14.8-13.9 0-28.4 3.2-43.6 9.6-15.2 6.4-30.4 14.9-45.6 25.6-15.2 10.7-30.5 22.9-46 36.8s-30.4 28-44.8 42.4l-68.8 68c-2.1 2.1-4.8 3.9-8 5.2s-5.6 2-7.2 2c-4.8 0-7.2-2.4-7.2-7.2 0-4.3 2-8.8 6-13.6 4-4.8 7.6-9.3 10.8-13.6l56.8-72.8c2.1-2.7 5.5-8.1 10-16.4s10.3-17.7 17.2-28.4c6.9-10.7 14.7-21.9 23.2-33.6s17.6-22.5 27.2-32.4c9.6-9.9 19.7-18 30.4-24.4 10.7-6.4 21.3-9.6 32-9.6 6.9 0 14.7 1.9 23.2 5.6 8.5 3.7 17.3 8.5 26.4 14.4s18.1 12.5 27.2 20c9.1 7.5 17.3 14.9 24.8 22.4 10.7 10.7 19.3 22.7 26 36 6.7 13.3 10 28 10 44 0 13.9-2.9 25.5-8.8 34.8s-12.8 16.8-20.8 22.4-16 9.7-24 12.4-13.9 4-17.6 4c-10.7 0-20-1.9-28-5.6-8-3.7-14.9-11.2-20.8-22.4l-16-28.8zM642 688.4c5.3 0 8.9.8 10.8 2.4 1.9 1.6 2.8 2.9 2.8 4 0 1.6-.7 3.3-2 5.2-1.3 1.9-2.3 3.1-2.8 3.6l-8 12c4.3 2.7 8 7.9 11.2 15.6s4.8 14.5 4.8 20.4c0 10.7-3.3 21.3-10 32s-12.7 19.7-18 27.2l-6.4 8.8c13.9 3.2 26.1 9.6 36.8 19.2 10.7 9.6 19.5 20.4 26.4 32.4 6.9 12 12.1 24.3 15.6 36.8s5.2 23.6 5.2 33.2c0 1.1-.4 2.4-1.2 4-.8 1.6-2 2.4-3.6 2.4s-5.3-4-11.2-12c-5.9-8-14.1-16.8-24.8-26.4-10.7-9.6-24.1-18.4-40.4-26.4s-35.6-12-58-12c-12.3 0-21.6 1.9-28 5.6-3.7 2.1-6.5 4-8.4 5.6-1.9 1.6-3.3 2.4-4.4 2.4-.5 0-1.1-.5-1.6-1.6s-.8-1.9-.8-2.4c0-6.4 1.7-13.2 5.2-20.4s8.5-14.1 15.2-20.8c6.7-6.7 14.7-12.4 24-17.2 9.3-4.8 19.9-7.7 31.6-8.8l4-5.6c2.7-4.3 5.7-9.6 9.2-16s5.2-12.3 5.2-17.6c0-6.4-2.5-11.3-7.6-14.8s-11.3-6.3-18.8-8.4-15.7-3.5-24.8-4c-9.1-.5-17.6-.8-25.6-.8-14.4 0-28.1 1.9-41.2 5.6-13.1 3.7-19.6 10.1-19.6 19.2 0 6.9 1.2 12.4 3.6 16.4s4.9 7.9 7.6 11.6 5.2 8 7.6 12.8 3.6 11.7 3.6 20.8c0 4.8-.5 10-1.6 15.6s-4.3 10.5-9.6 14.8c-6.9 5.9-13.9 11.9-20.8 18s-11.7 9.2-14.4 9.2c-3.2 0-4.8-1.3-4.8-4 0-1.1.7-3.7 2-8s2-9.6 2-16c0-10.7-2.3-22.3-6.8-34.8s-6.8-24.1-6.8-34.8c0-10.1 3.5-21.2 10.4-33.2 6.9-12 15.6-23.2 26-33.6 10.4-10.4 21.6-19.2 33.6-26.4 12-7.2 23.3-10.8 34-10.8H642z"/>
</svg>
