<svg xmlns="http://www.w3.org/2000/svg" viewBox="0 0 1024 1024">
    <path d="M289 733.6c12.5-12.5 18.8-22.6 18.8-30.4 0-6.3-1.9-10.8-5.6-13.5-3.8-2.5-8.1-3.8-13.1-3.8v47.7zm-70.5-284.7L185.9 429c-22-13.3-33-23.9-33-31.9 0-7.8 7-22.3 21-43.5l63-94.9 40.5 23.3 20.3 12c11.8 6.8 21.8 10.1 30 10.1 1.5 0 2.9-.1 4.1-.4l13.5-1.9c0 8.8-5.1 21.1-15.4 37.1s-20.5 24.8-30.8 26.3c-1.5.3-3.1.4-4.9.4-9.5 0-21.4-4.3-35.6-12.8l-25.5-14.6-16.1 28.1 72 42.4v225c18.8 0 32.8 6.3 42 18.8 9.5 12.5 14.3 25.6 14.3 39.4 0 14.3-2.1 28.2-6.4 41.8S318 776.6 289 821.3h-70.5V448.9zM552.6 310.5c0-9.3 4.8-17.1 14.3-23.6 28.5-19.5 54.1-29.3 76.9-29.3 22.3 0 44.1 8.4 65.6 25.1l72 56.6c19.5 14.8 29.3 34 29.3 57.8v423h-70.5v-423l-88.9-71.6c-9-6.8-17-10.1-24-10.1-4.3 0-8.1 1.3-11.6 3.8l-44.6 31.1c-12.4-11.8-18.5-25-18.5-39.8z"/>
</svg>
