<svg xmlns="http://www.w3.org/2000/svg" viewBox="0 0 1024 1024">
    <path d="M289 783.6c12.5-12.5 18.8-22.6 18.8-30.4 0-6.3-1.9-10.8-5.6-13.5-3.8-2.5-8.1-3.8-13.1-3.8v47.7zm-70.5-284.7L185.9 479c-22-13.3-33-23.9-33-31.9 0-7.8 7-22.3 21-43.5l63-94.9 40.5 23.3 20.3 12c11.8 6.8 21.8 10.1 30 10.1 1.5 0 2.9-.1 4.1-.4l13.5-1.9c0 8.8-5.1 21.1-15.4 37.1s-20.5 24.8-30.8 26.3c-1.5.3-3.1.4-4.9.4-9.5 0-21.4-4.3-35.6-12.8l-25.5-14.6-16.1 28.1 72 42.4v225c18.8 0 32.8 6.3 42 18.8 9.5 12.5 14.3 25.6 14.3 39.4 0 14.3-2.1 28.2-6.4 41.8S318 826.6 289 871.3h-70.5V498.9zM495 230.2h-3.4c-9.3 0-19-3.2-29.3-9.6-22.3-15.9-33.4-36.2-33.4-60.9 0-13.8 3.1-27.9 9.4-42.2 6.3-14.3 9.4-28.9 9.4-43.8s-12.5-22.3-37.5-22.3c0-21.2 12.5-31.9 37.5-31.9 47 0 70.5 18.1 70.5 54.2 0 18.1-3.1 33.2-9.4 45.4-6.3 12.2-9.4 25.8-9.4 40.6v13.7c33-14 72-21 117-21 115.5 0 173.3 42.9 173.3 128.8v650.1c0 53.1-56.3 79.7-168.8 79.7s-168.8-26.6-168.8-79.7v-95.6h70.5v95.6c0 22.5 32.8 33.8 98.3 33.8s98.3-11.3 98.3-33.8V281.1c0-55.2-34.3-82.9-102.8-82.9-40 0-67.6 5.1-82.9 15.3-15.1 10.3-28 15.8-38.5 16.7z"/>
</svg>
