<svg xmlns="http://www.w3.org/2000/svg" viewBox="0 0 1024 1024">
    <path d="M766.1 568.4h-90.3V588c0 27.5.7 56.2 2.1 86.1 1.4 40.1 2.1 63.5 2.1 70 0 28.5-4.9 46.9-14.7 55.3-8.9 8.9-29.6 13.3-62.3 13.3-4.7 0-13.9-.2-27.7-.7s-32.1-1.2-54.9-2.1c-45.7-1.4-87.5-2.1-125.3-2.1-16.8 0-28.2 6.3-34.3 18.9l-14 39.9V762.3c0-49.5 20.8-74.2 62.3-74.2h206.5c20.1 0 30.1-39.9 30.1-119.7H257.9v-119h508.2v119zM666 286c-14 3.3-28.2 15.4-42.7 36.4-6.5 9.3-11.8 18.6-15.8 27.6-4 9.1-6.9 17.6-8.8 25.6-4.2-16.8-12.4-34.5-24.5-53.2-14.5-21.5-28.7-33.6-42.7-36.4 14.9-3.7 29.4-15.9 43.4-36.4 12.1-17.7 20.1-35.5 23.8-53.2 3.7 17.7 11.7 35.5 23.8 53.2 14.6 21 29 33.1 43.5 36.4zM492.4 286c-13.5 3.7-27.5 15.9-42 36.4-13.1 18.7-21.5 36.4-25.2 53.2-4.2-17.7-12.1-35.5-23.8-53.2-14.5-21.5-28.9-33.6-43.4-36.4 15.4-3.7 30.1-15.9 44.1-36.4 12.1-18.2 19.8-35.9 23.1-53.2 3.3 16.3 11.2 34.1 23.8 53.2 14.5 21 28.9 33.1 43.4 36.4z"/>
</svg>
