<svg xmlns="http://www.w3.org/2000/svg" viewBox="0 0 1024 1024">
    <path d="M840.4 458.1v119H528.9l-60.2 209.3-51.8-240.8c-6.5-32.2-12.1-58.5-16.8-78.8-4.7-20.3-8.6-34.9-11.9-43.8-8.4-21.9-18.9-32.9-31.5-32.9-18.2.5-41.3 9.1-69.3 25.9-21.9 13.1-41.1 27.1-57.4 42 2.3-37.3 15.6-75.6 39.9-114.8 27.1-43.4 56-65.1 86.8-65.1 24.3 0 43.9 15.6 58.8 46.9l27.3-164.5H150.9c32.7-14.9 81.9-33.1 147.7-54.6 74.2-24.3 123-36.4 146.3-36.4 15.4 0 28.5 5.3 39.2 15.8s16.1 23.5 16.1 38.9c0 16.8-12.1 51.8-36.4 105l-46.9 100.1c3.7 7.5 7 15.9 9.8 25.2 4.7 14.9 8.5 30.9 11.5 48 3 17 5 35.6 6 55.6h396.2z"/>
    <path d="M631 377.8c0-8.9-1.8-17.3-5.3-25.2-3.5-7.9-8.3-14.9-14.3-21-6.1-6.1-13.1-10.9-21-14.4s-16.3-5.3-25.2-5.3c-9.3 0-18 1.8-25.9 5.3-7.9 3.5-14.9 8.3-21 14.4S507.5 344.8 504 353s-5.3 16.7-5.3 25.5 1.8 17.3 5.3 25.2c3.5 7.9 8.3 14.9 14.3 21 6.1 6.1 13.2 10.8 21.4 14.3s16.7 5.3 25.5 5.3 17.4-1.8 25.5-5.3 15.2-8.3 21-14.3c5.8-6.1 10.5-13.2 14-21.4s5.3-16.6 5.3-25.5zm-36.3.7c0 7.9-2.9 14.7-8.8 20.3-5.8 5.6-12.7 8.4-20.7 8.4-7.9 0-14.8-2.8-20.7-8.4-5.8-5.6-8.8-12.6-8.8-21 0-7.9 2.9-14.8 8.8-20.6 5.8-5.8 12.7-8.8 20.7-8.8 7.9 0 14.8 3 20.7 9.1 5.8 6.1 8.8 13.1 8.8 21z"/>
</svg>
