<svg xmlns="http://www.w3.org/2000/svg" viewBox="0 0 1024 1024">
    <path d="M748.8 345.5H307.3c-7.7 5.3-15.6 11.8-23.8 19.5-8.2 7.7-15.1 15.3-20.8 23l14.5 20h195.5c-16.8 13.4-23.7 19.6-40.3 39-10.8 12.7-20.2 26.8-30.5 44-12.5 21-19.6 33.7-25 44.5-10.6 21.4-19 40.3-25 64.5-1.7 6.7-6.8 29.5-8.5 45.7-.7 6.3-.8 12.6-.7 18.8.3 34.3 71.8 2 71.5-25-.1-4 1.1-20.8 3.2-33 6-1.8 13.2-3.3 19.6-4.3 9-1.5 18.8-2.3 29.5-2.3 21 .7 38.8 4.1 53.5 10.3 14.7 6.2 26.5 14.2 35.5 24s15.5 20.8 19.5 33c3 9.1 5.6 18.1 5.6 27.1C580.5 739 554 798 517 842c-9.6 11.4 19.5 40.7 39.5 29s37.5-27.3 52.5-46.8 26.8-43 35.3-70.5c4.1-13.2 7.5-27.4 10.3-42.4 2.4-13.1 3.5-25.8 3.5-38.4 0-18.7-3.1-36.2-9.3-52.5-6.2-16.3-15.3-30.5-27.5-42.5s-27.4-21.5-45.8-28.5c-18.3-7-39.7-10.5-64-10.5-7.7 0-15.9.5-24.8 1.5-8.8 1-17.3 2.3-25.3 3.8s-15.2 3.1-21.5 4.8c-5.3 1.4-8.2 2.7-10.7 3.8 5-17.6 9.3-26.9 23.7-55.5 10.1-20.1 25-38.5 42.5-53.5 18.2-15.6 31.6-26.1 52.3-35.8h159.5c12.3-6.3 22.3-12.8 29.8-19.3s15.6-14.3 24.3-23.3l-12.5-19.9z"/>
</svg>
