<svg xmlns="http://www.w3.org/2000/svg" viewBox="0 0 1024 1024">
    <path d="M678.4 441.3c13.8-29.2 32.9-52.1 57.4-68.8 24.5-16.7 50.6-25 78.4-25 45.5 0 81.8 15.2 109 45.5 27.2 30.3 40.8 68.8 40.8 115.5 0 51.1-12 91.9-36 122.3-24 30.5-56.2 45.7-96.6 45.7-15.2 0-28.8-4.3-40.9-13-12.1-8.6-18.2-19.4-18.2-32.2 0-29.2 12.7-54.4 38.1-75.6l23.5 17.8c-10 10-15 21.1-15 33.3 0 10 3 17.6 9.1 22.6s13.8 7.5 23.1 7.5c21.7 0 40.1-12.1 55.3-36.4 15.2-24.3 22.8-54.1 22.8-89.6 0-32.4-10.2-58.4-30.5-78.1-20.3-19.6-48.1-29.4-83.3-29.4-25.9 0-48.5 4.7-67.9 14-19.4 9.3-33.7 22.6-43 39.9l-26.1-16zM813.5 845c0 57.6-9.2 100.6-27.7 129-18.4 28.4-47 42.5-85.8 42.5-40.1 0-69.8-13.2-88.9-39.5-19.1-26.4-28.7-68.1-28.7-125.3 0-44.1-6-74.2-18-90.3-12-16.1-32.8-24.1-62.5-24.1-32.2 0-53.7 8.6-64.4 25.7-10.7 17.2-16.1 47.3-16.1 90.5v78.8c0 25.9-5.1 46.4-15.4 61.6s-24.3 22.8-42 22.8c-19.1 0-33.6-8.3-43.4-24.8-9.8-16.6-14.7-54-14.7-112.4V838c0-35.5-2.7-61.1-8.2-77-5.5-15.9-14.3-23.8-26.4-23.8s-20.5 5.4-25.2 16.1c-4.7 10.7-7.2 30.7-7.7 59.9-6.8 1.9-11.9 2.8-15.4 2.8-1.4 0-5.6-.7-12.6-2.1 0-50.6 5.1-86 15.4-106 10.3-20.1 25.1-30.1 44.5-30.1 20.8 0 36.6 11.3 47.4 34 10.9 22.6 16.3 65.6 16.3 128.8v41.3c0 36.2 1.9 58.9 5.8 68.3 3.9 9.3 12.3 14 25.4 14 8.9 0 15.8-5.1 20.8-15.4s7.5-23 7.5-38.1v-57c0-61.4 8.6-106 25.9-133.9 17.3-27.9 44.7-41.8 82.3-41.8 39.7 0 67.7 12.4 84.2 37.3s24.7 69.8 24.7 134.9c0 39.7 6.9 67.4 20.6 83.3 13.8 15.9 37.1 23.8 70 23.8 29.9 0 51.4-9.3 64.6-27.8s19.8-46.6 19.8-84.2v-145h28V845zM388.1 236.2c43.6-69.3 85.2-117.7 124.6-145.3S598.9 49.6 653 49.6c26.1 0 51.4 7.1 75.8 21.3s45.1 34.2 62.1 59.8L513.1 246l-12.6-22.4 213.2-91c-12.4-10.5-24.3-17.6-35.9-21.3-11.6-3.7-24.8-5.6-39.7-5.6-39.7 0-78 11.3-115 33.9s-76.6 58.7-118.8 108.2l-16.2-11.6zm20.4 135.1c-63.7-53.2-111.8-100.1-144.2-140.7l31.1-32.2c30.8 39.7 73.5 91.1 128.1 154.3l-15 18.6z"/>
</svg>
