<svg xmlns="http://www.w3.org/2000/svg" viewBox="0 0 1024 1024">
    <path d="M813.5 839c0 57.6-9.2 100.6-27.7 129-18.4 28.4-47 42.5-85.8 42.5-40.1 0-69.8-13.2-88.9-39.5-19.1-26.4-28.7-68.1-28.7-125.3 0-44.1-6-74.2-18-90.3-12-16.1-32.8-24.1-62.5-24.1-32.2 0-53.7 8.6-64.4 25.7-10.7 17.2-16.1 47.3-16.1 90.5v78.8c0 25.9-5.1 46.4-15.4 61.6-10.3 15.2-24.3 22.8-42 22.8-19.1 0-33.6-8.3-43.4-24.8-9.8-16.6-14.7-54-14.7-112.4V832c0-35.5-2.7-61.1-8.2-77-5.5-15.9-14.3-23.8-26.4-23.8-12.1 0-20.5 5.4-25.2 16.1-4.7 10.7-7.2 30.7-7.7 59.9-6.8 1.9-11.9 2.8-15.4 2.8-1.4 0-5.6-.7-12.6-2.1 0-50.6 5.1-86 15.4-106 10.3-20.1 25.1-30.1 44.4-30.1 20.8 0 36.6 11.3 47.4 34 10.9 22.6 16.3 65.6 16.3 128.8v41.3c0 36.2 1.9 58.9 5.8 68.3s12.3 14 25.4 14c8.9 0 15.8-5.1 20.8-15.4s7.5-23 7.5-38.1v-57c0-61.4 8.6-106 25.9-133.9 17.3-27.9 44.7-41.8 82.3-41.8 39.7 0 67.7 12.4 84.2 37.3 16.4 24.9 24.7 69.8 24.7 134.9 0 39.7 6.9 67.4 20.6 83.3 13.8 15.9 37.1 23.8 70 23.8 29.9 0 51.4-9.3 64.6-27.8 13.2-18.5 19.8-46.6 19.8-84.2V609h28v230zM403.7 209.6c43.6-69.3 85.2-117.7 124.6-145.3S614.5 23 668.6 23c26.1 0 51.4 7.1 75.8 21.3 24.4 14.2 45.1 34.2 62.1 59.8L528.6 219.3 516 197l213.1-91c-12.4-10.5-24.3-17.6-35.9-21.3-11.5-3.7-24.8-5.6-39.7-5.6-39.7 0-78 11.3-115 33.9s-76.6 58.7-118.8 108.2l-16-11.6zM424 344.7C360.3 291.5 312.2 244.6 279.8 204l31.1-32.2c30.8 39.7 73.5 91.1 128.1 154.3l-15 18.6z"/>
    <path d="M813.5 845c0 57.6-9.2 100.6-27.7 129-18.4 28.4-47 42.5-85.8 42.5-40.1 0-69.8-13.2-88.9-39.5-19.1-26.4-28.7-68.1-28.7-125.3 0-44.1-6-74.2-18-90.3-12-16.1-32.8-24.1-62.5-24.1-32.2 0-53.7 8.6-64.4 25.7-10.7 17.2-16.1 47.3-16.1 90.5v78.8c0 25.9-5.1 46.4-15.4 61.6-10.3 15.2-24.3 22.8-42 22.8-19.1 0-33.6-8.3-43.4-24.8-9.8-16.6-14.7-54-14.7-112.4V838c0-35.5-2.7-61.1-8.2-77-5.5-15.9-14.3-23.8-26.4-23.8-12.1 0-20.5 5.4-25.2 16.1-4.7 10.7-7.2 30.7-7.7 59.9-6.8 1.9-11.9 2.8-15.4 2.8-1.4 0-5.6-.7-12.6-2.1 0-50.6 5.1-86 15.4-106 10.3-20.1 25.1-30.1 44.4-30.1 20.8 0 36.6 11.3 47.4 34 10.9 22.6 16.3 65.6 16.3 128.8v41.3c0 36.2 1.9 58.9 5.8 68.3s12.3 14 25.4 14c8.9 0 15.8-5.1 20.8-15.4s7.5-23 7.5-38.1v-57c0-61.4 8.6-106 25.9-133.9 17.3-27.9 44.7-41.8 82.3-41.8 39.7 0 67.7 12.4 84.2 37.3 16.4 24.9 24.7 69.8 24.7 134.9 0 39.7 6.9 67.4 20.6 83.3 13.8 15.9 37.1 23.8 70 23.8 29.9 0 51.4-9.3 64.6-27.8 13.2-18.5 19.8-46.6 19.8-84.2V615h28v230zM403.7 215.6c43.6-69.3 85.2-117.7 124.6-145.3S614.5 29 668.6 29c26.1 0 51.4 7.1 75.8 21.3 24.4 14.2 45.1 34.2 62.1 59.8L528.6 225.3 516 203l213.1-91c-12.4-10.5-24.3-17.6-35.9-21.3-11.5-3.7-24.8-5.6-39.7-5.6-39.7 0-78 11.3-115 33.9s-76.6 58.7-118.8 108.2l-16-11.6zM424 350.7C360.3 297.5 312.2 250.6 279.8 210l31.1-32.2c30.8 39.7 73.5 91.1 128.1 154.3l-15 18.6z"/>
</svg>
