<svg xmlns="http://www.w3.org/2000/svg" viewBox="0 0 1024 1024">
    <path d="M702.7 427.2c13.8-29.2 32.9-52.1 57.4-68.8s50.6-25 78.4-25c45.5 0 81.8 15.2 109 45.5 27.2 30.3 40.8 68.8 40.8 115.5 0 51.1-12 91.9-36 122.3s-56.2 45.7-96.6 45.7c-15.2 0-28.8-4.3-40.9-13-12.1-8.6-18.2-19.4-18.2-32.2 0-29.2 12.7-54.4 38.1-75.6l23.5 17.8c-10 10-15 21.1-15 33.3 0 10 3 17.6 9.1 22.6s13.8 7.5 23.1 7.5c21.7 0 40.1-12.1 55.3-36.4 15.2-24.3 22.8-54.1 22.8-89.6 0-32.4-10.2-58.4-30.5-78s-48.1-29.4-83.3-29.4c-25.9 0-48.5 4.7-67.9 14-19.4 9.3-33.7 22.6-43 39.9l-26.1-16.1zM614.4 1014L592 959.4c-24.3 10.7-51.1 16.1-80.5 16.1-52.7 0-94-15-123.7-45s-44.6-71.5-44.6-124.4V685.7h28v112.7c0 78.4 46.7 117.6 140 117.6 22.9 0 42.8-2.3 59.9-7-4.9-11.7-14.6-33.7-29.2-66.1-14.6-32.4-30.3-48.7-47.1-48.7-9.6 0-17 3.6-22.4 10.9-5.4 7.2-8.3 16.8-8.8 28.7l-23.1-1.8c0-25 4.3-47.5 12.9-67.5s20.6-30.1 36.1-30.1c13.3 0 26.5 8.1 39.7 24.3 13.2 16.2 29.1 46.7 47.8 91.5l20.3 48.7c35.9-19.1 53.9-52.2 53.9-99V685.8h28v114c0 66.3-20.9 114.7-62.7 145.3l23.1 55.6-25.2 13.3z"/>
</svg>
