<svg xmlns="http://www.w3.org/2000/svg" viewBox="0 0 1024 1024">
    <path d="M45.9 487.6c0-40.4 12.5-75.7 37.4-105.9s59.5-45.3 103.6-45.3c48.1 0 85 17.6 110.8 52.8 25.8 35.2 38.7 85.9 38.7 151.9 0 226.3-107.8 244.8-107.8 328.8 0 31.7 4.1 59 12.3 81.9L244 963l-23.4 13.7c-7-9.6-13.2-26.6-18.7-51.1s-8.2-44.2-8.2-59.1c0-91.4 74.4-127.4 94.3-203.6 11.1-42.3 13.5-84.2 13.5-124.1 0-95.2-37.8-142.8-113.4-142.8-34.1 0-61.5 8.3-82.3 24.8S74.4 459.4 74 487c-6.8 1.9-11.9 2.8-15.4 2.8l-12.7-2.2zm621.5-54.8c13.8-29.2 32.9-52.1 57.4-68.8s50.6-25 78.4-25c45.5 0 81.8 15.2 109 45.5C939.4 414.8 953 453.3 953 500c0 51.1-12 91.9-36 122.3-24 30.5-56.2 45.7-96.6 45.7-15.2 0-28.8-4.3-40.9-13-12.1-8.6-18.2-19.4-18.2-32.2 0-29.2 12.7-54.4 38.1-75.6l23.5 17.8c-10 10-15 21.1-15 33.3 0 10 3 17.6 9.1 22.6s13.8 7.5 23.1 7.5c21.7 0 40.1-12.1 55.3-36.4 15.2-24.3 22.8-54.1 22.8-89.6 0-32.4-10.2-58.4-30.5-78S839.6 395 804.4 395c-25.9 0-48.5 4.7-67.9 14s-33.7 22.6-43 39.9l-26.1-16.1z"/>
</svg>
