<svg xmlns="http://www.w3.org/2000/svg" viewBox="0 0 1024 1024">
    <path d="M727.8 860.9c-13.3-15.3-28-28.9-44-40.8s-32.8-22.5-50.5-32-35.5-19.7-55.3-25.8c-85-25.9-130.6-74.8-152-105-15-21.2-31.9-60.4-40.8-88.5-7.8-24.7-15.2-56.5-21.7-86.5-5.7-26.5-7.3-54.2-7.3-84.5 0-43.3 1.8-79.6 5.3-108.8s9.5-52.6 18-70.3 19.9-30.3 34.3-37.8c13.7-7.2 31.2-16.7 51.4-20.2 24.2-4.2 71.2-2.2 84.8 0 23.4 3.8 40.8 10.2 56.3 20.5s28.2 25.2 38 44.5 17.1 42.9 21.8 70.8 7 59.3 7 94.3c0 26.7-.8 52.1-2.3 76.3-1.5 24.2-5.3 46.8-11.5 68-6.2 21.2-15.5 40.8-28 58.8s-29.8 34.5-51.8 49.5l20.5 57c36.7-18 67.5-38.8 92.5-62.3s45.1-48.9 60.3-76.3c15.2-27.3 26.1-56 32.8-86s10-60.3 10-91c0-59-5.4-107.5-16.3-145.5s-26.3-68-46.3-90-43.9-37.3-71.8-46-58.7-11.4-92.8-13c-18.8-.9-68.2-3.7-94.1-1-43.3 4.6-68.8 10.1-99.3 20.3s-57 27.1-79.5 50.7-40.2 54.9-53 93.8c-12.8 38.8-19.3 86.8-19.3 143.8 0 22.7 6.6 46 10.3 72 4.7 34.1 11.8 51.4 21.3 78.3 11.7 33.1 28.5 61.6 43.5 86.5 18.8 31.2 25.6 39.1 44.3 59.9 21.9 24.4 29.9 31.4 54.4 48.6s29 21.4 55.4 31.7c-48 3-91.9 23-104.4 29s-23.8 13-33.8 21-18.9 16.7-26.8 26c-7.8 9.3-15.4 18.7-22.8 28l46.5 77c24.3-35.7 50.6-61.4 78.8-77.3 28.2-15.8 57.9-23.8 89.3-23.8 20.3 0 41.1 3 62.3 9s42.8 14.5 64.8 25.5 44.3 24.3 66.8 39.8 45.1 32.8 67.8 51.8h46.5c-6-25.3-14.1-47.8-24.3-67.5-10.3-19.6-22-37.1-35.3-52.5z"/>
</svg>
