<svg xmlns="http://www.w3.org/2000/svg" viewBox="0 0 1024 1024">
    <path d="M233.4 689.5c0 53 7.8 97.6 23.3 133.8s36.3 65.3 62.3 87.3 56 37.8 90 47.5 69.5 14.5 106.5 14.5c35 0 69.2-4.8 102.5-14.5 33.4-9.7 63.1-24.5 89.3-44.5 26.2-20 47.3-45.5 63.3-76.5s24-67.8 24-110.5c0-29.3-5.5-54.8-16.3-76.5s-24.3-40-40.5-54.8c-16.2-14.9-33.5-26.6-52-35.3s-35.3-14.7-50.3-18L615 576c8.3 8 15.5 17.7 21.5 29 6 11.4 10.8 23.8 14.5 37.3 3.7 13.5 6.4 27.8 8.3 43 1.9 15.2 2.8 30.6 2.8 46.3 0 26.7-2.5 50.1-7.5 70.5s-13.5 37.5-25.3 51.3-27.3 24.3-46.5 31.5c-19.2 7.2-43 10.8-71.3 10.8-29.7 0-54-4-72.8-11.8-18.9-7.8-33.6-21-44.3-39.5s-18-43-22-73.5-6-68.6-6-114.3c0-36.3 3.3-65.5 10-87.5s15.5-39 26.3-50.8c10.9-11.8 23.1-19.7 36.8-23.5 13.7-3.9 27.3-5.8 41-5.8 0 0 89.8 4 150.5-19 29-11 81-39 113-88.7 14-21.9 30-41.3 28.9-124.7-1-65-23.6-112.9-70.8-143.8-47.2-30.9-118.8-46.3-214.8-46.3-16.4 0-33.5 1.6-51.3 4.8-17.8 3.1-35.5 7.9-52.7 14.4s-33.5 14.5-49 24-29.2 20.6-41 33.3-21.1 26.9-28 42.8-10.3 33.1-10.3 51.8c0 20 4.3 38.2 12.8 54.5s20 32.5 34.3 48.5l94.5-77c-16.3-12-28.2-22.1-35.5-30.3s-11.3-15.1-12-20.8c0-14.4 4.3-26.1 12.8-35.3s19.8-16.3 33.8-21.5 30.1-8.7 48.3-10.5c18.2-1.9 37.1-2.8 56.8-2.8 50.7 0 88.6 7 113.8 21 25.2 14 34.6 33.7 37.8 58.5 4 32 2.5 54.8.2 87-1.4 19.6-20.5 55-36.5 69-10.5 9.2-35.8 20-62 26.9-46 12.1-97 12.6-97 12.6-32.4 0-62.3 6.8-89.8 20.3S316.2 470 296.5 494s-35.1 52.7-46.3 86c-11.1 33.3-16.7 69.8-16.8 109.5z"/>
</svg>
