<svg xmlns="http://www.w3.org/2000/svg" viewBox="0 0 1024 1024">
    <path d="M777.8 580c-11.2-33.3-26.6-62-46.3-86s-43.3-42.8-70.8-56.3-57.4-20.3-89.8-20.3c0 0-51-.5-97-12.6-26.2-6.9-51.5-17.7-62-26.9-16-14-35.1-49.4-36.5-69-2.3-32.2-3.8-55 .2-87 3.2-24.8 12.6-44.5 37.8-58.5 25.2-14 63.1-21 113.8-21 19.7 0 38.6.9 56.8 2.8 18.2 1.8 34.3 5.3 48.3 10.5s25.3 12.3 33.8 21.5 12.8 20.9 12.8 35.3c-.7 5.7-4.7 12.6-12 20.8s-19.2 18.3-35.5 30.3l94.5 77c14.3-16 25.8-32.2 34.3-48.5s12.8-34.5 12.8-54.5c0-18.7-3.4-35.9-10.3-51.8s-16.2-30.1-28-42.8-25.5-23.8-41-33.3-31.8-17.5-49-24-34.9-11.3-52.7-14.4c-17.8-3.2-34.9-4.8-51.3-4.8-96 0-167.6 15.4-214.8 46.3s-69.8 78.8-70.8 143.8C254 340 270 359.4 284 381.3 316 431 368 459 397 470c60.7 23 150.5 19 150.5 19 13.7 0 27.3 1.9 41 5.8 13.7 3.8 25.9 11.7 36.8 23.5 10.8 11.8 19.6 28.8 26.3 50.8s10 51.2 10 87.5c0 45.7-2 83.8-6 114.3s-11.3 55-22 73.5-25.4 31.7-44.3 39.5c-18.8 7.8-43.1 11.8-72.8 11.8-28.3 0-52.1-3.6-71.3-10.8s-34.7-17.7-46.5-31.5-20.3-30.9-25.3-51.3-7.5-43.8-7.5-70.5c0-15.7.9-31.1 2.8-46.3s4.6-29.5 8.3-43 8.5-25.9 14.5-37.3c6-11.3 13.2-21 21.5-29l-20.5-34c-15 3.3-31.8 9.3-50.3 18s-35.8 20.4-52 35.3c-16.2 14.8-29.7 33.1-40.5 54.8-10.8 21.7-16.3 47.2-16.3 76.5 0 42.7 8 79.5 24 110.5s37.1 56.5 63.3 76.5 55.9 34.8 89.3 44.5c33.3 9.7 67.5 14.5 102.5 14.5 37 0 72.5-4.8 106.5-14.5s64-25.5 90-47.5 46.8-51.1 62.3-87.3 23.3-80.8 23.3-133.8c-.1-39.7-5.7-76.2-16.8-109.5z"/>
</svg>
