<svg xmlns="http://www.w3.org/2000/svg" viewBox="0 0 1024 1024">
    <path d="M789.8 461.4c0-29-1.9-59.2-5.8-90.5s-10.3-62.1-19.3-92.3-20.7-58.8-35-86-32.1-51-53.3-71.5c-21.2-20.5-45.8-36.8-74-48.8-28.2-12-60.6-18-97.3-18-36 0-67.8 5.9-95.5 17.8s-51.8 27.9-72.3 48.3-37.7 44.1-51.5 71.3-25 55.9-33.5 86.3-14.6 61.6-18.3 93.8-5.5 63.3-5.5 93.3c0 3.6 0 7.8.1 12.6-.1 3.9-.3 7.8-.4 11.7-.5 23.5-.8 45.9-.8 67.3 0 29 1.9 59.2 5.8 90.5s10.3 62.1 19.3 92.3 20.7 58.8 35 86 32.1 51 53.3 71.5 45.8 36.8 74 48.8c28.2 12 60.6 18 97.3 18 36 0 67.8-5.9 95.5-17.8 27.7-11.8 51.8-27.9 72.3-48.3s37.7-44.1 51.5-71.3 25-55.9 33.5-86.3 14.6-61.6 18.3-93.8 5.5-63.3 5.5-93.3c0-3.6 0-7.8-.1-12.6.1-3.9.3-7.8.4-11.7.6-23.5.8-45.9.8-67.3zM454.6 870.9c-1.4-1-2.9-2-4.3-3v-.5c-1.4-.8-2.7-1.7-4-2.6-12.6-10.1-23.6-22.7-33-37.9-3.9-6.3-7.5-13-10.9-20-5.5-12.2-10.4-25.3-14.6-39.5-6.7-22.7-11.8-47-15.3-73s-6.1-52-7.8-78-2.7-51.3-3-76c-.3-24.7-.5-47-.5-67 0-46.7 1.6-90.7 4.7-132 1.4-14.4 3-28.2 5.1-41.5 5.2-34 13.3-63.8 24.5-89.5 11.2-25.7 27.1-45.8 47.8-60.5V147c16.9-11 37.6-16.6 62-16.6 22.3 0 41.6 5.5 57.8 16.5 1.4 1 2.9 2 4.3 3v.5c1.4.8 2.7 1.7 4 2.6 12.6 10.1 23.6 22.7 33 37.9 3.9 6.3 7.5 13 10.9 20 5.5 12.2 10.4 25.3 14.6 39.5 6.7 22.7 11.8 47 15.3 73s6.1 52 7.8 78 2.7 51.3 3 76c.3 24.7.5 47 .5 67 0 46.7-1.6 90.7-4.7 132-1.4 14.4-3 28.2-5.1 41.5-5.2 34-13.3 63.8-24.5 89.5-11.2 25.7-27.1 45.8-47.8 60.5v2.9c-16.9 11-37.6 16.6-62 16.6-22.4 0-41.7-5.5-57.8-16.5z"/>
</svg>
