<svg xmlns="http://www.w3.org/2000/svg" viewBox="0 0 1024 1024">
    <path d="M457.8 220.9c0 31.2-13.6 57.4-40.9 78.5s-64.1 35.4-110.4 42.6l-21.9-73.1c34.7-2.6 63.7-12.5 86.9-29.5 23.2-17.1 34.7-37.3 34.7-60.6 0-26.5-13.2-39.8-39.7-39.8-25.9 0-48.9 10.7-68.9 32.2-20 21.4-38.7 48.3-46.5 84.4-5.7 26.4-8.1 56.9-2.9 80.7 8.1 37.2 29.8 61.7 65.8 77 40.7 17.3 109 37.4 179.1 39.9 51.3 1.9 131.8-6.6 172.9-25.3 41.1-18.8 73.1-43.3 96.2-73.5 23-30.3 27.9-46.3 27.9-80.5 0-37.9-9.2-60.1-24.2-85.6-15-25.5-36.3-38.3-63.9-38.3-18.2 0-33.3 6-45.3 17.9-12 12-18 27.1-18 45.5 0 23.9 10.7 43.3 32.1 58.2 21.4 14.9 49.3 23.6 83.8 26.2l-2.5 35.4c-30.1-.3-58.7-7.2-86-20.8-27.3-13.6-49.4-32-66.2-55.3-16.8-23.3-25.2-48.8-25.2-76.6 0-28 8.5-50 25.4-66.1 17-16 40.7-24.1 71.3-24.1 51.3 0 103 20.4 135.2 66.5 32.9 47 41.8 90.5 41.8 130.2 0 74.3-32.9 119.8-80 151.7-54 36.6-132.3 64-220.8 64-57.4 0-162.2-7.4-210.3-24.7-50-18-83.7-32.4-111.7-64.3-33.6-38.3-49.8-80.9-49.8-123.5 0-29.4-1.3-47.3 12.6-83s34.1-64.2 60.4-85.3 57.4-31.7 93.3-31.7c33.9 0 61.7 12.2 83.3 36.5 21.6 24.7 32.4 56 32.4 94.2zM457.8 664.9c0 31.2-13.6 57.4-40.9 78.5-27.3 21.1-64.1 35.4-110.4 42.6l-22-73c34.7-2.6 63.7-12.5 86.9-29.5s34.7-37.3 34.7-60.6c0-26.5-13.2-39.8-39.7-39.8-25.9 0-48.9 10.7-68.9 32.2-20 21.4-38.7 48.3-46.5 84.4-5.7 26.4-8.1 56.9-2.9 80.7 8.1 37.2 29.8 61.7 65.8 77 40.7 17.3 109 37.4 179.1 39.9 51.3 1.9 131.8-6.6 172.9-25.3 41.1-18.8 73.1-43.3 96.2-73.5S790 752.2 790 718c0-37.9-9.2-60.1-24.2-85.6-15-25.5-36.3-38.3-63.9-38.3-18.2 0-33.3 6-45.3 17.9-12 12-18 27.1-18 45.5 0 23.9 10.7 43.3 32.1 58.2 21.4 14.9 49.3 23.6 83.8 26.2l-2.5 35.4c-30.1-.3-58.7-7.2-86-20.8-27.3-13.6-49.4-32-66.2-55.3s-25.2-48.8-25.2-76.6c0-28 8.5-50 25.4-66.1 17-16 40.7-24.1 71.3-24.1 51.3 0 103 20.4 135.2 66.5 32.9 47 41.8 90.5 41.8 130.2 0 74.3-32.9 119.8-80 151.7-54 36.6-132.3 64-220.8 64-57.4 0-162.2-7.4-210.3-24.7-50-18-83.7-32.4-111.7-64.3-33.6-38.3-49.8-80.9-49.8-123.5 0-29.4-1.3-47.3 12.6-83s34.1-64.2 60.4-85.3 57.4-31.7 93.3-31.7c33.9 0 61.7 12.2 83.3 36.5 21.7 24.6 32.5 55.9 32.5 94.1z"/>
</svg>
