<svg xmlns="http://www.w3.org/2000/svg" viewBox="0 0 1024 1024">
    <path d="M140 736.5c0-10.3 3.6-19.1 10.8-26.3 7.2-7.2 15.6-10.8 25.3-10.8 7 0 12.8 2.1 17.5 6.3 4.7 4.2 7 9.8 7 16.8 0 15-7.3 25.8-22 32.5 7.3 3 12.5 4.5 15.5 4.5 10.3 0 18.2-8.9 23.5-26.8 5.3-17.9 14-59.7 26.1-125.6l23.9-130.4h-42.5l-.5.5h-1.5c-9.3 0-14-3.6-14-10.7 0-9.2 5-13.8 15-13.8h47.5l.5-.5c7.7-51 17.2-84.4 28.5-100.1 7-9.7 16.1-17.2 27.3-22.5 11.2-5.3 22.6-8 34.3-8 16.1 0 29.6 3.9 40.4 11.8 10.8 7.8 16.1 17.8 16.1 29.8 0 11.3-3.7 20.4-11.1 27-7.4 6.7-15.6 10-24.7 10-7.1 0-13-2.1-17.7-6.3-4.7-4.2-7.1-9.8-7.1-16.9 0-14.5 7.2-25.2 21.7-32.3-6.1-3-11.3-4.5-15.6-4.5-8.4 0-14.7 1.2-19.1 3.7-1.3.8-3.6 9.3-6.7 25.7s-6.1 32-9 46.9c-2.8 14.9-4.3 27-4.3 36.3h54.3c9.4 0 14.1 3.4 14.1 10.2 0 9.5-5.1 14.3-15.1 14.3-.4 0-.5-.1-.5-.3 0-.2-.2-.3-.5-.3H318c-16.7 97.7-28.7 160.1-35.8 187.2-5.3 22.1-11.3 40.7-18 55.9-6.7 15.2-16.4 28.6-29 40.2-13.3 12-27 18-41 18-13.7 0-26.1-3.6-37.3-10.8-11.3-7.1-16.9-17.4-16.9-30.7zm329.5-208.1c0-89.1 29.9-163.3 89.6-222.7 19-18 31.9-27 38.5-27 6 0 9 2.3 9 7 0 1.7-2.7 5.2-8 10.5-53.7 54-80.6 131.6-80.6 232.7 0 48 6.3 91.3 19 129.6 14 43 36.7 79.1 68.1 108.1l.5 1.5c.7 1.3 1 2.5 1 3.5 0 4.7-3 7-9 7-3.7 0-10.1-3.4-19.3-10.3-9.2-6.8-20.4-17.6-33.8-32.3-13.3-14.7-25-30.9-35-48.5-26.6-47-40-100.1-40-159.1zm276.8 243.2c0-1.7 2.7-5.2 8-10.5 53.7-54 80.6-131.6 80.6-232.7 0-99.7-26.7-176.8-80.1-231.2-5.7-5.3-8.5-9.2-8.5-11.5 0-4.7 3-7 9-7 3.7 0 10.1 3.4 19.3 10.3 9.2 6.8 20.4 17.6 33.8 32.3 13.3 14.7 25 30.9 35 48.5 26.7 47 40 100.1 40 159.1 0 89.1-29.9 163.3-89.6 222.7-19 18-31.9 27-38.5 27-6 0-9-2.3-9-7z"/>
</svg>
