<svg xmlns="http://www.w3.org/2000/svg" viewBox="0 0 1024 1024">
    <path d="M276.7 258.1c-9-9.6-16.5-16.5-22.5-20.7-12-9.6-18-17.4-18-23.4.6-6.6 6.6-8.7 18-6.3 25.2 2.4 51.6 3.3 79.2 2.7 166.2-12.6 270-33.3 311.4-62.1 9-9 21-9 36 0 36 21.6 54 41.4 54 59.4 0 10.2-4.5 18-13.5 23.4-12 6-26.1 24.6-42.3 55.8-13.8 29.4-28.2 54.3-43.2 74.7-16.8 23.4-21.6 39-14.4 46.8 6 8.4 18 10.5 36 6.3 37.2-2.4 59.7-8.4 67.5-18 7.8-8.4 16.5-12.9 26.1-13.5 9.6.6 21 9.3 34.2 26.1 15.6 16.8 24.6 30 27 39.6 1.8 10.2-2.1 19.2-11.7 27-7.8 8.4-20.3 13.1-31.5 55.2C732.4 669 727.8 691.2 707.7 740c-16.4 39.9-48.2 110.6-81.2 131-32.4 21-55.2 31.5-68.4 31.5-10.8-.6-18.3-3-22.5-7.2-3.6-5.4-5.1-12.9-4.5-22.5 2.4-22.8-12.6-52.5-45-89.1-10.8-12-14.4-21-10.8-27 4.8-6 14.7-5.1 29.7 2.7 39 25.8 63 38.7 72 38.7 18 3.9 50.5-31.5 62.7-58.7 22.7-50.7 58.5-160.9 69.9-202.3 12-36 15.3-58.8 9.9-68.4-11.4-22.2-46.8-25.2-106.2-9-30.6 4.2-52.5.6-65.7-10.8-11.4-11.4-15.3-22.8-11.7-34.2 2.4-12 7.5-19.2 15.3-21.6 15.6-5.4 29.7-21.9 42.3-49.5 21-48.6 33.6-84 37.8-106.2 1.8-9.6.6-17.1-3.6-22.5-4.8-6-14.7-6.9-29.7-2.7-81 18-159.3 38.1-234.9 60.3-36 10.8-64.8 6-86.4-14.4z"/>
    <path d="M341.5 402.2c4.9-4.7 15.6-1.2 32.2 10.5 15.4 10.5 30.6 18.8 45.5 25.1 16.1 6.3 27 14.3 32.9 24 4.1 6.1 4.9 13 2.3 20.7-32.5 68.5-31.9 96.5-25.5 284.9 4.1 72.1 3.4 112.9-2.2 122.4-4.9 7.7-9.5 11.8-13.7 12.4-11.4-2.6-21.7-10.3-31.1-23.1-24.6-32.9-33.1-58.3-25.6-76.1 10.1-30.4 10.1-85.4 10.1-233.8-1.6-75.6-8.6-124.4-20.8-146.2-6.4-9.7-7.8-16.6-4.1-20.8z"/>
</svg>
