<svg xmlns="http://www.w3.org/2000/svg" viewBox="0 0 1024 1024">
    <path d="M221.1 233.9c3.5-9.1 6.1-16.6 7.9-22.6 1.8-6.1 2.8-10.5 2.9-14.5.2-12.6-8.1-23.1-20.7-29-12.6-6.2-30.1-9.6-53-11.1l-4.7-.3-7.9 16.1-3.5 7.1 7.4 2.6c7.9 2.8 13.4 6 16.6 8.9 3.2 3.1 4.1 5.4 4.1 8.2.1 9.7-4.9 30-15.2 58.9C126.7 335.5 80.8 403.6 17.1 463l-5.8 5.4 6 5.1 10.3 8.7 4.3 3.6 4.5-3.4c84.5-63.2 146.1-146.3 184.7-248.5zM321.9 162.7l-4.9-3.5-4.2 4.3-10.3 10.3-5.2 5.2 5.5 5c67.2 60.6 112 134.4 135 222.1 2.5 9.8 5.8 17.7 10.4 23.6 4.5 5.9 11.3 9.8 18.6 9.7 9.3.1 18-3.6 23.1-10.9 5.2-7.2 7.1-16.6 7.2-28.1-.1-30.5-15.7-66.4-45.7-108.9-34.5-48.3-77.7-91.1-129.5-128.8zM392.5 176.6c10.6 8.1 23 12.3 36.2 12.3 23.1.2 42-11.1 53-31.6 0 0 0-.1.1-.1 0-.1.1-.1.1-.2 5.3-8.8 8-18.7 8-29.2.3-23.2-11.1-42.1-31.6-52.9-.1 0-.1 0-.2-.1-.1 0-.1-.1-.2-.1-8.8-5.3-18.8-8-29.7-8-15.9-.1-30.2 5.6-41.5 16.5-12.6 11.9-19.2 27.3-19.1 44.7-.2 19.7 8.6 36.8 24.9 48.7zm49-22.7c-3.5 1.8-7.6 2.9-12.8 2.9-9-.1-15.4-3-21.1-9.4l-.1-.1c-5.5-6-7.9-12.1-7.9-19.5.2-11.3 4.2-18.6 13.9-24.9 4.4-2.7 9.5-4.2 15.8-4.2 7.5.1 13.6 2.6 19.9 8.8 6.1 6.1 8.7 12.5 8.8 20.4-.4 12.2-5 19.7-16.5 26zM970.8 279l-.2-.2c-10.8-8.6-22.5-13.3-34.5-13.3-5.6 0-11.6 1.3-17.9 3.6-16.5 5.7-50.6 10.5-100.8 13.5-50.3 3.1-116.9 4.6-199.8 4.6-34.6 0-57.5-8-70-22l-4.2-4.6-5.1 3.6-9.8 6.9-4.5 3.1 1.9 5.1c6.8 18.1 15.7 32.2 27 41.9 11.3 9.7 25.3 14.7 40.5 14.7 7.6 0 18.7-1.1 34-3.3 50.4-7.5 134-11.3 250.2-11.3 21 0 39.1.5 54.1 1.6h.2c14 .7 21.5 1 23.6 1.1 9.2 0 16.6-1.1 22.7-4.2 6.1-2.9 10.5-9.5 10.3-16.3-.4-9.9-7.4-16.6-17.7-24.5zM459.9 539.8c-11.7-7.3-28.1-12.5-49.5-16.1l-5.1-.9-8.4 16.5-3.2 6.3 6.3 3.2c14.4 7.6 19.4 15 19.4 23.3.1 4.1-1.8 14.6-5.8 29.6-10.9 40.3-28.4 80.6-52.6 120.9-50.3 84.1-123.4 148.4-219.8 193.2l-7.3 3.4 4.4 6.8 7.7 11.9 3 4.7 5.3-1.9c56.2-20.5 103.9-45.9 142.9-76.3 60.8-46.9 110.4-113.2 149.2-198.3 21.4-46.9 32.4-77.7 32.6-96.1 0-12.4-7.4-23-19.1-30.2zM210.8 523.6l-4.5 3.6-10.3 8.2-5.1 4 3.6 5.4c21.4 31.7 33 64.6 35.3 99.2.8 12.6 2.8 22.4 6.6 29.9 3.6 7.5 10.8 13 19.1 12.8 10.2.1 19.6-3.4 25.5-10.9 5.9-7.4 8.2-17.3 8.2-29.2-.1-38.4-25.7-77.8-74-119.4l-4.4-3.6zM152.2 710.3c.1 0 .1 0 0 0 .2-.1.2-.1.3-.2 9.8-7.2 14.7-18.9 14.5-32.4-.2-37-27.8-74.4-79.6-114.4l-4.4-3.4-4.3 3.4-10.3 8.2-5.3 4.2 4 5.5c22.3 30.5 35.7 62.7 40.4 96.9 1.4 11.8 3.9 21.2 8.2 28.3 4.2 7.1 11.6 12 19.8 11.8 6.4-.2 10.8-3.4 16.7-7.9z"/>
</svg>
